<svg xmlns="http://www.w3.org/2000/svg" width="383.007" height="2374.564" viewBox="0 0 383.007 2374.564">
  <path id="Exclusion_1" data-name="Exclusion 1" d="M374.783,2374.565H0v-.128H374.783v.127Zm8.217-.128h-8.217l.323-1399.478C380.2,874.474,382.852,770.4,383,665.616ZM0,2371.821H0V1310.279c.023.072.262.813.716,2.2ZM0,1303.3H0V635.437H.17ZM383,664.239h0V648.395C383.008,653.676,383.008,659.007,383,664.239Zm0-18.35h0c-.006-3.635-.014-7.151-.025-10.453H383Zm-.027-10.453H.17L.329,0C.363.188,4.364,22.915,11.741,57.373c4.3,20.094,8.874,40.087,13.592,59.426,5.9,24.176,12.038,47.388,18.251,68.993,15.817,55,32.2,100.055,48.684,133.912,4.765,9.784,9.6,18.752,14.381,26.654A195.971,195.971,0,0,0,121.8,368.235a104.007,104.007,0,0,0,15.87,16.074,53.962,53.962,0,0,0,16.53,9.248,141.773,141.773,0,0,0,24.271,5.512,185.055,185.055,0,0,0,25.475,1.69c18.661,0,39.286-2.494,61.3-7.413a449.116,449.116,0,0,0,55.1-16.309c16.859-6.128,30.925-12.251,39.756-16.309,9.524-4.376,15.225-7.383,15.282-7.413l.008.1c.187,3.047,1.879,31.091,3.583,76.907,1.062,28.541,1.931,58.476,2.584,88.973C382.373,557.4,382.849,596.472,382.974,635.437Z" transform="translate(0 0)" fill="navy"/>
</svg>
