<?xml version="1.0" encoding="utf-8"?>
<!-- Generator: Adobe Illustrator 24.1.3, SVG Export Plug-In . SVG Version: 6.00 Build 0)  -->
<svg version="1.1" id="Layer_1" xmlns="http://www.w3.org/2000/svg" xmlns:xlink="http://www.w3.org/1999/xlink" x="0px" y="0px"
	 viewBox="0 0 2418.2 1124.9" style="enable-background:new 0 0 2418.2 1124.9;" xml:space="preserve">
<style type="text/css">
	.st0{fill:#FFFFFF;}
</style>
<path class="st0" d="M2276.1,172.6v779.8h-2134V172.6h0.1v43.9c1.5,7,1.2,14.1,0.8,21.2c2.1,72.5,9.5,144.4,29.1,214.5
	c13,46.5,31,90.9,60.6,129.6c24.3,31.8,53.5,58.8,86.1,82.1c31.6,22.6,66.1,38.7,104.2,46.8c14.5,3.1,29.2,5.1,44,5.8
	c8.7-0.1,17.4-0.1,26.1-0.2c0.8,0,1.7,0,2,1h4c3.7-2,8-1.6,11.9-1.8c29.2-1.8,57.7-7.6,85.9-14.7c60.5-15.2,119-36.6,177.5-57.9
	c95.5-34.8,191.2-68.8,289.6-95c58.8-15.6,118.1-29.1,178.2-39.2c21.2-3.6,42.6-5.6,64-7.5c6.3-0.6,12.6-0.6,18.8-1
	c4.3-1.3,8.8-1,13.2-0.7h46.9c4.4-0.3,8.9-0.5,13.3,0.7c12.4,1.2,24.9,1.9,37.3,2.9c12.2,1,24.3,2.7,36.4,4.3
	c28.3,4,56.3,9.9,83.9,17.4c21.6,5.8,43,11.9,64.1,19.5c26,9.3,51.9,19,77.2,30c29.3,12.7,58.3,25.8,87.1,39.6
	c23,11,46.2,21.4,69.5,31.6c19.1,8.4,38.3,16.2,58.1,22.8c16.7,5.5,33.5,10.6,50.7,13.6c8.9,1.6,17.9,3.6,27.1,3.3
	c3.1-0.1,6.1,0.7,9.2,1c6-1.7,12.1-0.6,18.2-0.7c48.1-3,88.2-23.7,124-54.8c46.8-40.8,76.5-92.2,95.9-150.4
	c12.9-38.4,21.3-77.9,27.1-117.9c5.5-37.8,8.6-75.8,10.1-113.9c-0.3-4.8-0.3-9.5,0.7-14.2c0.4-20.6,0.4-41.2,0.1-61.8H2276.1z"/>
</svg>
