<svg xmlns="http://www.w3.org/2000/svg" width="1914" height="212.297" viewBox="0 0 1914 212.297">
  <path id="Subtraction_12" data-name="Subtraction 12" d="M1914,736.5h0L0,736.5V632.589c2.93,2.718,5.97,5.448,9.038,8.116,7.078,6.152,14.605,12.235,22.373,18.079,7.57,5.692,15.574,11.314,23.789,16.708,7.941,5.218,16.1,10.073,24.255,14.432,8.294,4.435,16.842,8.494,25.408,12.064,8.7,3.626,17.661,6.844,26.626,9.565A283.729,283.729,0,0,0,159.4,718.49a295.47,295.47,0,0,0,44,5.33c4.517-.047,9.345-.072,12.871-.091h.179c4.04-.021,8.618-.046,13.05-.091.8,0,1.7,0,2,.919h4c2.959-1.47,6.285-1.529,9.5-1.587h.054c.694-.012,1.559-.028,2.346-.065a406.443,406.443,0,0,0,43.325-4.926c12.82-2.111,26.746-4.917,42.575-8.58,14.3-3.3,28.826-6.99,44.4-11.278,13.834-3.809,28.179-8.008,43.853-12.835,29.079-8.956,58.33-18.742,86.617-28.206l.018-.006.112-.037.015,0,.014,0,2.468-.826c45.8-15.333,94.907-31.592,143.713-46.606,53.321-16.4,101.041-29.709,145.887-40.68,64.01-15.6,122.3-27.383,178.2-36.015,20.737-3.236,41.253-5.035,64-6.891,3.747-.328,7.531-.461,11.19-.59l.061,0h.065c2.325-.082,4.959-.175,7.484-.324a27.392,27.392,0,0,1,7.452-.882c1.942,0,3.859.12,5.713.237H1121.5c1.757-.109,3.633-.21,5.446-.21a31.745,31.745,0,0,1,7.855.853c7.7.685,15.544,1.2,23.125,1.7h.007l.1.007h.01l.07,0,.149.01c4.536.3,9.227.6,13.836.946,10.7.807,21.494,2.128,31.928,3.405l.03,0h.007l.106.013.983.12.069.009.991.121.518.063,1.768.215c13.937,1.811,28.139,4.1,42.213,6.789,13.732,2.627,27.758,5.721,41.687,9.2,20.343,5.02,42.188,10.665,64.1,17.917,14.961,4.916,27.31,9.11,38.862,13.2,13.946,4.934,26.486,9.634,38.338,14.368,31.4,12.506,59.9,24.407,87.1,36.384,20.095,8.83,41.529,17.784,69.5,29.034,22,8.891,40.466,15.547,58.1,20.947,15.938,4.825,33.111,9.677,50.7,12.5,1.062.174,2.212.371,3.052.515l.57.1.134.022h.007c6.986,1.192,14.21,2.425,21.467,2.425.615,0,1.244-.01,1.87-.028.2-.005.385-.008.541-.008a37.588,37.588,0,0,1,5.3.5l.03,0,.007,0,.011,0,.06.008.029,0c1.049.151,2.134.306,3.219.4a31.1,31.1,0,0,1,8.062-.882c1.527,0,3.073.061,4.568.119h.084l.049,0,.006,0,.06,0,.078,0c1.466.056,2.981.115,4.483.115.273,0,.531,0,.81-.006a198.594,198.594,0,0,0,66.612-15.494,224.6,224.6,0,0,0,29.674-15.321,274.385,274.385,0,0,0,27.714-19.535c6.593-5.281,12.993-10.879,19.02-16.639s11.888-11.877,17.38-18.148V736.5Z" transform="translate(0 -524.204)" fill="#fff"/>
</svg>
