<svg xmlns="http://www.w3.org/2000/svg" width="74.324" height="76.978" viewBox="0 0 74.324 76.978"><defs><style>.a{fill:#eaeae8;}.b{fill:#683b0d;}.c{fill:#533222;}.d{fill:#fdc9a6;}.e{fill:#e6af89;}.f{fill:#cbcbcb;}.g{fill:#0a9acd;}.h{fill:#026ca2;}</style></defs><path class="a" d="M81.107,352l19.569,10.872a9.954,9.954,0,0,1,5.02,7.295l.628,4.4H32l.65-4.548a9.954,9.954,0,0,1,4.807-7.172L55.89,352Z" transform="translate(-32 -297.584)"/><path class="b" d="M131.982,53.2V38.6A13.594,13.594,0,0,1,128,28.987V24l5.627,1.407a41.794,41.794,0,0,0,10.135,1.248h8.346a5.881,5.881,0,0,1,4.158,1.722l3.586,3.586a5.881,5.881,0,0,1,5.46,3.7,16.437,16.437,0,0,1,1.176,6.105V53.2Z" transform="translate(-112.074 -24)"/><path class="c" d="M182.635,71.963a1.323,1.323,0,0,1-.593-.141l-2.935-1.467A5.591,5.591,0,0,1,176,65.327a1.327,1.327,0,1,1,2.654,0,2.952,2.952,0,0,0,1.64,2.654l2.935,1.467a1.327,1.327,0,0,1-.595,2.514Z" transform="translate(-152.11 -57.364)"/><path class="c" d="M222.635,71.963a1.323,1.323,0,0,1-.593-.141l-2.935-1.467A5.591,5.591,0,0,1,216,65.327a1.327,1.327,0,1,1,2.654,0,2.952,2.952,0,0,0,1.64,2.654l2.935,1.467a1.327,1.327,0,0,1-.595,2.514Z" transform="translate(-185.474 -57.364)"/><path class="c" d="M262.635,71.963a1.323,1.323,0,0,1-.593-.141l-2.935-1.467A5.591,5.591,0,0,1,256,65.327a1.327,1.327,0,1,1,2.654,0,2.952,2.952,0,0,0,1.64,2.654l2.935,1.467a1.327,1.327,0,0,1-.595,2.514Z" transform="translate(-218.838 -57.364)"/><path class="d" d="M222.6,314.654,221.272,312H210.654l-1.327,2.654L208,315.982l7.963,6.636,7.963-6.371Z" transform="translate(-178.801 -264.22)"/><path class="e" d="M230.368,314.112a11.765,11.765,0,0,1-12.728,0L218.7,312h10.618Z" transform="translate(-186.842 -264.22)"/><path class="d" d="M189.272,139.835a11.762,11.762,0,0,1-10.921-7.393A32.874,32.874,0,0,1,176,120.231v-9.6L179.982,104h18.581l3.982,6.636v9.6a32.876,32.876,0,0,1-2.352,12.211A11.762,11.762,0,0,1,189.272,139.835Z" transform="translate(-152.11 -90.728)"/><g transform="translate(27.871 22.563)"><path class="b" d="M277.309,162.654h-3.982a1.327,1.327,0,1,1,0-2.654h3.982a1.327,1.327,0,1,1,0,2.654Z" transform="translate(-260.055 -160)"/><ellipse class="b" cx="2" cy="1.5" rx="2" ry="1.5" transform="translate(13.187 4.137)"/><path class="b" d="M205.309,162.654h-3.982a1.327,1.327,0,1,1,0-2.654h3.982a1.327,1.327,0,1,1,0,2.654Z" transform="translate(-200 -160)"/><circle class="b" cx="1.5" cy="1.5" r="1.5" transform="translate(2.187 4.137)"/></g><path class="e" d="M241.32,251.978a1.327,1.327,0,0,1-.321-2.615l5.309-1.327a1.327,1.327,0,1,1,.644,2.575l-5.309,1.327A1.327,1.327,0,0,1,241.32,251.978Z" transform="translate(-205.486 -210.835)"/><path class="e" d="M243.982,206.636h-2.654A1.327,1.327,0,0,1,240,205.309v-3.982a1.327,1.327,0,0,1,2.654,0v2.654h1.327a1.327,1.327,0,0,1,0,2.654Z" transform="translate(-205.493 -170.801)"/><path class="d" d="M149.309,168h-1.834A3.475,3.475,0,0,0,144,171.475v2.341a3.475,3.475,0,0,0,3.475,3.475h3.161Z" transform="translate(-125.419 -144.11)"/><path class="d" d="M329.327,168h1.834a3.475,3.475,0,0,1,3.475,3.475v2.341a3.475,3.475,0,0,1-3.475,3.475H328Z" transform="translate(-278.893 -144.11)"/><path class="f" d="M72,454.636v-5.309a1.327,1.327,0,1,1,2.654,0v5.309Z" transform="translate(-65.364 -377.658)"/><path class="f" d="M424,454.636v-5.309a1.327,1.327,0,0,1,2.654,0v5.309Z" transform="translate(-358.967 -377.658)"/><path class="g" d="M231.963,375.963h-5.309L224,368l5.309,1.327L234.618,368Z" transform="translate(-192.147 -310.93)"/><path class="g" d="M233.327,416,232,427.945h7.963L238.636,416Z" transform="translate(-198.82 -350.967)"/><path class="g" d="M244.119,418.654h-5.9l.3-2.654h5.309Z" transform="translate(-204.008 -350.967)"/><path class="f" d="M339.945,450.654H329.327a1.327,1.327,0,1,1,0-2.654h10.618a1.327,1.327,0,1,1,0,2.654Z" transform="translate(-278.893 -377.658)"/><path class="f" d="M181.309,328l7.963,7.963-7.963,3.982L176,331.982Z" transform="translate(-152.11 -277.566)"/><path class="f" d="M263.963,339.945,256,335.963,263.963,328l3.982,3.982Z" transform="translate(-218.838 -277.566)"/><path class="h" d="M244.119,418.654h-5.9l.3-2.654h5.309Z" transform="translate(-204.008 -350.967)"/></svg>