<svg xmlns="http://www.w3.org/2000/svg" width="46.844" height="88.669" viewBox="0 0 46.844 88.669"><defs><style>.a{fill:#785546;}.b{fill:#64463c;}.c{fill:#e6af78;}.d{fill:#d29b6e;}.e{fill:#ffdc64;}.f{fill:#f0c087;}.g{fill:#ffc850;}</style></defs><path class="a" d="M305.677,17.852a5.418,5.418,0,0,0,.364-1.85c0-3.7-3.745-6.692-8.365-6.692s-8.365,3-8.365,6.692a5.422,5.422,0,0,0,.364,1.85,18.386,18.386,0,0,0-10.4,16.553h0A15.057,15.057,0,0,0,294.33,49.462h6.692a15.057,15.057,0,0,0,15.057-15.057h0A18.386,18.386,0,0,0,305.677,17.852Z" transform="translate(-274.254 -9.31)"/><path class="b" d="M290.984,27.906a11.712,11.712,0,0,1,9.43-11.485,16.872,16.872,0,0,0-5.7.035,5.264,5.264,0,0,1-.382-1.933,6.181,6.181,0,0,1,2.821-4.977c-4.37.221-7.84,3.1-7.84,6.65a5.4,5.4,0,0,0,.366,1.849,18.386,18.386,0,0,0-10.4,16.554h0A15.057,15.057,0,0,0,294.33,49.656h3.346V39.618l-6.692-6.692V27.906Z" transform="translate(-274.254 -9.504)"/><path class="c" d="M295.036,283.759l-11.472-4.589a3.346,3.346,0,0,1-2.1-3.107v-6.1H268.077v6.1a3.346,3.346,0,0,1-2.1,3.107L254.5,283.759a5.019,5.019,0,0,0-3.155,4.66v6.64a1.673,1.673,0,0,0,1.673,1.673h0v13.384a1.673,1.673,0,0,0,1.673,1.673h40.152a1.673,1.673,0,0,0,1.673-1.673V296.732h0a1.673,1.673,0,0,0,1.673-1.673v-6.64A5.019,5.019,0,0,0,295.036,283.759Z" transform="translate(-251.347 -223.12)"/><g transform="translate(1.673 71.939)"><path class="d" d="M260.655,409.6v5.019h1.673A1.673,1.673,0,0,1,264,416.292V426.33h5.019V409.6Z" transform="translate(-260.655 -409.6)"/><path class="d" d="M464.511,409.6v5.019h-1.673a1.673,1.673,0,0,0-1.673,1.673V426.33h-5.019V409.6Z" transform="translate(-421.013 -409.6)"/></g><path class="e" d="M295.035,329.365l-9.508-3.8a28.5,28.5,0,0,1-10.759,10.084,28.5,28.5,0,0,1-10.759-10.084l-9.508,3.8a5.019,5.019,0,0,0-3.155,4.66v6.64a1.673,1.673,0,0,0,1.673,1.673h6.692V357.4h30.114V342.338h6.692a1.673,1.673,0,0,0,1.673-1.673v-6.64A5.019,5.019,0,0,0,295.035,329.365Z" transform="translate(-251.346 -268.726)"/><path class="d" d="M344.435,275.379a18.157,18.157,0,0,0,13.384,0v-5.414H344.435v5.414Z" transform="translate(-327.705 -223.121)"/><path class="f" d="M312.733,147.064c0-11.077-11.973-7.187-20.348-12.4a1.673,1.673,0,0,0-2.274.479c-1.292,1.95-3.937,5.157-7.385,5.223a3.391,3.391,0,0,0-3.453,3.321v.026a3.346,3.346,0,0,0,3.346,3.346,15.057,15.057,0,1,0,30.114,0Z" transform="translate(-274.254 -111.931)"/><path class="c" d="M290.983,147.537V134.991a1.609,1.609,0,0,0-.873.63c-1.292,1.95-3.937,5.157-7.385,5.223a3.391,3.391,0,0,0-3.453,3.32v.027a3.346,3.346,0,0,0,3.346,3.346,15.038,15.038,0,0,0,19.243,14.457A15.054,15.054,0,0,1,290.983,147.537Z" transform="translate(-274.253 -112.404)"/><path class="d" d="M358.765,228.438a6,6,0,0,1-4.645-2.292,1.673,1.673,0,1,1,2.6-2.108,2.565,2.565,0,0,0,4.094,0,1.673,1.673,0,1,1,2.6,2.108A6,6,0,0,1,358.765,228.438Z" transform="translate(-335.343 -184.94)"/><g transform="translate(15.057 30.114)"><path class="b" d="M411.273,181.892a1.673,1.673,0,0,1-1.673-1.673v-1.673a1.673,1.673,0,1,1,3.346,0v1.673A1.672,1.672,0,0,1,411.273,181.892Z" transform="translate(-396.216 -176.873)"/><path class="b" d="M336.8,181.892a1.673,1.673,0,0,1-1.673-1.673v-1.673a1.673,1.673,0,1,1,3.346,0v1.673A1.672,1.672,0,0,1,336.8,181.892Z" transform="translate(-335.127 -176.873)"/></g><g transform="translate(0 62.662)"><path class="g" d="M259.711,366.971a3.347,3.347,0,0,0-.98-2.366l-6.624-6.624a5,5,0,0,0-.761,2.637v6.64a1.673,1.673,0,0,0,1.673,1.673h6.692Z" transform="translate(-251.346 -357.981)"/><path class="g" d="M465.455,366.971a3.347,3.347,0,0,1,.98-2.366l6.624-6.624a5,5,0,0,1,.761,2.637v6.64a1.673,1.673,0,0,1-1.673,1.673h-6.692Z" transform="translate(-426.976 -357.981)"/></g></svg>