<svg xmlns="http://www.w3.org/2000/svg" width="64.787" height="114.457" viewBox="0 0 64.787 114.457"><defs><style>.a{fill:#b4e66e;}.b{fill:#fad098;}.c{fill:#d7af7d;}.d{fill:#ffe1b4;}.e{fill:#64463c;}.f{fill:#d59f63;}.g{fill:#a0d755;}.h{fill:#cd915a;}.i{fill:#ffdc64;}.j{fill:#c8ff82;}</style></defs><g transform="translate(0 -9.309)"><path class="a" d="M60.013,265.831l-18.981-5.177H23.755L4.774,265.831A6.479,6.479,0,0,0,0,272.081v42.562a2.16,2.16,0,0,0,2.16,2.16H64.787V272.081A6.479,6.479,0,0,0,60.013,265.831Z" transform="translate(0 -193.037)"/><rect class="b" width="21.595" height="17.276" transform="translate(21.595 58.98)"/><path class="c" d="M93.091,229.442a23.6,23.6,0,0,0,21.6,0v-6.023h-21.6Z" transform="translate(-71.495 -164.44)"/><path class="d" d="M80.428,78.121V65.164H41.556V78.122a4.319,4.319,0,1,0,0,8.638,19.436,19.436,0,0,0,38.872,0,4.319,4.319,0,0,0,0-8.638Z" transform="translate(-28.599 -42.897)"/><path class="b" d="M52.354,86.76v-21.6h-10.8V78.122a4.319,4.319,0,1,0,0,8.638,19.4,19.4,0,0,0,24.835,18.66A19.433,19.433,0,0,1,52.354,86.76Z" transform="translate(-28.599 -42.897)"/><path class="c" d="M118.187,183.355a7.743,7.743,0,0,1-6-2.959,2.159,2.159,0,1,1,3.353-2.72,3.311,3.311,0,0,0,5.285,0,2.159,2.159,0,1,1,3.353,2.72A7.744,7.744,0,0,1,118.187,183.355Z" transform="translate(-85.794 -128.695)"/><g transform="translate(21.596 37.384)"><path class="e" d="M95.251,136.807a2.159,2.159,0,0,1-2.16-2.16v-2.16a2.16,2.16,0,1,1,4.319,0v2.16A2.159,2.159,0,0,1,95.251,136.807Z" transform="translate(-93.091 -130.328)"/><path class="e" d="M169.724,136.807a2.159,2.159,0,0,1-2.16-2.16v-2.16a2.16,2.16,0,0,1,4.319,0v2.16A2.159,2.159,0,0,1,169.724,136.807Z" transform="translate(-150.287 -130.328)"/></g><path class="f" d="M82.679,33.168a3.637,3.637,0,0,0,4.174,2.118,4.187,4.187,0,0,1,.725-.063,4.275,4.275,0,0,1,2.16.6V22.267a8.6,8.6,0,0,0-4.422-7.5A6.463,6.463,0,0,0,78.94,9.309H61.663A15.117,15.117,0,0,0,46.546,24.426v11.4a4.276,4.276,0,0,1,2.16-.6,4.173,4.173,0,0,1,.81.079,3.991,3.991,0,0,0,4.736-2.826h0l.644-5.561a2.148,2.148,0,0,1,2.615-1.858,45.964,45.964,0,0,0,21.352.032A2.143,2.143,0,0,1,81.5,26.826l.857,5.144A6.347,6.347,0,0,0,82.679,33.168Z" transform="translate(-35.748 0)"/><g transform="translate(0 74.719)"><path class="g" d="M0,295.591v42.562a2.16,2.16,0,0,0,2.16,2.16h10.8V309.464a10.8,10.8,0,0,0-2.275-6.629l-9-11.57A6.451,6.451,0,0,0,0,295.591Z" transform="translate(0 -291.265)"/><path class="g" d="M236.376,295.591v44.722H223.418V309.464a10.8,10.8,0,0,1,2.275-6.629l9-11.57A6.451,6.451,0,0,1,236.376,295.591Z" transform="translate(-171.588 -291.265)"/></g><path class="h" d="M61.662,9.309A15.117,15.117,0,0,0,46.545,24.426v11.4a4.276,4.276,0,0,1,2.16-.6,4.173,4.173,0,0,1,.81.079,3.992,3.992,0,0,0,4.736-2.827l.644-5.561a2.148,2.148,0,0,1,2.615-1.858c.568.134,1.251.276,1.992.416V22.267A12.957,12.957,0,0,1,72.46,9.309Z" transform="translate(-35.747)"/><g transform="translate(23.766 93.532)"><path class="i" d="M104.615,376.683a2.16,2.16,0,1,1-.021-4.319h.021a2.16,2.16,0,1,1,0,4.319Z" transform="translate(-102.445 -372.364)"/><path class="i" d="M104.615,451.156a2.16,2.16,0,1,1-.021-4.319h.021a2.16,2.16,0,0,1,0,4.319Z" transform="translate(-102.445 -429.56)"/><path class="i" d="M104.615,413.919a2.16,2.16,0,1,1-.021-4.319h.021a2.16,2.16,0,1,1,0,4.319Z" transform="translate(-102.445 -400.962)"/></g><rect class="g" width="4.319" height="47.511" transform="translate(30.235 76.256)"/><g transform="translate(15.63 66.496)"><path class="j" d="M73.028,256.32l11.111,9.259L77.175,270.8a2.16,2.16,0,0,1-2.982-.379l-6.344-7.93a2.16,2.16,0,0,1-.11-2.547l2.11-3.165A2.159,2.159,0,0,1,73.028,256.32Z" transform="translate(-67.375 -255.819)"/><path class="j" d="M150.747,256.32l-11.111,9.259L146.6,270.8a2.16,2.16,0,0,0,2.982-.379l6.344-7.93a2.16,2.16,0,0,0,.11-2.547l-2.11-3.165A2.159,2.159,0,0,0,150.747,256.32Z" transform="translate(-122.873 -255.819)"/></g></g></svg>