<svg xmlns="http://www.w3.org/2000/svg" width="100.281" height="118.288" viewBox="0 0 100.281 118.288"><defs><style>.a{fill:#365e7d;}.b{fill:#2b4d66;}.c{fill:#4a80aa;}.d{fill:#407093;}.e{fill:#e4f6ff;}.f{fill:#e28086;}.g{fill:#dd636e;}.h{fill:#ffddce;}.i{fill:#ffcbbe;}.j{fill:#f4fbff;}</style></defs><g transform="translate(-70.032 -73.277)"><g transform="translate(70.032 73.277)"><g transform="translate(0)"><path class="a" d="M202.949,79.661a6.383,6.383,0,0,0-6.383-6.383h-22a14.69,14.69,0,0,0-14.69,14.69v16.31H211.7V88.2a6.383,6.383,0,0,0-6.383-6.383h-.215a2.156,2.156,0,0,1-2.156-2.156Z" transform="translate(-135.655 -73.278)"/><path class="b" d="M298.168,81.816h-.215A2.156,2.156,0,0,1,295.8,79.66a6.383,6.383,0,0,0-6.383-6.383H287v31H304.55V88.2A6.383,6.383,0,0,0,298.168,81.816Z" transform="translate(-228.503 -73.277)"/><path class="c" d="M165.75,344.194a15.3,15.3,0,0,0-6.145-3.706l-18.844-5.966-20.585-.723-20.594.723-18.844,5.966A15.337,15.337,0,0,0,70.032,355.11v5.148A68.823,68.823,0,0,0,117.8,381.806,70.8,70.8,0,0,0,165.75,344.194Z" transform="translate(-70.032 -263.557)"/><path class="d" d="M282.416,385.694v-5.148a15.333,15.333,0,0,0-5.69-11.921,69.081,69.081,0,0,1-53.208,38.1,69.656,69.656,0,0,0,8.635.555,73.791,73.791,0,0,0,8.311-.48A68.845,68.845,0,0,0,282.416,385.694Z" transform="translate(-182.134 -288.993)"/><path class="e" d="M219.462,367.856c4.176-8.291,15.051-31.833,11.95-46.539L217.9,316.06l-13.521,5.258c-3.2,15.159,8.458,39.709,12.316,47.262q1.392-.334,2.763-.723Z" transform="translate(-167.758 -250.601)"/><path class="f" d="M241.2,425.419l-5.477-21.547h-6.408l-5.464,21.488,6.756,7.522q2.573-.589,5.072-1.363Z" transform="translate(-182.379 -314.737)"/><path class="g" d="M245.695,501.477c.559.015,1.12.025,1.683.026.651,0,1.3-.012,1.947-.03l3.48-3.844a68.487,68.487,0,0,1-8.442,2.367Z" transform="translate(-197.36 -383.215)"/><g transform="translate(24.225 17.295)"><g transform="translate(14.375 39.282)"><path class="h" d="M236.268,295.268V283.117H213.194v12.151c0,6.372,11.537,13.332,11.537,13.332S236.268,301.639,236.268,295.268Z" transform="translate(-213.194 -283.117)"/></g><path class="h" d="M211.7,148.989h-4.411a4.441,4.441,0,0,1-4.441-4.441v-2.431a4.689,4.689,0,0,0-6.16-4.452,34.726,34.726,0,0,1-21.791,0l-.008,0a4.689,4.689,0,0,0-6.159,4.452v2.432a4.441,4.441,0,0,1-4.441,4.441h-4.41v7.263a3.361,3.361,0,0,0,3.361,3.361,1.1,1.1,0,0,1,1.1,1.043,21.5,21.5,0,0,0,42.9,0,1.105,1.105,0,0,1,1.1-1.043,3.361,3.361,0,0,0,3.361-3.361v-7.263Z" transform="translate(-159.88 -137.424)"/><path class="i" d="M271.126,148.992a4.441,4.441,0,0,1-4.441-4.441v-2.431a4.689,4.689,0,0,0-6.16-4.452q-1.257.415-2.536.73v23.989a21.49,21.49,0,0,1-10.711,18.269,21.473,21.473,0,0,0,23.8-20,1.105,1.105,0,0,1,1.1-1.043,3.361,3.361,0,0,0,3.361-3.361v-7.263h-4.411Z" transform="translate(-223.714 -137.426)"/></g><g transform="translate(29.551 65.459)"><path class="j" d="M188.684,316.06l-9.048,7.352,9.488,11.732a3.143,3.143,0,0,0,4.207.16l7.135-5.96Z" transform="translate(-179.636 -316.06)"/><path class="j" d="M268.193,316.06,256.9,329.343l6.707,5.734a3.143,3.143,0,0,0,4.22-.122l9.421-11.544Z" transform="translate(-236.067 -316.06)"/></g><path class="a" d="M173.082,316.06l-13.28,6.525a2.012,2.012,0,0,0-.9,2.728l2.6,5.045a3.378,3.378,0,0,1-.615,3.939l-1.619,1.616a3.37,3.37,0,0,0-.827,3.434c3.141,9.576,18.26,24.219,23.982,29.517q.577.015,1.157.022C179.431,360.814,164.728,330.153,173.082,316.06Z" transform="translate(-134.483 -250.601)"/><path class="a" d="M282.556,334.3a3.377,3.377,0,0,1-.615-3.939l2.6-5.045a2.012,2.012,0,0,0-.9-2.728l-13.28-6.524c8.352,14.089-6.341,44.738-10.494,52.818q.586-.01,1.169-.029c5.733-5.31,20.828-19.936,23.966-29.5a3.37,3.37,0,0,0-.827-3.434Z" transform="translate(-208.684 -250.601)"/><path class="g" d="M237.864,365.327l-7.026,5.868,3.58,4.524h6.408l3.58-4.791Z" transform="translate(-187.482 -286.585)"/></g></g></g></svg>