<svg xmlns="http://www.w3.org/2000/svg" width="130.04" height="110.594" viewBox="0 0 130.04 110.594">
  <g id="_158187-OVGTIX-822" data-name="158187-OVGTIX-822" transform="translate(-118.5 -141.52)">
    <g id="OBJECTS" transform="translate(118.5 141.52)">
      <g id="Group_23" data-name="Group 23">
        <path id="Path_665" data-name="Path 665" d="M127.776,252.114h-7.6a1.677,1.677,0,0,1-1.679-1.679V143.2a1.677,1.677,0,0,1,1.679-1.679h7.6a1.677,1.677,0,0,1,1.679,1.679V250.435A1.685,1.685,0,0,1,127.776,252.114Z" transform="translate(-118.5 -141.52)" fill="#455a64"/>
        <g id="Group_22" data-name="Group 22" transform="translate(6.503 11.625)">
          <g id="Group_20" data-name="Group 20">
            <path id="Path_666" data-name="Path 666" d="M250.362,249.153H129.85V161.81H250.367a3.02,3.02,0,0,1,3.02,3.02v81.3A3.028,3.028,0,0,1,250.362,249.153Z" transform="translate(-129.85 -161.81)" fill="#eceff1"/>
            <rect id="Rectangle_38" data-name="Rectangle 38" width="123.537" height="20.925" transform="translate(0 48.53)" fill="#b0bec5"/>
          </g>
          <text id="Bank_Details" data-name="Bank Details" transform="translate(10.537 24.641)" fill="#455a64" font-size="13" font-family="Helvetica"><tspan x="0" y="0">Bank Details</tspan></text>
          <text id="_1234_5678_1234_5678" data-name="1234 5678 1234 5678" transform="translate(10.146 61.734)" fill="#fff" font-size="9" font-family="Helvetica"><tspan x="0" y="0">1234 5678 1234 5678</tspan></text>
          <g id="Group_21" data-name="Group 21" transform="translate(82.031 10.714)">
            <ellipse id="Ellipse_18" data-name="Ellipse 18" cx="10.949" cy="12.141" rx="10.949" ry="12.141" transform="translate(10.949)" fill="#e64a19"/>
            <ellipse id="Ellipse_19" data-name="Ellipse 19" cx="10.949" cy="12.141" rx="10.949" ry="12.141" fill="#26c6da"/>
          </g>
        </g>
        <rect id="Rectangle_39" data-name="Rectangle 39" width="5.432" height="87.343" transform="translate(6.503 11.625)" fill="#cfd8dc"/>
        <line id="Line_1" data-name="Line 1" y2="93.17" transform="translate(5.478 8.48)" fill="none" stroke="#37474f" stroke-linecap="round" stroke-linejoin="round" stroke-miterlimit="10" stroke-width="3"/>
      </g>
    </g>
  </g>
</svg>
