<svg xmlns="http://www.w3.org/2000/svg" width="134.376" height="121.096" viewBox="0 0 134.376 121.096">
  <path id="Path_664" data-name="Path 664" d="M-463.781,80.543A21.778,21.778,0,0,0-485.04,59.585,21.282,21.282,0,0,0-501.564,66.7c-.5.532-.819.367-1.286.143-2.525-1.206-5.041-2.422-7.582-3.592a1.528,1.528,0,0,1-.955-1.346,22.517,22.517,0,0,0-6.489-13.221.919.919,0,0,1-.19-1.382c1.333-2.144,2.632-4.307,3.874-6.5a1.15,1.15,0,0,1,1.545-.613,20.914,20.914,0,0,0,25.858-21.532A20.96,20.96,0,0,0-512.4-.6,20.853,20.853,0,0,0-523.5,33.462a1.449,1.449,0,0,1,.132,2.08q-1.97,3.071-3.772,6.244a1.279,1.279,0,0,1-1.744.712,21.578,21.578,0,0,0-10.231-.37c-1.059.2-1.424-.113-1.851-.979q-3.207-6.473-6.55-12.874c-.469-.9-.317-1.344.411-2.017,5.634-5.2,8.17-11.621,6.859-19.225-1.97-11.423-12.195-18.728-23.706-17.189A20.961,20.961,0,0,0-581.775,9.089a22.124,22.124,0,0,0,3.181,12.755.805.805,0,0,0,.552.814c.124.132.262.254.372.395,4.878,6.241,11.232,9.1,19.148,8.316.775-.077.938.317,1.189.811,2.409,4.693,4.809,9.389,7.248,14.063a1.114,1.114,0,0,1-.262,1.611c-6.385,6.186-8.614,13.674-6.779,22.354a.991.991,0,0,1-.546,1.3c-1.346.789-2.7,1.575-3.979,2.464-.742.513-1.184.408-1.854-.168a20.214,20.214,0,0,0-12.7-4.98,20.888,20.888,0,0,0-21.863,19.242,20.947,20.947,0,0,0,18.991,22.6,20.95,20.95,0,0,0,22.213-25.844c-.168-.726-.108-1.173.626-1.545a32.516,32.516,0,0,0,3.438-2.022c.731-.491,1.134-.315,1.722.27,7.143,7.116,15.636,8.749,24.989,5.609a22.116,22.116,0,0,0,13.23-12.148c.475-1.018.825-1.035,1.683-.533a24.559,24.559,0,0,0,3.573,1.766,2.4,2.4,0,0,1,1.738,2.845,21.246,21.246,0,0,0,25.328,21.984C-470.894,99.1-463.511,90.094-463.781,80.543Zm-50.193-58.751a63.063,63.063,0,0,1,4.1-4.82c.566-.621.508-.955-.163-1.357a14.956,14.956,0,0,1-1.708-1.156c-1.2-.977-1.1-2.525.323-3.09a54.337,54.337,0,0,1,9.9-2.831,1.854,1.854,0,0,1,2.207,1.782,76.661,76.661,0,0,1,.877,8.335c0,.568.008.982,0,1.4A1.623,1.623,0,0,1-501,21.537a9.845,9.845,0,0,1-1.907-1.349c-.728-.662-1.013-.364-1.36.37a40.486,40.486,0,0,1-2.85,5.33,4.1,4.1,0,0,1-5.548,1.437C-514.937,26.126-515.536,23.9-513.974,21.791Zm-39.987-13.26c-.5.235-1.015.417-1.529.615-1.509.588-1.529.6-.682,2.053a29.491,29.491,0,0,1,2.406,5.082,3.832,3.832,0,0,1-3.75,5.289,4.14,4.14,0,0,1-4.061-3.269c-.472-1.956-.971-3.91-1.371-5.882-.135-.665-.361-.72-.894-.5-.632.262-1.275.5-1.915.739a1.776,1.776,0,0,1-2.05-.237,1.878,1.878,0,0,1-.535-2,52.276,52.276,0,0,1,3.258-8.881A2.051,2.051,0,0,1-561.948.414a54.488,54.488,0,0,1,8.327,5.06A1.7,1.7,0,0,1-553.961,8.531Zm-16.43,82.09c-1.705.786-3.383,1.639-5.124,2.342-.792.32-.742.618-.328,1.173.328.441.59.93.922,1.368a2.12,2.12,0,0,1,.074,2.447c-.439.864-1.184.91-1.995.839a66.614,66.614,0,0,1-8.586-1.17c-2.13-.439-2.734-1.468-2.227-3.59a37.484,37.484,0,0,1,3.007-8.1c.342-.681.635-1.468,1.628-1.454a2.15,2.15,0,0,1,1.838,1.244c1.451,2.312,1.451,2.3,3.664.544,1.043-.828,2.089-1.658,3.181-2.411,2.293-1.581,4.6-.877,6.15,1.824C-567.133,87.52-568.032,89.532-570.391,90.621ZM-532.01,81.1c-1.043.152-1.222.51-1.084,1.349.168,1.018-.312,1.3-1.236,1.17a4.592,4.592,0,0,0-1.1,0c-.687.074-1.106-.143-.96-.894.212-1.1-.406-1.374-1.308-1.6a13.359,13.359,0,0,1-4.6-2.094,7.4,7.4,0,0,1-3.184-5.968c-.041-.866.226-1.291,1.162-1.195.59.061,1.192.006,1.791.011a6.855,6.855,0,0,1,2.45.1c.775.326.339,1.391.6,2.1.723,1.929,2.445,2.847,5.2,2.671a3.47,3.47,0,0,0,3.363-3.065,3.789,3.789,0,0,0-2.483-4.53c-2.218-.872-4.406-1.793-6.542-2.85-3.551-1.758-5.209-4.652-4.8-8.468a8.073,8.073,0,0,1,6.34-6.964,4.534,4.534,0,0,1,.941-.2c1.024-.028,1.465-.491,1.277-1.529-.143-.795.11-1.225,1.015-1.1a5.584,5.584,0,0,0,1.374,0c.734-.08,1.035.223.9.93-.251,1.308.364,1.727,1.589,2.067a8.291,8.291,0,0,1,6.434,7.507c.072,1.178-.281,1.575-1.424,1.407a10.664,10.664,0,0,0-1.515-.011v-.008h-.552c-2.078.017-2.078.017-2.505-1.973a3.732,3.732,0,0,0-3.515-3.289c-2.072-.094-3.234.643-3.824,2.42a3.7,3.7,0,0,0,1.642,4.754,22.77,22.77,0,0,0,5.132,2.271c3.176,1.09,5.783,2.762,6.589,6.351C-523.625,75.861-526.555,80.311-532.01,81.1Zm55.882,5.557a69.847,69.847,0,0,1-9.494,2.2c-1.551.262-2.406-.971-1.835-2.442.017-.044.036-.086.052-.127.342-.922,1.465-1.89,1-2.665-.414-.684-1.752-.819-2.69-1.17-1.156-.43-2.34-.795-3.485-1.258a3.876,3.876,0,0,1-2.494-4.4,4.3,4.3,0,0,1,4.274-3.33,4.279,4.279,0,0,1,2.174.858c1.517,1.029,3.076,1.995,4.572,3.052.687.486,1.013.306,1.324-.37a12.839,12.839,0,0,1,1.076-2.064c.828-1.173,2.13-1.148,2.767.1a85.905,85.905,0,0,1,4.061,9.006A1.87,1.87,0,0,1-476.128,86.657Z" transform="translate(598.15 10.36)" fill="navy"/>
</svg>
