<svg xmlns="http://www.w3.org/2000/svg" width="113.044" height="111.359" viewBox="0 0 113.044 111.359"><defs><style>.a{fill:#0057a5;}.b{fill:#297fb8;}.c{fill:#f38b21;}.d{fill:#ee890a;}.e{fill:#2a90d9;}.f{fill:#0051a0;}.g{fill:#f4820a;}.h{fill:#0c5ba6;}.i{fill:#3091d7;}.j{fill:#02539f;}.k{fill:#fefefe;}.l{fill:#fdfdfd;}.m{fill:#fdfefe;}.n{fill:#3397d9;}.o{fill:#5993ad;}.p{fill:#2b98e3;}.q{fill:#3599d7;}.r{fill:#3398d3;}.s{fill:#2893da;}.t{fill:#278fd4;}.u{fill:#2191d5;}.v{fill:#2890d7;}.w{fill:#2992dd;}.x{fill:#3896d6;}.y{fill:#2e97dd;}.z{fill:#3099d7;}.aa{fill:#278fd6;}.ab{fill:#2e94d9;}.ac{fill:#288fd8;}.ad{fill:#268dd6;}.ae{fill:#3697e1;}.af{fill:#3196d2;}.ag{fill:#238fd8;}.ah{fill:#1e90d9;}.ai{fill:#2491de;}.aj{fill:#2994d7;}.ak{fill:#3996d8;}.al{fill:#258fd5;}.am{fill:#278ed5;}.an{fill:#00a3e3;}.ao{fill:#f58b20;}.ap{fill:#004b9e;}.aq{fill:#005ca8;}.ar{fill:#0353a6;}.as{fill:#024da1;}.at{fill:#cc893c;}.au{fill:#f38819;}.av{fill:#f98621;}.aw{fill:#fd8a0e;}.ax{fill:#f28f1c;}.ay{fill:#f98827;}.az{fill:#fbfdfc;}.ba{fill:#2692dd;}.bb{fill:#278fd5;}.bc{fill:#228edb;}.bd{fill:#2e97de;}.be{fill:#f78a1a;}.bf{fill:#3596dc;}</style></defs><g transform="translate(-78.17 -68.983)"><path class="a" d="M82.712,88.25c.221-.288.533-.138.8-.138q24.056-.012,48.107-.008c.434,0,.872,0,1.306,0a1.1,1.1,0,0,1,.675-.221c1.062-.016,2.123-.02,3.185,0a.852.852,0,0,1,.667.221c5.067,0,10.138.012,15.2-.012.612,0,.762.174.754.769-.028,1.977,0,3.958.012,5.935-.043.008-.091.012-.134.02a.32.32,0,0,1-.083-.249q0-3,0-6c0,1.874,0,3.745,0,5.619a1.694,1.694,0,0,0,.087.781,4.59,4.59,0,0,1,.047,1.014v86.081c0,1.807,0,1.807-1.78,1.807q-25.766,0-51.528,0a6.755,6.755,0,0,1-1.87-.126,1.94,1.94,0,0,1-.288-1.448c-.012-4.207,0-8.413-.008-12.62,0-.241,0-.481-.012-.726a.519.519,0,0,0-.533-.56c-.339-.032-.675-.032-1.014-.032-3.891.016-7.786-.036-11.677.024-.395,0-.837.118-1.148-.272a3.313,3.313,0,0,1-.11-1.361q-.006-38.078,0-76.156a2.677,2.677,0,0,0-.087-.983,2.815,2.815,0,0,0-.079.959q0,38.078-.008,76.156a2.679,2.679,0,0,1-.134,1.354.177.177,0,0,1-.253.032,5.017,5.017,0,0,1-.028-.943q0-38.628,0-77.257a2.073,2.073,0,0,0-.067-.931v-.292C83,88.542,82.72,88.4,82.712,88.25Z" transform="translate(-2.742 -11.432)"/><path class="a" d="M214.51,76.759c-1.511,0-3.019,0-4.53,0a14.361,14.361,0,0,1,11.6-7.561,1.226,1.226,0,0,1,.572-.055h20.161a1.4,1.4,0,0,1,.572.051,14.15,14.15,0,0,1,9.869,4.968,13.82,13.82,0,0,1,3.559,7.979,2.262,2.262,0,0,0-.055.86q-.006,26.033-.008,52.065c0,.253.091.525-.079.766.229-.087.079-.28.079-.406q.012-26.068.012-52.136c0-.209-.075-.438.091-.627a4.642,4.642,0,0,1,.1,1.582q.006,25.766-.012,51.532c0,.683.154.9.868,1.034a14.885,14.885,0,0,1,12.245,14.8q.024,6.931,0,13.863a14.962,14.962,0,0,1-29.923.166c-.02-4.767-.008-9.534,0-14.3a3.321,3.321,0,0,1,.114-1.29c.11.043.055.17.118.237-.063-.154.043-.343-.095-.481a13.909,13.909,0,0,1,3.386-7.936,14.59,14.59,0,0,1,9.009-5.122c.414-.067.612-.178.56-.623a8.35,8.35,0,0,1,0-.943V84.206a11.1,11.1,0,0,0-9.538-11.3,11.968,11.968,0,0,0-1.882-.11c-6.026-.008-12.051.008-18.077-.012a11.154,11.154,0,0,0-8.232,3.346A1.868,1.868,0,0,0,214.51,76.759Z" transform="translate(-79.796 -0.091)"/><path class="b" d="M82.874,291.151c.047,0,.095,0,.146,0,.075-.008.138-.055.213-.067a.627.627,0,0,1,.15.008c.075.012.142.047.217.055,2.411,0,4.818-.016,7.229,0,2.249.02,4.5-.032,6.748.028.679.02.545.351.545.71q.006,6.825-.008,13.65a3.481,3.481,0,0,1,.012,1.144.107.107,0,0,1,.043.1q-.012.059-.024.059a.261.261,0,0,1-.182.032,1.308,1.308,0,0,1-.371-.284c-.158-.158-.316-.312-.477-.462-2.766-2.747-5.521-5.5-8.188-8.342a.765.765,0,0,1-.134-.272q-2.823-2.9-5.639-5.809c-.158-.166-.41-.276-.414-.56C82.779,291.08,82.827,291.08,82.874,291.151Z" transform="translate(-2.767 -134.459)"/><path class="c" d="M261.816,105.4c1.6,0,3.192.012,4.787-.012.446-.008.608.126.576.576-.035.434-.008.872-.008,1.306q0,46.116,0,92.229c0,.253.111.533-.114.754a.591.591,0,0,1-.162-.241,6.657,6.657,0,0,1-.051-1.373q-.006-45.779-.008-91.554c0-.41.17-.888-.28-1.2a22.558,22.558,0,0,0-3.792-.122.97.97,0,0,0-.237.028.435.435,0,0,0-.166.182,3.183,3.183,0,0,0-.043.8v86.124c0,.217,0,.434.012.651.075.477.56.88.276,1.428-.359.134-.766.4-.825-.3.051-.679-.024-1.354-.024-2.028q.006-42.825,0-85.654c0-.434,0-.872-.012-1.306a.477.477,0,0,1,.051-.276Z" transform="translate(-111.132 -22.04)"/><path class="d" d="M168.014,345.036c.008.055.012.11.02.166a1.145,1.145,0,0,1-.706.079q-34.2.006-68.39,0c-.253,0-.533.118-.758-.1a1.454,1.454,0,0,1,.75-.32,12,12,0,0,1,1.306-.032h66.879a1.793,1.793,0,0,1,.679.063A.91.91,0,0,1,168.014,345.036Z" transform="translate(-12.114 -166.987)"/><path class="e" d="M82.826,169.827c-.043,0-.091,0-.134,0-.012-.241-.032-.481-.032-.722V91.331c0-.217.016-.434.024-.651.245.241.138.549.138.829Q82.828,130.664,82.826,169.827Z" transform="translate(-2.718 -13.135)"/><path class="f" d="M327.21,102.615c-.008.316-.024.627-.024.943v52.535a1.465,1.465,0,0,1-.142-.9q-.006-26.133,0-52.27c0-.28-.1-.584.122-.833C327.178,102.268,327.194,102.441,327.21,102.615Z" transform="translate(-150.651 -20.043)"/><path class="g" d="M98.59,322.379c-.154.209-.379.122-.576.142-.154-.134-.1-.312-.1-.474q-.006-7.109,0-14.222a3.15,3.15,0,0,1,.055-.426c.059.055.118.114.182.17a2.051,2.051,0,0,1,.233,1.259v12.083a4.551,4.551,0,0,0,.095,1.223A1.055,1.055,0,0,1,98.59,322.379Z" transform="translate(-11.948 -144.335)"/><path class="h" d="M260.675,69.1q-8.115.012-16.234.02-2.533,0-5.071-.016a2.261,2.261,0,0,1,1-.114q9.654-.006,19.308,0A2.156,2.156,0,0,1,260.675,69.1Z" transform="translate(-97.589)"/><path class="i" d="M82.724,88.84c.15.13.245.316.493.328a.354.354,0,0,1-.5.107C82.72,89.128,82.724,88.986,82.724,88.84Z" transform="translate(-2.755 -12.021)"/><path class="j" d="M285.444,273.59c.193.162.162.359.1.58-.17-.079-.079-.233-.126-.339C285.428,273.752,285.436,273.669,285.444,273.59Z" transform="translate(-125.467 -123.867)"/><path class="k" d="M105.771,113.062c-.032-.552.158-.762.777-.762q14.046.036,28.1,0c.6,0,.766.138.762.754q-.03,14.3,0,28.605c0,.655-.182.789-.809.789q-14.011-.03-28.021-.02c-.276,0-.592.118-.805-.178a1.251,1.251,0,0,1-.071-.71q-.006-13.886,0-27.777A1.275,1.275,0,0,1,105.771,113.062Z" transform="translate(-16.659 -26.224)"/><path class="k" d="M129.593,206.543h25.7c1.18,0,1.882.6,1.91,1.61a1.642,1.642,0,0,1-1.507,1.728,5.7,5.7,0,0,1-.58.008H104.078c-.217,0-.438.012-.655-.008a1.676,1.676,0,0,1-1.563-1.693,1.629,1.629,0,0,1,1.6-1.642c1.014-.028,2.032-.008,3.05-.008Q118.045,206.545,129.593,206.543Z" transform="translate(-14.342 -83.271)"/><path class="k" d="M102.7,239.656c-1.176-.983-1.164-2.028.036-3.05.134-.185.375-.178.549-.3a1.025,1.025,0,0,1,.264-.059c1.622-.028,3.244-.012,4.866-.012q23.085,0,46.166,0c.418,0,.88-.13,1.247.213a1.755,1.755,0,0,1,1.354,1.649,1.731,1.731,0,0,1-1.188,1.7,3.015,3.015,0,0,1-1.211.189q-25.482,0-50.964,0C103.427,239.984,102.981,240.082,102.7,239.656Z" transform="translate(-14.322 -101.242)"/><path class="l" d="M103.18,270.6c-.174-.083-.351-.154-.517-.253a1.683,1.683,0,0,1-.777-1.807,1.626,1.626,0,0,1,1.551-1.286c.288-.016.58,0,.872,0h50.873c1.208,0,1.9.5,2,1.436.11,1-.41,1.63-1.61,1.945a1.711,1.711,0,0,1-.785.063q-25.417.006-50.834,0C103.7,270.687,103.421,270.773,103.18,270.6Z" transform="translate(-14.332 -120.028)"/><path class="k" d="M211.387,169.7c1.5.541,1.981,1.855,1.061,2.881a2.579,2.579,0,0,1-1.069.568c-.213.221-.493.162-.754.162q-7.2.006-14.4,0c-.257,0-.537.071-.75-.158A1.91,1.91,0,0,1,194,172.118c-.446-1.03.055-1.938,1.33-2.411.138-.142.32-.091.481-.091q7.541-.006,15.082,0C211.068,169.616,211.245,169.569,211.387,169.7Z" transform="translate(-70.028 -60.917)"/><path class="k" d="M203.416,149.6q-3.812,0-7.62,0c-1.192,0-1.93-.651-1.926-1.685a1.683,1.683,0,0,1,1.882-1.661q7.654-.006,15.311,0a1.7,1.7,0,0,1,1.788,1.192,1.716,1.716,0,0,1-.766,1.945,1.938,1.938,0,0,1-1.05.213Q207.23,149.6,203.416,149.6Z" transform="translate(-70.043 -46.778)"/><path class="m" d="M203.441,300.875c-2.636,0-5.272.008-7.908,0a1.611,1.611,0,0,1-1.63-1.286,1.717,1.717,0,0,1,.9-1.886,1.782,1.782,0,0,1,.844-.17q7.73,0,15.457,0a1.675,1.675,0,1,1,.032,3.342c-2.565.012-5.13,0-7.695,0Z" transform="translate(-70.038 -138.358)"/><path class="m" d="M203.109,123.877q-3.664,0-7.332,0c-1.168,0-1.894-.623-1.918-1.618a1.708,1.708,0,0,1,1.89-1.736q7.369-.006,14.735,0a1.688,1.688,0,0,1,1.874,1.673,1.652,1.652,0,0,1-1.851,1.681C208.045,123.885,205.579,123.877,203.109,123.877Z" transform="translate(-70.037 -31.199)"/><path class="n" d="M83.938,169.927c-.1.146-.193.142-.292,0a1.949,1.949,0,0,0,.071-.927q.006-38.445,0-76.886c0-.264,0-.529,0-.62.016.087,0,.351,0,.616q0,38.445,0,76.886a2.069,2.069,0,0,1-.067.931c-.1.012-.193.158-.292,0q0-39.09.016-78.176c0-.316-.3-.931.312-.912.47.016.245.6.245.912Q83.944,130.835,83.938,169.927Z" transform="translate(-3.104 -13.231)"/><path class="o" d="M176.837,105.376c.016.047.032.095.043.142a2.979,2.979,0,0,1,.047.935q.006,43.447,0,86.889a5.918,5.918,0,0,1-.016,1.152c-.359.363-.813.249-1.247.253q-.255-.012-.509-.012-26.471,0-52.945,0c-.3-.043-.695.118-.8-.359.043-.008.087-.012.13-.016a4.688,4.688,0,0,1,1.369-.051q26.388-.006,52.779,0c.955,0,.955,0,.955-.983v-87.71a.458.458,0,0,1,.067-.276A.5.5,0,0,1,176.837,105.376Z" transform="translate(-26.177 -22.01)"/><path class="p" d="M176.865,105.691c.008.288.02.58.02.868q0,43.547,0,87.095c0,.537.067.935-.75.935q-27.033-.041-54.066-.02c-.122,0-.241-.012-.363-.016a.457.457,0,0,1,0-.126h1.436q26.382,0,52.763.02c.722,0,.856-.28.837-.86-.008-.17,0-.339,0-.509V105.691C176.79,105.619,176.829,105.623,176.865,105.691Z" transform="translate(-26.355 -22.191)"/><path class="q" d="M103.622,244.93a2.824,2.824,0,0,0,.994.158q25.825-.006,51.651,0c.217,0,.434-.008.651-.012-.051.043-.1.087-.154.134a3.079,3.079,0,0,1-1.211.138H103.918a.668.668,0,0,1-.264-.067c-.1-.079-.312.012-.3-.174C103.354,245.04,103.527,244.985,103.622,244.93Z" transform="translate(-15.243 -106.516)"/><path class="r" d="M105.069,236.092l-.138.024a.114.114,0,0,1-.043-.111q.018-.059.036-.059c.024-.1-.335-.178-.032-.28a1.657,1.657,0,0,1,.505-.008q25.784,0,51.564,0c.339,0,.746-.15.967.288-.264.166-.529-.032-.793,0q-25.583-.006-51.165,0a5.126,5.126,0,0,0-.651.02A.527.527,0,0,0,105.069,236.092Z" transform="translate(-16.103 -100.89)"/><path class="s" d="M105.53,236.342V236.2a1.855,1.855,0,0,1,.856-.067q25.281-.006,50.565-.008a1.711,1.711,0,0,0,.856-.071,1,1,0,0,0,.58.146c-.067.126-.193.138-.316.158q-26.163.006-52.325,0C105.672,236.358,105.6,236.346,105.53,236.342Z" transform="translate(-16.563 -101.14)"/><path class="t" d="M157.643,266.679H105.1V266.6h52.57C157.662,266.624,157.65,266.651,157.643,266.679Z" transform="translate(-16.303 -119.635)"/><path class="u" d="M104.79,245.736c.241-.245.552-.134.829-.134q26.009-.006,52.022,0a.28.28,0,0,1-.28.138,1.612,1.612,0,0,1-.785.067q-25.5.006-51,0a1.566,1.566,0,0,1-.785-.067Z" transform="translate(-16.115 -106.908)"/><ellipse class="v" cx="36.94" cy="0.047" rx="36.94" ry="0.047" transform="translate(78.17 123.028)"/><path class="q" d="M104.79,245.98h52.566c-.213.237-.5.142-.754.142q-25.529.006-51.063,0C105.287,246.122,105,246.221,104.79,245.98Z" transform="translate(-16.115 -107.152)"/><path class="w" d="M105.174,275.747q25.944,0,51.887,0c.17,0,.335.016.505.028-.217.229-.5.134-.758.134q-25.547.006-51.094,0c-.185,0-.375-.024-.56-.039-.008,0-.02-.039-.016-.059A.182.182,0,0,1,105.174,275.747Z" transform="translate(-16.326 -125.172)"/><path class="x" d="M105.53,217.033c.213-.237.5-.142.754-.142q25.387-.006,50.775,0c.253,0,.537-.095.754.142a1.562,1.562,0,0,1-.785.067q-25.358.006-50.712,0A1.6,1.6,0,0,1,105.53,217.033Z" transform="translate(-16.563 -89.531)"/><path class="y" d="M105.53,217.28h52.278c-.213.237-.5.142-.754.142q-25.387.006-50.775,0C106.027,217.418,105.743,217.517,105.53,217.28Z" transform="translate(-16.563 -89.777)"/><path class="z" d="M133.5,89.071c-.264.26-.6.138-.9.138q-23.541.012-47.085-.012c-.3,0-.691.28-.955-.126A1.563,1.563,0,0,1,85.345,89q23.683-.006,47.369,0A1.6,1.6,0,0,1,133.5,89.071Z" transform="translate(-3.868 -12.11)"/><path class="i" d="M133.49,88.953H84.55c.213-.237.5-.142.754-.142q23.718-.006,47.432,0C132.989,88.815,133.273,88.717,133.49,88.953Z" transform="translate(-3.862 -11.992)"/><path class="aa" d="M106.69,111.73h29.15v.071H106.71C106.7,111.777,106.7,111.754,106.69,111.73Z" transform="translate(-17.266 -25.878)"/><path class="ab" d="M181.581,114.678v29.059h-.071V114.67C181.534,114.674,181.557,114.674,181.581,114.678Z" transform="translate(-62.561 -27.658)"/><path class="ac" d="M105.646,114.23c.012.17.028.335.028.505v28.183c0,.17-.016.335-.028.505-.245-.213-.146-.5-.146-.75q-.006-13.845,0-27.694C105.5,114.727,105.405,114.443,105.646,114.23Z" transform="translate(-16.533 -27.392)"/><path class="ad" d="M106.516,189.092h-.552c0-.047,0-.095,0-.142h28.282c.189,0,.383.012.572.024.016,0,.036.032.039.047a.133.133,0,0,1-.02.067,1.227,1.227,0,0,1-.841.142q-13.283.006-26.561,0A1.529,1.529,0,0,1,106.516,189.092Z" transform="translate(-16.824 -72.627)"/><path class="ae" d="M107.37,189.31h28.317v.146a1.8,1.8,0,0,1-.856.067q-13.087.006-26.171.008a1.692,1.692,0,0,0-.852.071A.442.442,0,0,1,107.37,189.31Z" transform="translate(-17.677 -72.845)"/><path class="af" d="M108.47,189.788c.241-.253.549-.138.825-.138q13.525-.012,27.055,0c-.264.26-.6.138-.9.138Q121.964,189.8,108.47,189.788Z" transform="translate(-18.343 -73.035)"/><path class="ag" d="M213.219,169.565q-6.47.012-12.939.024c-1.038,0-2.072-.012-3.11-.02-.095-.016-.189-.032-.3-.047,0-.2.162-.114.237-.114q7.938-.006,15.875,0c.13,0,.28-.075.391.055a.062.062,0,0,1-.024.051A.745.745,0,0,1,213.219,169.565Z" transform="translate(-71.86 -60.783)"/><path class="ah" d="M197.471,178.548c3.879-.008,7.762-.024,11.641-.028,1.421,0,2.845.016,4.266.024.067.032.134.067.2.1-.055.024-.11.043-.166.067a.99.99,0,0,1-.564.067q-7.494.006-14.987,0a.99.99,0,0,1-.564-.067c-.051-.032-.1-.063-.158-.095C197.247,178.591,197.357,178.571,197.471,178.548Z" transform="translate(-72.023 -66.312)"/><path class="ai" d="M213.155,306.551H197.28v-.071h15.907C213.175,306.5,213.167,306.527,213.155,306.551Z" transform="translate(-72.108 -143.778)"/><path class="aj" d="M213.379,155.291H197.65v-.071h15.761C213.4,155.244,213.391,155.267,213.379,155.291Z" transform="translate(-72.332 -52.207)"/><path class="ak" d="M197.53,179h16.116c-.213.237-.5.138-.75.138q-7.31.006-14.616,0C198.027,179.142,197.743,179.237,197.53,179Z" transform="translate(-72.259 -66.603)"/><path class="al" d="M212.873,129.531H197.29v-.071H212.9A.563.563,0,0,0,212.873,129.531Z" transform="translate(-72.114 -36.612)"/><path class="am" d="M261.308,95.8c-.039,0-.079,0-.118,0V89.3h.142v6.341C261.324,95.693,261.316,95.748,261.308,95.8Z" transform="translate(-110.798 -12.3)"/><path class="s" d="M104.5,236.41c0,.055,0,.114.008.17l-.41.142C103.979,236.288,104.33,236.465,104.5,236.41Z" transform="translate(-15.683 -101.358)"/><path class="ab" d="M181.572,113.032c-.02.059.055.189-.091.178-.036,0-.091-.1-.091-.158a.2.2,0,0,1,.095-.158C181.568,112.87,181.575,112.953,181.572,113.032Z" transform="translate(-62.488 -26.58)"/><path class="an" d="M304.981,291.212c3.678,0,7.356.012,11.029-.012.584,0,.73.178.726.742-.028,2.758.055,5.517-.028,8.275a11.731,11.731,0,0,1-23.144,2.348,12.044,12.044,0,0,1-.324-2.5c-.047-2.758,0-5.517-.032-8.275,0-.608.328-.576.738-.576Z" transform="translate(-130.183 -134.527)"/><path class="an" d="M332.119,262.081c-1.428,0-2.857-.039-4.282.016-.671.028-.86-.209-.789-.829a5.29,5.29,0,0,0,0-1.089,1.693,1.693,0,0,1,.564-1.547,2.169,2.169,0,0,0,.6-1.657c.012-1.113-.008-2.226.008-3.338a2.589,2.589,0,0,0-.8-1.957,1.135,1.135,0,0,1-.371-.947c.016-.556.024-1.113,0-1.669-.02-.45.193-.552.58-.466a12.037,12.037,0,0,1,7.249,4.577,12.741,12.741,0,0,1,2.332,8.409c-.016.458-.233.5-.592.5C335.122,262.077,333.623,262.081,332.119,262.081Z" transform="translate(-150.66 -108.719)"/><path class="ao" d="M298.4,262.125c-1.523,0-3.046-.008-4.57,0-.335,0-.521-.036-.541-.454a12.317,12.317,0,0,1,3.413-9.755,11.779,11.779,0,0,1,6.176-3.291c.438-.091.56.047.533.466a9.861,9.861,0,0,0,0,1.231,1.863,1.863,0,0,1-.572,1.673,2.172,2.172,0,0,0-.584,1.669c0,1.089,0,2.178,0,3.263a2.334,2.334,0,0,0,.683,1.78,1.528,1.528,0,0,1,.474,1.35,10.9,10.9,0,0,0,0,1.523c.039.477-.162.556-.58.552-1.48-.024-2.956-.012-4.431-.012Z" transform="translate(-130.215 -108.74)"/><path class="ap" d="M318.887,157.35c-.107.1-.229.13-.26-.039a3.977,3.977,0,0,1-.028-.651V105.218c0-.189.012-.383.024-.572,0-.012.032-.036.051-.036a.189.189,0,0,1,.067.02,1.8,1.8,0,0,1,.067.856q.006,25.506.008,51.007A1.806,1.806,0,0,0,318.887,157.35Z" transform="translate(-145.552 -21.568)"/><path class="aq" d="M319.081,157.386c-.249-.241-.138-.549-.138-.825q-.006-25.944,0-51.891c.249.241.138.549.138.825Q319.088,131.438,319.081,157.386Z" transform="translate(-145.746 -21.604)"/><ellipse class="ar" cx="16.282" cy="0.103" rx="16.282" ry="0.103" transform="translate(158.651 156.29)"/><path class="as" d="M240.292,77.84h20.378v.071H240.26C240.272,77.891,240.28,77.864,240.292,77.84Z" transform="translate(-98.127 -5.362)"/><path class="j" d="M285.53,291.735V277.02h.071v14.747C285.577,291.755,285.554,291.747,285.53,291.735Z" transform="translate(-125.533 -125.943)"/><path class="ao" d="M161.8,194.811l1.156-.059c.13.1,0,.217.012.324.2.257.529-.118.726.146.233-.489-.122-.9-.189-1.35-.024-.268-.016-.533-.016-.8q0-43.026,0-86.053c0-.426-.111-.88.2-1.259q1.616,0,3.232,0a1.5,1.5,0,0,1,.837.146c.205-.11.328-.039.351.182a5.977,5.977,0,0,1,.008.651q0,46.389,0,92.777a1.566,1.566,0,0,1-.067.785h-.58a1.506,1.506,0,0,0-.781-.071q-33.562-.006-67.119,0a1.506,1.506,0,0,0-.781.071c-.481-.114-.28-.505-.284-.773-.012-4.676-.008-9.352-.012-14.032q4.138,4.209,8.275,8.421a1.455,1.455,0,0,0,.426.438c.107.095.217.189.324.284.189.26.481.083.71.174a2.239,2.239,0,0,0,.793.047q25.991.006,51.986,0A2.226,2.226,0,0,0,161.8,194.811Z" transform="translate(-12.285 -22.264)"/><path class="at" d="M119.936,329.608a.418.418,0,0,1-.426-.438A.955.955,0,0,1,119.936,329.608Z" transform="translate(-25.027 -157.514)"/><path class="au" d="M274.362,200.333q0-46.773-.012-93.547c0-.288.225-.706-.28-.852.185-.182.347-.185.418.091a2.151,2.151,0,0,1,.016.505v93.448c0,.122,0,.241-.008.363C274.449,200.337,274.405,200.333,274.362,200.333Z" transform="translate(-118.596 -22.292)"/><path class="av" d="M263.1,194.074c.051.387.331.773,0,1.16a1.378,1.378,0,0,0-.434-1.16,1.949,1.949,0,0,0,.071-.927q.006-43.222.008-86.44a2.052,2.052,0,0,1,.067-.927h.146a2.052,2.052,0,0,1,.067.927q.006,43.222.008,86.44A1.9,1.9,0,0,0,263.1,194.074Z" transform="translate(-111.694 -22.276)"/><path class="aw" d="M261.827,195.088c-.15-.1,0-.217-.012-.324q.006-16.4.008-32.808v-55.38c0-.264.016-.533.028-.8.233.276.118.608.118.908q.012,43.346.012,86.688a2.148,2.148,0,0,0,.126,1.2C262.257,194.84,261.93,194.923,261.827,195.088Z" transform="translate(-111.143 -22.276)"/><path class="ax" d="M263.51,194.068c-.268-.264-.138-.6-.138-.9q-.012-43.7-.008-87.4h.146Z" transform="translate(-112.1 -22.27)"/><path class="ao" d="M262.778,105.77q0,43.666-.008,87.327c0,.324.13.679-.138.971q0-43.737,0-87.474C262.639,106.319,262.525,106.011,262.778,105.77Z" transform="translate(-111.66 -22.27)"/><path class="ay" d="M99.27,345.1c.213-.237.5-.142.754-.142q33.591-.006,67.179,0c.253,0,.537-.095.754.142q-34.272,0-68.544,0C99.369,345.107,99.317,345.1,99.27,345.1Z" transform="translate(-12.774 -167.063)"/><path class="a" d="M130.01,155.93c1.275.623,2.545,1.267,3.832,1.867a3.881,3.881,0,0,1,2.107,2.265,14.45,14.45,0,0,1,1.03,4.12c0,.584-.292.734-.86.734q-11.235-.024-22.473-.012a1.11,1.11,0,0,1-.766-.142,13.891,13.891,0,0,1,1.381-5.331,3.387,3.387,0,0,1,1.717-1.586c.955-.454,1.9-.923,2.849-1.389.13-.264.387-.335.627-.454.513-.249,1.093-.391,1.4-.971.185-.359.477-.233.734-.039a9.077,9.077,0,0,0,1.243.88,4.47,4.47,0,0,0,5.248-.7c.651-.564.647-.56,1.176.083C129.469,155.519,129.781,155.677,130.01,155.93Z" transform="translate(-21.013 -51.926)"/><path class="a" d="M140.625,129.155a16.585,16.585,0,0,1-.284,1.863,8.906,8.906,0,0,1-1.239,3.117,4.221,4.221,0,0,1-4.522,1.819,3.935,3.935,0,0,1-2.8-2.573,12.484,12.484,0,0,1-1.3-6.653,4.515,4.515,0,0,1,4.5-4.388,2.555,2.555,0,0,0,1.3,0,4.4,4.4,0,0,1,4.341,4.211C140.644,127.419,140.613,128.287,140.625,129.155Z" transform="translate(-31.636 -32.302)"/><path class="az" d="M129.919,146.684a5.62,5.62,0,0,0,2.312,2.21,3.938,3.938,0,0,0,4.858-1.578,13.781,13.781,0,0,0,1.393-3,3.862,3.862,0,0,1-.328,1.764c-.146.288.189.292.217.446.039.2.217.458.059.6-.213.2-.351-.122-.505-.229-.41.62.47.833.363,1.31-.134.584.422.9.485,1.393-.592-.15-1.089-.4-1.136-1.129-3.323,2.474-4.645,2.478-7.774.043-.331,1.148-1.456,1.152-2.273,1.614-.091-.138-.363-.193-.162-.458.221-.292.47-.379.88-.1-.134-.3-.221-.493-.331-.742.178.036.292.047.406.083.6.174.9-.032.868-.627-.008-.166-.095-.328.091-.446.071.039.114.11.182.15-.024-.095-.13-.087-.182-.15C129.023,147.2,129.489,146.952,129.919,146.684Z" transform="translate(-29.777 -45.608)"/><path class="ba" d="M112.89,179.22q11.572,0,23.144.012c.493,0,.813-.107.951-.592.241.635.095.864-.655.86-7.588-.028-15.173-.016-22.761-.032C113.352,179.469,112.957,179.725,112.89,179.22Z" transform="translate(-21.019 -66.385)"/><path class="bb" d="M156.029,135.614a5.484,5.484,0,0,1,0-2.6A6.1,6.1,0,0,1,156.029,135.614Z" transform="translate(-47.04 -38.761)"/><path class="bc" d="M143.262,122.253a1.341,1.341,0,0,1-1.3,0A3.9,3.9,0,0,1,143.262,122.253Z" transform="translate(-38.618 -32.214)"/><path class="bd" d="M84.18,170.251V91.38c.241.2.138.418.138.6q.012,38.759,0,77.521c0,.256.1.541-.138.754Z" transform="translate(-3.638 -13.559)"/><path class="be" d="M176.772,331.4c-.229.205-.509.118-.766.118q-26.021.006-52.041,0c-.257,0-.537.087-.766-.114.193-.008.387-.024.58-.024h52.412C176.39,331.375,176.583,331.391,176.772,331.4Z" transform="translate(-27.261 -158.851)"/><path class="bf" d="M157.808,236.018c-.241.249-.549.142-.825.142q-25.725.006-51.453,0c.264-.26.6-.138.9-.138Q132.119,236.008,157.808,236.018Z" transform="translate(-16.563 -101.108)"/><path class="k" d="M132.39,153.233c.477-.047.351.26.371.564-.292-.142-.237-.41-.371-.564Z" transform="translate(-32.824 -51.001)"/></g></svg>