<svg xmlns="http://www.w3.org/2000/svg" width="3664" height="395.614" viewBox="0 0 3664 395.614">
  <path id="Subtraction_15" data-name="Subtraction 15" d="M3751,424H87V28.387c2.647,1.407,12.569,6.637,29.146,14.805,17.935,8.839,47.518,23.009,86.609,40.317,43.913,19.445,90.6,38.792,138.75,57.5,60.212,23.4,122.9,45.86,186.312,66.763A4089.022,4089.022,0,0,0,1024.8,337.36c48.6,9.462,97.994,18.14,146.815,25.793,51.324,8.045,103.371,15.168,154.7,21.17,53.8,6.291,108.3,11.524,162.005,15.555,56.1,4.21,112.872,7.221,168.744,8.949,82.17,2.54,170.006,4.451,261.068,5.679,85.051,1.148,175.1,1.73,267.643,1.73,179.068,0,372.8-2.165,575.825-6.436,162.474-3.419,331.172-8.183,501.408-14.161,151.662-5.325,276.332-10.64,354.211-14.16,79.549-3.6,128.47-6.135,133.787-6.413V424h0Z" transform="translate(-87 -28.387)" fill="navy"/>
</svg>
