<svg xmlns="http://www.w3.org/2000/svg" xmlns:xlink="http://www.w3.org/1999/xlink" width="106.234" height="119.697" viewBox="0 0 106.234 119.697">
  <defs>
    <linearGradient id="linear-gradient" x1="0.5" y1="1" x2="0.5" gradientUnits="objectBoundingBox">
      <stop offset="0" stop-color="#ffac81"/>
      <stop offset="1" stop-color="#ff8a73"/>
    </linearGradient>
    <linearGradient id="linear-gradient-2" x1="0.5" y1="1" x2="0.5" gradientUnits="objectBoundingBox">
      <stop offset="0" stop-color="#dd899f"/>
      <stop offset="0.994" stop-color="#d360ae"/>
    </linearGradient>
    <linearGradient id="linear-gradient-3" x1="0.5" y1="1" x2="0.5" y2="0" xlink:href="#linear-gradient-2"/>
    <linearGradient id="linear-gradient-5" x1="0.5" y1="1" x2="0.5" y2="0" xlink:href="#linear-gradient-2"/>
    <linearGradient id="linear-gradient-6" x1="0.5" y1="0.999" x2="0.5" y2="-0.001" xlink:href="#linear-gradient-2"/>
    <linearGradient id="linear-gradient-7" x1="0.5" y1="1" x2="0.5" y2="0" xlink:href="#linear-gradient-2"/>
    <linearGradient id="linear-gradient-8" x1="0.5" y1="1" x2="0.5" y2="0" xlink:href="#linear-gradient-2"/>
    <linearGradient id="linear-gradient-9" x1="0.5" y1="1" x2="0.5" y2="0" xlink:href="#linear-gradient-2"/>
    <linearGradient id="linear-gradient-10" x1="0.5" y1="1" x2="0.5" gradientUnits="objectBoundingBox">
      <stop offset="0.006" stop-color="#ff8166"/>
      <stop offset="1" stop-color="#d9707e"/>
    </linearGradient>
    <linearGradient id="linear-gradient-12" x1="0.502" y1="1" x2="0.502" gradientUnits="objectBoundingBox">
      <stop offset="0.006" stop-color="#281742"/>
      <stop offset="1" stop-color="#322d45"/>
    </linearGradient>
    <linearGradient id="linear-gradient-13" x1="0.5" y1="1" x2="0.5" y2="0" xlink:href="#linear-gradient-12"/>
    <radialGradient id="radial-gradient" cx="0.5" cy="0.5" r="4.177" gradientTransform="translate(0.458) scale(0.085 1)" gradientUnits="objectBoundingBox">
      <stop offset="0" stop-color="aqua"/>
      <stop offset="0.994" stop-color="#26c3ff"/>
    </radialGradient>
    <radialGradient id="radial-gradient-2" cx="0.5" cy="0.5" r="0.415" gradientTransform="translate(-0.315) scale(1.631 1)" gradientUnits="objectBoundingBox">
      <stop offset="0" stop-color="#00d1ff"/>
      <stop offset="0.994" stop-color="#2681e0"/>
    </radialGradient>
    <linearGradient id="linear-gradient-14" x1="0.5" y1="1" x2="0.5" gradientUnits="objectBoundingBox">
      <stop offset="0" stop-color="#603082"/>
      <stop offset="0.994" stop-color="#2a0e51"/>
    </linearGradient>
    <linearGradient id="linear-gradient-15" x1="0.335" y1="1.023" x2="0.335" y2="-0.016" gradientUnits="objectBoundingBox">
      <stop offset="0.017" stop-color="#d4cbe2"/>
      <stop offset="1" stop-color="#f3e6ee"/>
    </linearGradient>
    <linearGradient id="linear-gradient-16" x1="0.501" y1="0.999" x2="0.501" y2="0.001" gradientUnits="objectBoundingBox">
      <stop offset="0.006" stop-color="#514365"/>
      <stop offset="1" stop-color="#49455a"/>
    </linearGradient>
    <linearGradient id="linear-gradient-17" x1="0.499" y1="1.001" x2="0.499" y2="-0.001" gradientUnits="objectBoundingBox">
      <stop offset="0.006" stop-color="#90609a"/>
      <stop offset="1" stop-color="#9783c0"/>
    </linearGradient>
    <linearGradient id="linear-gradient-18" x1="0.5" y1="1" x2="0.5" gradientUnits="objectBoundingBox">
      <stop offset="0.002" stop-color="#e03347"/>
      <stop offset="1" stop-color="#ff6e27"/>
    </linearGradient>
    <linearGradient id="linear-gradient-19" x1="0.5" y1="1" x2="0.5" gradientUnits="objectBoundingBox">
      <stop offset="0.141" stop-color="#4c1d72"/>
      <stop offset="1" stop-color="#3b5793"/>
    </linearGradient>
    <radialGradient id="radial-gradient-3" cx="0.5" cy="0.5" r="0.634" gradientTransform="translate(0.164) scale(0.672 1)" gradientUnits="objectBoundingBox">
      <stop offset="0" stop-color="#7c65e0"/>
      <stop offset="0.994" stop-color="#bd77e3"/>
    </radialGradient>
    <radialGradient id="radial-gradient-4" cx="0.5" cy="0.5" r="0.634" gradientTransform="translate(0.164) scale(0.672 1)" gradientUnits="objectBoundingBox">
      <stop offset="0" stop-color="navy"/>
      <stop offset="0.571" stop-color="#0909be"/>
      <stop offset="1" stop-color="navy"/>
    </radialGradient>
    <radialGradient id="radial-gradient-5" cx="0.5" cy="0.5" r="2.988" gradientTransform="translate(0.44) scale(0.119 1)" xlink:href="#linear-gradient-14"/>
    <linearGradient id="linear-gradient-20" y1="0.5" x2="1" y2="0.5" gradientUnits="objectBoundingBox">
      <stop offset="0" stop-color="#f3e6ee"/>
      <stop offset="0.983" stop-color="#e5dfed"/>
    </linearGradient>
    <linearGradient id="linear-gradient-21" x1="0" y1="0.5" x2="1" y2="0.5" xlink:href="#linear-gradient-20"/>
    <linearGradient id="linear-gradient-22" x1="0" y1="0.5" x2="1" y2="0.5" xlink:href="#linear-gradient-18"/>
    <linearGradient id="linear-gradient-23" x1="0.5" y1="1" x2="0.5" gradientUnits="objectBoundingBox">
      <stop offset="0" stop-color="#ff8647"/>
      <stop offset="1" stop-color="#ffb934"/>
    </linearGradient>
    <linearGradient id="linear-gradient-24" x1="0.5" y1="1" x2="0.5" y2="0" xlink:href="#linear-gradient-19"/>
    <linearGradient id="linear-gradient-25" x1="0.5" y1="1" x2="0.5" gradientUnits="objectBoundingBox">
      <stop offset="0" stop-color="#ffae7f"/>
      <stop offset="1" stop-color="#ff9d84"/>
    </linearGradient>
    <linearGradient id="linear-gradient-26" x1="0.5" y1="1" x2="0.5" gradientUnits="objectBoundingBox">
      <stop offset="0" stop-color="#ffae7f"/>
      <stop offset="1" stop-color="#ffb384"/>
    </linearGradient>
    <linearGradient id="linear-gradient-27" x1="0.5" y1="1" x2="0.5" y2="-0.001" gradientUnits="objectBoundingBox">
      <stop offset="0" stop-color="#ffb693"/>
      <stop offset="1" stop-color="#ffcf9c"/>
    </linearGradient>
    <linearGradient id="linear-gradient-28" x1="0.5" y1="1" x2="0.5" gradientUnits="objectBoundingBox">
      <stop offset="0" stop-color="#ff89ab"/>
      <stop offset="0.994" stop-color="#ea609a"/>
    </linearGradient>
    <linearGradient id="linear-gradient-29" x1="0.5" y1="1.001" x2="0.5" y2="0" xlink:href="#linear-gradient-10"/>
    <linearGradient id="linear-gradient-30" x1="0.5" y1="1" x2="0.5" y2="0" xlink:href="#linear-gradient-26"/>
    <linearGradient id="linear-gradient-31" x1="0.5" y1="1" x2="0.5" y2="0" xlink:href="#linear-gradient-25"/>
    <linearGradient id="linear-gradient-32" x1="0.5" y1="1" x2="0.5" y2="0" xlink:href="#linear-gradient-27"/>
    <linearGradient id="linear-gradient-33" y1="0.5" x2="1" y2="0.5" gradientUnits="objectBoundingBox">
      <stop offset="0.006" stop-color="#b060f4"/>
      <stop offset="1" stop-color="#ffb9cd"/>
    </linearGradient>
    <linearGradient id="linear-gradient-34" x1="0.5" y1="1" x2="0.5" y2="-0.001" xlink:href="#linear-gradient-26"/>
    <linearGradient id="linear-gradient-35" x1="0.5" y1="1" x2="0.5" y2="0" xlink:href="#linear-gradient-2"/>
    <linearGradient id="linear-gradient-36" x1="0.5" y1="1" x2="0.5" y2="0" xlink:href="#linear-gradient-26"/>
    <linearGradient id="linear-gradient-37" x1="0.5" y1="1" x2="0.5" y2="0" xlink:href="#linear-gradient-2"/>
  </defs>
  <g id="_2059_Converted_" data-name="2059 [Converted]" transform="translate(-509.901 -113.697)">
    <path id="Path_757" data-name="Path 757" d="M718.488,259.681H701.5a38.969,38.969,0,0,0-1.162-7.776s-4.917-.489-5.8-1.037c-2.889-1.806-5.251-6.1-6.43-9.281a14.76,14.76,0,0,1-.74-2.554c-.489-2.8,2.918-8.947,2.918-14.946s-2.433-15.026-2.433-15.026L689.8,206.7a45.027,45.027,0,0,1-1.86-5.861,99.988,99.988,0,0,1-2.149-11.731l3.349-1.5,2.362-1.058,5.381,16.46.635-.782c.364-5.1-1.459-18.747-1.459-18.747s-1.058-.192-2.458-2.216a18.355,18.355,0,0,1-1.559-3.775c-1.522-4.637-3.223-11.919-2.634-14.545.819-3.646,5.009-4.072,5.009-4.072,1.827,6.321,7.417,16.531,8.023,18.655a38.948,38.948,0,0,1,.916,4.009c.544,4.469,5.193,16.41,5.74,18.316s1.977,12.981,2.7,19.052,3.407,16.773,4.377,22.6C716.715,244.764,717.714,253.042,718.488,259.681Z" transform="translate(-102.353 -26.287)" fill-rule="evenodd" fill="url(#linear-gradient)"/>
    <path id="Path_758" data-name="Path 758" d="M700.312,238.223c.97,4.051,4.361,10.887,4.361,10.887l-3.524,3.19-1.773.916v20.3a15.864,15.864,0,0,1-10.356-6c-.088-.109-.171-.222-.255-.339-2.391-3.269-1.317-23.412.084-40.416.4-4.812.815-9.369,1.2-13.228l2.366-1.058,5.377,16.456.64-.782c.364-5.1-1.459-18.747-1.459-18.747s-1.058-.192-2.463-2.216a18.772,18.772,0,0,1-1.555-3.775,32.6,32.6,0,0,0,4.808,3.023c.819.092,2.308-1.342,2.308-1.342l-1.183,2.462s4.678,10.837,4.712,18.22h3.938s-4.82,1.292-6.823,3.156C700.7,228.925,699.338,234.172,700.312,238.223Z" transform="translate(-103.263 -52.206)" fill-rule="evenodd" opacity="0.3" fill="url(#linear-gradient-2)"/>
    <path id="Path_759" data-name="Path 759" d="M696.779,280.58s6.259,2.145,7.626,5.556,3.42,7.881,3.42,7.881l-4.239,2.947-10.816-6.137Z" transform="translate(-106.415 -97.113)" fill-rule="evenodd" opacity="0.3" fill="url(#linear-gradient-3)"/>
    <path id="Path_760" data-name="Path 760" d="M572.947,156.808c0,1.994-7.655,12.141-8.993,13.45s-13.37,14.4-13.487,16.171a14.234,14.234,0,0,1-1.279,4.152s.707,5.765,1.175,11.167c.242,2.743.418,5.385.418,7.132a12.53,12.53,0,0,1-.071,1.493,9.721,9.721,0,0,1-1.141,3.085s0,0,0,.008a18.308,18.308,0,0,1-7.007,7.12s-.376,7.095-1.576,15.569c-.326,2.32-.723,4.749-1.187,7.162H519.065a231.439,231.439,0,0,0,6.121-23.412.015.015,0,0,1,0-.008,63.3,63.3,0,0,1-10.92-11.522,30.439,30.439,0,0,1-4.356-8.4s-.213-2.826,2.584-5.866a114.86,114.86,0,0,0,3.161-14.282c.911-6.656.723-7.559,1.1-9.11s2-4.641,3.094-7.425,3.646-11.719,3.968-13.086,9.432-19.144,10.251-19.416,3.19.911,3.558,3.374c.213,1.476-.581,7.04-2.124,11.769a25.073,25.073,0,0,1-1.777,4.269,6.861,6.861,0,0,1-2.207,2.621A84.482,84.482,0,0,0,528.86,163.7c-.548,4.189-.635,7.764-.635,7.764h1.735s6.647-16.577,9.57-22.882,6.56-14.963,7.379-15.423,3.466.819,3.922,2.734-2.007,15.36-5.1,17.25l-5.531,16.506c.556-1.309,9.511-22.321,10.686-24.989,1.225-2.751,2.588-6.581,3.048-6.673a3.694,3.694,0,0,1,3.462,3.194c.456,2.734-2,13.6-4.741,15.778l-3.37,15.578.092,2.3h1.819l9.235-9.189a15.635,15.635,0,0,1,1.827-3.947c.97-1.2,6.075-7.705,7.17-8.04S572.947,154.818,572.947,156.808Z" transform="translate(0 -9.922)" fill-rule="evenodd" fill="url(#linear-gradient)"/>
    <path id="Path_761" data-name="Path 761" d="M708.232,211.725a25.872,25.872,0,0,1,3.1-4.315s-3.34,1.639-4.62,3.34A6.373,6.373,0,0,0,708.232,211.725Z" transform="translate(-114.527 -54.533)" fill="#ce5964" fill-rule="evenodd"/>
    <path id="Path_762" data-name="Path 762" d="M690.73,347.15l5.8.251-1.267-6.551Z" transform="translate(-105.228 -132.185)" fill-rule="evenodd" opacity="0.3" fill="url(#linear-gradient-5)"/>
    <path id="Path_763" data-name="Path 763" d="M562.54,336.043s2.149-1.325,6.254-.8,5.013,3.219,5.013,3.219S570.96,334.776,562.54,336.043Z" transform="translate(-30.632 -128.849)" fill-rule="evenodd" opacity="0.3" fill="url(#linear-gradient-6)"/>
    <path id="Path_764" data-name="Path 764" d="M555.612,321.429a.032.032,0,0,1,0,.013s0,0,0,.008a18.225,18.225,0,0,1-7,7.124s-.385,7.1-1.58,15.569c-1.973-6.234-6.719-17.053-15.8-16.255l-.008-.008c-.268-.188-7.375-5.305-10.92-11.522a.147.147,0,0,1-.017-.038c.18.092,5.895,3.039,9.361,3.437,3.524.406,11.092-1.35,16.1-1.2a13.772,13.772,0,0,1,8.324,3.244Z" transform="translate(-6.04 -117.91)" fill-rule="evenodd" opacity="0.3" fill="url(#linear-gradient-7)"/>
    <path id="Path_765" data-name="Path 765" d="M529.31,226.55s5.1,3.759,20.9,3.253l-7.718-2.228-1.246-.355H539.52S536,228.176,529.31,226.55Z" transform="translate(-11.294 -65.671)" fill="#ce5964" fill-rule="evenodd"/>
    <path id="Path_766" data-name="Path 766" d="M586.139,160.026c0,1.99-7.655,12.137-8.993,13.445-.87.845-6.25,6.668-9.946,11.129v0c-2,2.408-3.5,4.419-3.545,5.042a14.1,14.1,0,0,1-1.275,4.147s.686,5.611,1.154,10.945c.008.071.013.151.017.222v0c-12.739-1.647-19.859-8.947-19.859-8.947l-1.217,3.428-.13-3.742-1.116-7.224.272-2.743.97-9.716c-2.467-.9-9.9-.982-9.9-.982l1.982-.368s3.579-4.022,4.3-7.467a66.312,66.312,0,0,0,1.284-13.646,18.245,18.245,0,0,0,4.223.987c1.915-.727,4.239-5.239,4.319-5.393-1.029,3.148-2.379,5.928-3.984,6.886a84.548,84.548,0,0,0-2.642,10.878c-.548,4.185-.64,7.764-.64,7.764h1.731s6.652-16.577,9.57-22.886,6.564-14.967,7.383-15.423,3.462.819,3.917,2.734-2.007,15.36-5.1,17.25l-5.535,16.5c.556-1.3,9.511-22.321,10.694-24.984,1.221-2.751,2.588-6.581,3.044-6.673a3.683,3.683,0,0,1,3.462,3.19c.456,2.734-2.007,13.6-4.741,15.778l-3.374,15.573.092,2.308h1.823l9.235-9.189a15.725,15.725,0,0,1,1.823-3.947c.974-1.2,6.079-7.705,7.17-8.04C583.71,156.548,586.139,158.036,586.139,160.026Z" transform="translate(-13.192 -13.14)" fill-rule="evenodd" opacity="0.3" fill="url(#linear-gradient-8)"/>
    <path id="Path_767" data-name="Path 767" d="M516.08,250.709c2.078-6.752,6.045-16.953,6.647-22.689,0,0,7.275.824,10.151,1.392v13.232Z" transform="translate(-3.596 -66.527)" fill-rule="evenodd" opacity="0.3" fill="url(#linear-gradient-9)"/>
    <path id="Path_768" data-name="Path 768" d="M555.675,274.758s5.381,2.437,8.119,7.07a26.478,26.478,0,0,1,2.977,9.712,25.836,25.836,0,0,0-3.077-11.744,18.249,18.249,0,0,0-8.224-7.676Z" transform="translate(-26.518 -92.189)" fill-rule="evenodd" fill="url(#linear-gradient-10)"/>
    <path id="Path_769" data-name="Path 769" d="M579.251,250.562h0c-2,2.408-3.5,4.423-3.545,5.046a14.1,14.1,0,0,1-1.275,4.147s.686,5.611,1.154,10.945c.008.071.013.15.017.222v0c-12.739-1.647-19.859-8.947-19.859-8.947l-1.217,3.428-.13-3.742-1.116-7.224.272-2.743,2.7-.644C556.265,251.051,569.468,248.191,579.251,250.562Z" transform="translate(-25.243 -79.097)" fill-rule="evenodd" opacity="0.3" fill="url(#linear-gradient-9)"/>
    <g id="Group_54" data-name="Group 54" transform="translate(534.297 113.697)">
      <path id="Path_770" data-name="Path 770" d="M707.134,148.38a16.321,16.321,0,0,1,.932,2.187c.167.673-.226,12.956-.619,13.688a6.512,6.512,0,0,1-1.108,1.4Z" transform="translate(-648.609 -133.88)" fill-rule="evenodd" fill="url(#linear-gradient-12)"/>
      <path id="Path_771" data-name="Path 771" d="M705.773,197.96a8.819,8.819,0,0,1,.727,2.019,31.08,31.08,0,0,1-.464,5.176,10.182,10.182,0,0,1-.656,1.074Z" transform="translate(-648.05 -162.732)" fill-rule="evenodd" fill="url(#linear-gradient-13)"/>
      <path id="Path_772" data-name="Path 772" d="M569.36,118.69s1.108-3.219,3.775-3.917c5.661-1.484,48.9-1.116,50.6-.744a6.353,6.353,0,0,1,4.407,4.181Z" transform="translate(-568.897 -113.697)" fill-rule="evenodd" fill="url(#radial-gradient)"/>
      <path id="Path_773" data-name="Path 773" d="M568.256,123.034s3.223,86.438,3.7,88.1,3.219,2.793,4.9,2.947,40.554.439,42.389,0,3.784-1.94,4.126-3.846,4.469-87.792,4.381-88.9a4.514,4.514,0,0,0-3.524-3.817c-1.819-.464-49.731-.222-52.272.339A5.278,5.278,0,0,0,568.256,123.034Z" transform="translate(-568.253 -115.779)" fill-rule="evenodd" fill="url(#radial-gradient-2)"/>
      <path id="Path_774" data-name="Path 774" d="M571.106,125.638s3.106,84.381,3.566,86,3.1,2.726,4.72,2.876,38.865.426,40.633,0A5.289,5.289,0,0,0,624,210.759c.33-1.86,4.306-85.706,4.223-86.781a4.62,4.62,0,0,0-3.395-3.725c-1.748-.46-47.707-.217-50.157.33A5.138,5.138,0,0,0,571.106,125.638Z" transform="translate(-569.911 -117.371)" fill-rule="evenodd" fill="url(#linear-gradient-14)"/>
      <g id="Group_50" data-name="Group 50" transform="translate(2.071 7.096)">
        <path id="Path_775" data-name="Path 775" d="M602.373,217.484c-16.267,0-21.886-.017-22.953,0a2.346,2.346,0,0,1-2.617-1.756c-.393-2.927-2.358-50.078-3.6-81.333a3.363,3.363,0,0,1,2.32-3.2c2.3-.489,10.494-.523,31.569-.523,12.885,0,18.391.1,19.294.2a2.4,2.4,0,0,1,2.174,2.12c-.021,3.654-4.026,80.167-4.294,82.031-.2,1.045-.56,2.015-2.738,2.274-.426.05-3.077.184-19.161.184Z" transform="translate(-573.205 -130.67)" fill-rule="evenodd" fill="url(#linear-gradient-15)"/>
      </g>
      <g id="Group_51" data-name="Group 51" transform="translate(29.67 3.392)">
        <path id="Path_776" data-name="Path 776" d="M642.2,123.3a1.488,1.488,0,1,1-1.488-1.488A1.489,1.489,0,0,1,642.2,123.3Z" transform="translate(-639.22 -121.81)" fill-rule="evenodd" fill="url(#linear-gradient-16)"/>
        <circle id="Ellipse_20" data-name="Ellipse 20" cx="0.786" cy="0.786" r="0.786" transform="translate(0.707 0.702)" opacity="0.6" fill="url(#linear-gradient-17)"/>
        <path id="Path_777" data-name="Path 777" d="M643.844,126.127a.3.3,0,1,1-.3-.3A.3.3,0,0,1,643.844,126.127Z" transform="translate(-641.565 -124.149)" fill="#a498d8" fill-rule="evenodd"/>
      </g>
      <path id="Path_778" data-name="Path 778" d="M630.885,285.49H617.849a4.29,4.29,0,0,1-4.289-4.289v-.3a4.29,4.29,0,0,1,4.289-4.289h13.036a4.29,4.29,0,0,1,4.289,4.289v.3A4.288,4.288,0,0,1,630.885,285.49Z" transform="translate(-594.618 -208.5)" fill="#962765" fill-rule="evenodd" opacity="0.3"/>
      <path id="Path_779" data-name="Path 779" d="M629.43,280.221H614.78a5.281,5.281,0,0,1-5.28-5.28h0a5.281,5.281,0,0,1,5.28-5.28H629.43a5.281,5.281,0,0,1,5.28,5.28h0A5.278,5.278,0,0,1,629.43,280.221Z" transform="translate(-592.255 -204.455)" fill-rule="evenodd" fill="url(#linear-gradient-18)"/>
      <g id="Group_52" data-name="Group 52" transform="translate(26.008 68.913)">
        <path id="Path_780" data-name="Path 780" d="M632.931,279.558c0,.635-.477,1.029-1.237,1.029h-.573v.786h-.661V278.53h1.233C632.454,278.526,632.931,278.923,632.931,279.558Zm-.669,0c0-.314-.2-.5-.606-.5h-.535v.987h.535C632.061,280.052,632.262,279.868,632.262,279.558Z" transform="translate(-630.46 -278.53)" fill="#fff"/>
        <path id="Path_781" data-name="Path 781" d="M638.5,280.763h-1.321l-.251.61h-.673l1.267-2.843h.648l1.271,2.843h-.69Zm-.2-.5-.452-1.091-.452,1.091Z" transform="translate(-633.829 -278.53)" fill="#fff"/>
        <path id="Path_782" data-name="Path 782" d="M644.986,280.365v1.008h-.656v-1.016l-1.1-1.827h.7l.761,1.263.761-1.263h.648Z" transform="translate(-637.891 -278.53)" fill="#fff"/>
      </g>
      <path id="Path_783" data-name="Path 783" d="M578.35,290.57l24.278,23.124-18.864-.167s-3.123-.155-4.411-2.688Z" transform="translate(-574.129 -216.623)" fill-rule="evenodd" opacity="0.5" fill="url(#linear-gradient-19)"/>
      <g id="Group_53" data-name="Group 53" transform="translate(9.301 31.227)">
        <path id="Path_784" data-name="Path 784" d="M597.785,222.366l-1.049-19.85a2.277,2.277,0,0,1,2.274-2.4l31.766.059a2.281,2.281,0,0,1,2.274,2.391l-.681,19.792a2.278,2.278,0,0,1-2.274,2.166H600.055A2.279,2.279,0,0,1,597.785,222.366Z" transform="translate(-594.127 -195.216)" fill="#962765" fill-rule="evenodd" opacity="0.3"/>
        <path id="Path_785" data-name="Path 785" d="M591.7,213.83l-1.2-22.7a2.605,2.605,0,0,1,2.6-2.743l36.318.071a2.6,2.6,0,0,1,2.6,2.734l-.778,22.631a2.6,2.6,0,0,1-2.6,2.475H594.305A2.612,2.612,0,0,1,591.7,213.83Z" transform="translate(-590.501 -188.39)" fill-rule="evenodd" fill="url(#radial-gradient-3)"/>
        <path id="Path_786" data-name="Path 786" d="M591.7,214.94l-1.2-22.7a2.605,2.605,0,0,1,2.6-2.743l36.318.071a2.6,2.6,0,0,1,2.6,2.734l-.778,22.631a2.6,2.6,0,0,1-2.6,2.475H594.305A2.615,2.615,0,0,1,591.7,214.94Z" transform="translate(-590.501 -189.036)" fill-rule="evenodd" fill="url(#radial-gradient-4)"/>
        <path id="Path_787" data-name="Path 787" d="M590.79,203.343l41.289-.443-.176,4.49-40.83.431Z" transform="translate(-590.669 -196.834)" fill-rule="evenodd" fill="url(#radial-gradient-5)"/>
        <path id="Path_788" data-name="Path 788" d="M596.07,218.244V221.1l24.29-.138v-3Z" transform="translate(-593.742 -205.597)" fill-rule="evenodd" opacity="0.5" fill="url(#linear-gradient-20)"/>
        <path id="Path_789" data-name="Path 789" d="M663.61,217.617v3.123l8.913-.046-.021-3.324Z" transform="translate(-633.045 -205.254)" fill-rule="evenodd" opacity="0.5" fill="url(#linear-gradient-21)"/>
        <path id="Path_790" data-name="Path 790" d="M667.1,236.71l6.961-.23-.209,3.194-6.752-.222Z" transform="translate(-635.076 -216.375)" fill-rule="evenodd" fill="url(#linear-gradient-22)"/>
        <circle id="Ellipse_21" data-name="Ellipse 21" cx="2.998" cy="2.998" r="2.998" transform="translate(29.027 18.638)" fill="url(#linear-gradient-23)"/>
      </g>
      <path id="Path_791" data-name="Path 791" d="M611.825,181.618l-5.715,1.058,28.3-.121-4.917-.974Z" transform="translate(-590.283 -153.2)" fill="#962765" fill-rule="evenodd" opacity="0.3"/>
      <path id="Path_792" data-name="Path 792" d="M609.61,121l38.459,53.05,2.337-49.262a4.708,4.708,0,0,0-3.395-3.725C645.2,120.581,609.61,121,609.61,121Z" transform="translate(-592.319 -117.849)" fill-rule="evenodd" opacity="0.5" fill="url(#linear-gradient-24)"/>
    </g>
    <path id="Path_793" data-name="Path 793" d="M573.143,243.618a18.567,18.567,0,0,0,7.893-4.82,13.889,13.889,0,0,0,3.671-8.767l-11.727,9.607Z" transform="translate(-36.707 -67.696)" fill="#962765" fill-rule="evenodd" opacity="0.5"/>
    <g id="Group_56" data-name="Group 56" transform="translate(510.173 157.81)">
      <path id="Path_794" data-name="Path 794" d="M548.922,223.714a11.4,11.4,0,0,1-6.05,7.764,38.968,38.968,0,0,1-10.51,2.768l-1.656.589c-.79,2.007-.865,8.4-.865,8.4s.1.28.2.744v0c.322,1.334.782,4.185-.385,6.342-1.58,2.918-7.107,8.642-11.3,7.877-2.776-.506-6.225-4.252-6.836-6.744s1.852-5.861,1.852-5.861c3.524-1.948,8.993-11.848,9.361-13.006a13.342,13.342,0,0,1,1.6-3.788l.159-.159c.727-.61,5.347-2.312,11.426-4.5a44.5,44.5,0,0,0,9.9-4.921C548.738,220.19,548.922,223.714,548.922,223.714Z" transform="translate(-511.061 -219.216)" fill-rule="evenodd" fill="url(#linear-gradient-25)"/>
      <path id="Path_795" data-name="Path 795" d="M542.68,228.629s1.559,3.382,4.415,4.235c0,0,8.734-1.476,13.4-2.835,6.576-1.915,6.61-6.321,6.61-6.321a4.056,4.056,0,0,0-3.1-4.5,60.107,60.107,0,0,1-9.106,4.39C549.44,225.786,544.808,227.321,542.68,228.629Z" transform="translate(-529.248 -219.21)" fill-rule="evenodd" fill="url(#linear-gradient-26)"/>
      <g id="Group_55" data-name="Group 55" transform="translate(25.794)">
        <path id="Path_796" data-name="Path 796" d="M584.318,223.706l0,.008a.19.19,0,0,1-.033.025c-2.429,2.115-6.054,3.922-8.776,3.621a5.745,5.745,0,0,1-1.768-.468c-1.467-.681-1.969-1.9-.966-2.809a1.014,1.014,0,0,1,.125-.1,22.488,22.488,0,0,1,2.646-1.693l.222-.13c.635-.36,1.3-.727,1.94-1.079,1.865-1.012,3.512-1.86,3.512-1.86C585.66,220.223,584.381,223.547,584.318,223.706Z" transform="translate(-572.247 -219.216)" fill-rule="evenodd" fill="url(#linear-gradient-27)"/>
        <path id="Path_797" data-name="Path 797" d="M590.68,219.866s3.228.125,3.871,4.231l.456-.364s1.748-3.357-3.065-4.524Z" transform="translate(-582.974 -219.21)" fill="#ffd8cb" fill-rule="evenodd"/>
        <path id="Path_798" data-name="Path 798" d="M581.74,222.936a28.345,28.345,0,0,1,5.243-2.6A21.389,21.389,0,0,1,581.74,222.936Z" transform="translate(-577.771 -219.868)" fill="#fff" fill-rule="evenodd"/>
        <path id="Path_799" data-name="Path 799" d="M575.505,233.765l-1.768-.468c-1.467-.681-1.969-1.9-.966-2.809a1.014,1.014,0,0,1,.125-.1l.418-.042s2.157-.343,2.9.51S575.505,233.765,575.505,233.765Z" transform="translate(-572.247 -225.65)" fill="#fff" fill-rule="evenodd"/>
        <path id="Path_800" data-name="Path 800" d="M584.281,228c-2.429,2.115-6.054,3.922-8.775,3.621s-4.072-2.065-2.734-3.282a19.884,19.884,0,0,1,2.772-1.794c-1.3.79-2.68,1.781-2.609,2.37.138,1.1,1.125,2.672,4.77,2.216A13.945,13.945,0,0,0,584.281,228Z" transform="translate(-572.247 -223.481)" fill="#e37c69" fill-rule="evenodd"/>
      </g>
      <path id="Path_801" data-name="Path 801" d="M530.046,257.089c.322,1.334.782,4.185-.385,6.342-1.58,2.918-7.107,8.642-11.3,7.877-2.776-.506-6.225-4.252-6.836-6.744s1.852-5.861,1.852-5.861c3.524-1.948,8.993-11.848,9.361-13.006a13.342,13.342,0,0,1,1.6-3.788l.159-.159c.945,3.432,6.213,6.2,6.213,6.2-.79,2.007-.865,8.4-.865,8.4s.092.28.2.748Z" transform="translate(-511.061 -232.326)" fill-rule="evenodd" opacity="0.2" fill="url(#linear-gradient-28)"/>
      <path id="Path_802" data-name="Path 802" d="M556.446,253.383l-2.136.121a5.453,5.453,0,0,1-3.19-1.154s1.054,2.513,2.463,2.513Z" transform="translate(-534.159 -238.495)" fill-rule="evenodd" fill="url(#linear-gradient-29)"/>
      <path id="Path_803" data-name="Path 803" d="M510.915,284.468a7.155,7.155,0,0,0,7.1,2.266c3.9-2.233,4.507-9.035,4.507-9.035s-2.429-3.733-5.757-2.805C516.768,274.894,508.778,280.851,510.915,284.468Z" transform="translate(-510.552 -251.527)" fill-rule="evenodd" fill="url(#linear-gradient-30)"/>
      <circle id="Ellipse_22" data-name="Ellipse 22" cx="0.598" cy="0.598" r="0.598" transform="translate(15.493 12.095)" fill="#ffd8cb"/>
    </g>
    <path id="Path_804" data-name="Path 804" d="M547.6,175.44a13,13,0,0,0,5.841,3.386l1.083-.953A19.073,19.073,0,0,1,547.6,175.44Z" transform="translate(-21.938 -35.929)" fill="#ce5964" fill-rule="evenodd"/>
    <path id="Path_805" data-name="Path 805" d="M718.313,311.46a15.373,15.373,0,0,0,5.6-6.38s-4.406,5.109-7.066,5.715Z" transform="translate(-120.428 -111.37)" fill="#ce5964" fill-rule="evenodd"/>
    <path id="Path_806" data-name="Path 806" d="M703.92,261.965s9.871-4.264,13.253-5.075h-3.361s-2.78,2.421-5.74,2.379l-4.093,1.576Z" transform="translate(-112.904 -83.327)" fill="#ce5964" fill-rule="evenodd"/>
    <path id="Path_807" data-name="Path 807" d="M654.86,283.12a36.745,36.745,0,0,0,5.126,15.561c4.557,7.02,13.784,8.061,13.784,8.061l1.271-11.251Z" transform="translate(-84.355 -98.591)" fill="#962765" fill-rule="evenodd" opacity="0.5"/>
    <g id="Group_58" data-name="Group 58" transform="translate(570.43 179.662)">
      <path id="Path_808" data-name="Path 808" d="M684.584,315.514c-1.1.242-4.557-.7-6.535-2.279s-4.373-14.771-4.829-15.77-5.531-6.915-5.531-6.915a.043.043,0,0,0-.017,0,33.466,33.466,0,0,1-5.627-1.915.013.013,0,0,0-.008,0c-1.9-1.049-5.4-6.367-6.777-10.356v0a8.5,8.5,0,0,1-.573-2.889c.121-3.587,3.156-4.135,4.068-3.83s7.3,7.839,9.5,9.825c2.233,2.019,3.809,3.42,4.419,4.03l.013.013a86.785,86.785,0,0,0,8.734,6.242,3.461,3.461,0,0,0,3.161-.184s3.4,3.282,3.888,10.573S685.675,315.272,684.584,315.514Z" transform="translate(-654.683 -271.477)" fill-rule="evenodd" fill="url(#linear-gradient-31)"/>
      <g id="Group_57" data-name="Group 57" transform="translate(0 0.072)">
        <path id="Path_809" data-name="Path 809" d="M664.969,279.7a3.435,3.435,0,0,1-2.864,1.526,6.507,6.507,0,0,1-3.474-.891,8.41,8.41,0,0,1-3.29-3.357,8.122,8.122,0,0,1-.656-1.488c0-.013,0-.013,0-.013.878-3.9,4.068-3.83,4.068-3.83l.807.819h0l3.9,3.968.28.284a6.422,6.422,0,0,1,1.25,2.036A1.243,1.243,0,0,1,664.969,279.7Z" transform="translate(-654.68 -271.65)" fill-rule="evenodd" fill="url(#linear-gradient-32)"/>
        <path id="Path_810" data-name="Path 810" d="M659.565,272.479c-4.11.247-4.214,4.511-4.214,4.511a8.262,8.262,0,0,1-.661-1.5c.878-3.9,4.068-3.83,4.068-3.83Z" transform="translate(-654.686 -271.656)" fill="#ffd8cb" fill-rule="evenodd"/>
        <path id="Path_811" data-name="Path 811" d="M675.094,288.442a3.435,3.435,0,0,1-2.864,1.526s-.64-2.011.719-2.985a1.453,1.453,0,0,1,2.166.514A1.262,1.262,0,0,1,675.094,288.442Z" transform="translate(-664.806 -280.39)" fill="#fff" fill-rule="evenodd"/>
        <path id="Path_812" data-name="Path 812" d="M664.975,285.05a3.435,3.435,0,0,1-2.864,1.526,6.507,6.507,0,0,1-3.474-.891,8.41,8.41,0,0,1-3.29-3.357,8.123,8.123,0,0,1-.656-1.488c.1.234,1.593,3.583,4.553,4.783,3.065,1.246,5.443-.452,5.5-1.426a5.015,5.015,0,0,0-1.279-2.412l.28.284a6.422,6.422,0,0,1,1.25,2.036A1.243,1.243,0,0,1,664.975,285.05Z" transform="translate(-654.686 -276.998)" fill="#e37c69" fill-rule="evenodd"/>
        <path id="Path_813" data-name="Path 813" d="M667.12,278.03s1.3,1.848,2.249,2.128A4.771,4.771,0,0,0,667.12,278.03Z" transform="translate(-661.919 -275.363)" fill="#fff" fill-rule="evenodd"/>
      </g>
      <path id="Path_814" data-name="Path 814" d="M694.829,334.906c-1.1.242-4.557-.7-6.535-2.279s-4.373-14.771-4.829-15.77-5.531-6.915-5.531-6.915a33.686,33.686,0,0,1-5.644-1.919,16.926,16.926,0,0,0,6.384.982c2.784-.322,4.243-4.206,4.243-4.206l.013.013a100.974,100.974,0,0,0,8.734,6.242,3.461,3.461,0,0,0,3.161-.184s3.4,3.282,3.888,10.573S695.92,334.663,694.829,334.906Z" transform="translate(-664.928 -290.868)" fill-rule="evenodd" opacity="0.2" fill="url(#linear-gradient-33)"/>
      <path id="Path_815" data-name="Path 815" d="M679.5,302.334c-.2.36,1.284,2.55,3.541,2.826s4.524-3.228,4.055-3.675-2.755-2.467-3.976-2.379S680.236,301.013,679.5,302.334Z" transform="translate(-669.116 -287.553)" fill-rule="evenodd" fill="url(#linear-gradient-34)"/>
      <path id="Path_816" data-name="Path 816" d="M691.592,311.866a.606.606,0,1,1-.606-.606A.607.607,0,0,1,691.592,311.866Z" transform="translate(-675.455 -294.627)" fill="#ffd8cb" fill-rule="evenodd"/>
      <path id="Path_817" data-name="Path 817" d="M668.463,299.995a33.469,33.469,0,0,1-5.627-1.915.013.013,0,0,0-.008,0c-1.9-1.049-5.4-6.367-6.777-10.356,0,0,4.662,6.66,6.7,8.667A21.576,21.576,0,0,0,668.463,299.995Z" transform="translate(-655.477 -280.929)" fill-rule="evenodd" opacity="0.3" fill="url(#linear-gradient-35)"/>
      <path id="Path_818" data-name="Path 818" d="M714.994,329.986s2.412,1.86,3.9,2.044,5.193-1,5.347-3.282-5.226-5.075-7.73-4.77S713.873,329.2,714.994,329.986Z" transform="translate(-689.387 -302.015)" fill-rule="evenodd" fill="url(#linear-gradient-36)"/>
      <path id="Path_819" data-name="Path 819" d="M699.02,333.64l4.912,3.625-4.164-.61Z" transform="translate(-680.482 -307.651)" fill="#ce5964" fill-rule="evenodd"/>
    </g>
    <path id="Path_820" data-name="Path 820" d="M713.66,382.821c-.773-5.878-1.137-7.442-1.137-7.442s-4.921-.489-5.8-1.037c0,0,1.409.376,3.014-2.258,0,0,4.277,1.041,10.473-1.024Z" transform="translate(-114.533 -149.765)" fill-rule="evenodd" opacity="0.3" fill="url(#linear-gradient-37)"/>
    <path id="Path_821" data-name="Path 821" d="M718.621,375.395s3.976-3.253,7.684-4.315c0,0-6.748,1.426-9.106,4.156Z" transform="translate(-120.632 -149.776)" fill="#ce5964" fill-rule="evenodd"/>
  </g>
</svg>
