<svg xmlns="http://www.w3.org/2000/svg" width="123.908" height="125.502" viewBox="0 0 123.908 125.502">
  <g id="_3226834" data-name="3226834" transform="translate(-34.58 -33.61)">
    <g id="Background_Complete" transform="translate(53.568 33.61)">
      <g id="Group_82" data-name="Group 82" transform="translate(0.155 69.334)">
        <g id="Group_60" data-name="Group 60">
          <g id="Group_59" data-name="Group 59">
            <path id="Path_822" data-name="Path 822" d="M102.573,274.814s-2.611.69-.414,6.33a70.3,70.3,0,0,0,3.825,8.484s.36,1.294-.708,1.38-3.339-.512-3.934.725c-.618,1.283.221,2.634,2.071,3.932s5.792,4.288,6.149,4.561.664.883-.055,1.061-5.962.2-5.8,2.683,5.9,5.257,6.523,5.571.748.6.661.955-1.852.19-3.345.256-3.21.406-3,1.832,3.448,4.708,11.936,6.411l3.986.532,2.517-3.158c4.973-7.089,5.05-11.7,4.219-12.876s-2.309-.239-3.434.739-2.292,2.312-2.6,2.12-.414-.489-.181-1.148,2.479-6.624.877-8.533-5.413,1.694-6.054,2.059-.84-.3-.771-.731.863-5.329,1.306-7.544.118-3.773-1.214-4.274c-1.283-.483-2.514,1.519-3.348,2.189s-1.464-.512-1.464-.512a70.239,70.239,0,0,0-3.083-8.781c-2.3-5.6-4.72-4.251-4.72-4.251" transform="translate(-101.141 -274.686)" fill="#ebebeb"/>
          </g>
        </g>
        <g id="Group_63" data-name="Group 63" transform="translate(3.388 5.175)">
          <g id="Group_62" data-name="Group 62">
            <g id="Group_61" data-name="Group 61">
              <path id="Path_823" data-name="Path 823" d="M128.971,333.3c-1.671-4.118-4.521-11.484-7-17.8s-4.728-12.022-6.379-16.146c-.825-2.059-1.5-3.724-1.961-4.884-.23-.572-.408-1.021-.532-1.329-.058-.15-.1-.265-.135-.348s-.043-.121-.043-.121.02.037.055.115l.147.342c.129.308.313.751.555,1.32.48,1.148,1.162,2.81,2,4.869,1.671,4.118,3.934,9.825,6.411,16.135s5.315,13.684,6.966,17.808" transform="translate(-112.92 -292.68)" fill="#e0e0e0"/>
            </g>
          </g>
        </g>
        <g id="Group_66" data-name="Group 66" transform="translate(3.344 18.01)">
          <g id="Group_65" data-name="Group 65">
            <g id="Group_64" data-name="Group 64">
              <path id="Path_824" data-name="Path 824" d="M112.769,337.307a1.319,1.319,0,0,1,.27.106c.173.075.417.19.716.336.6.29,1.421.716,2.318,1.2s1.68.915,2.289,1.248c.276.15.509.273.7.374a1.455,1.455,0,0,1,.25.147,1.229,1.229,0,0,1-.273-.1c-.173-.075-.417-.19-.716-.339-.6-.3-1.412-.733-2.309-1.217l-2.3-1.231-.7-.371A1.148,1.148,0,0,1,112.769,337.307Z" transform="translate(-112.769 -337.306)" fill="#e0e0e0"/>
            </g>
          </g>
        </g>
        <g id="Group_69" data-name="Group 69" transform="translate(10.183 13.524)">
          <g id="Group_68" data-name="Group 68">
            <g id="Group_67" data-name="Group 67">
              <path id="Path_825" data-name="Path 825" d="M136.548,329.377c-.032-.014.768-1.743,1.786-3.86s1.867-3.822,1.9-3.808-.768,1.743-1.786,3.86S136.579,329.395,136.548,329.377Z" transform="translate(-136.547 -321.71)" fill="#e0e0e0"/>
            </g>
          </g>
        </g>
        <g id="Group_72" data-name="Group 72" transform="translate(13.551 25.255)">
          <g id="Group_71" data-name="Group 71">
            <g id="Group_70" data-name="Group 70">
              <path id="Path_826" data-name="Path 826" d="M148.259,368.3a1.3,1.3,0,0,1,.187-.23l.538-.6c.454-.506,1.079-1.211,1.74-2.013s1.237-1.544,1.648-2.088c.193-.256.357-.472.489-.641a1.282,1.282,0,0,1,.19-.227,1.349,1.349,0,0,1-.152.256c-.1.161-.259.388-.457.667-.394.558-.958,1.311-1.622,2.117s-1.3,1.5-1.769,1.993c-.236.244-.431.443-.569.575A1.188,1.188,0,0,1,148.259,368.3Z" transform="translate(-148.259 -362.499)" fill="#e0e0e0"/>
            </g>
          </g>
        </g>
        <g id="Group_75" data-name="Group 75" transform="translate(6.733 29.538)">
          <g id="Group_74" data-name="Group 74">
            <g id="Group_73" data-name="Group 73">
              <path id="Path_827" data-name="Path 827" d="M124.55,377.393a1.128,1.128,0,0,1,.273.032c.2.037.446.081.733.132.618.118,1.473.288,2.413.486s1.792.383,2.4.521c.285.069.529.127.725.173a1.089,1.089,0,0,1,.262.081,1.128,1.128,0,0,1-.273-.032c-.2-.037-.446-.081-.733-.132-.618-.118-1.473-.288-2.413-.486s-1.792-.383-2.4-.521c-.285-.069-.529-.127-.725-.173A1.09,1.09,0,0,1,124.55,377.393Z" transform="translate(-124.55 -377.39)" fill="#e0e0e0"/>
            </g>
          </g>
        </g>
        <g id="Group_78" data-name="Group 78" transform="translate(8.599 38.624)">
          <g id="Group_77" data-name="Group 77">
            <g id="Group_76" data-name="Group 76">
              <path id="Path_828" data-name="Path 828" d="M131.04,408.985a2,2,0,0,1,.348.043c.244.043.561.1.94.167.794.147,1.89.357,3.1.6s2.3.466,3.089.633l.935.207a2.057,2.057,0,0,1,.339.092,2,2,0,0,1-.348-.043c-.244-.043-.561-.1-.94-.167-.794-.147-1.89-.357-3.1-.6s-2.3-.466-3.089-.633l-.935-.207A2.056,2.056,0,0,1,131.04,408.985Z" transform="translate(-131.04 -408.982)" fill="#e0e0e0"/>
            </g>
          </g>
        </g>
        <g id="Group_81" data-name="Group 81" transform="translate(17.152 32.742)">
          <g id="Group_80" data-name="Group 80">
            <g id="Group_79" data-name="Group 79">
              <path id="Path_829" data-name="Path 829" d="M160.779,396.054a2.127,2.127,0,0,1,.23-.3c.17-.2.391-.466.656-.785.552-.664,1.314-1.585,2.123-2.623s1.521-2,2.03-2.695c.244-.336.449-.613.6-.825a2.572,2.572,0,0,1,.233-.3,2.342,2.342,0,0,1-.193.322c-.132.2-.325.495-.572.851-.492.713-1.191,1.682-2,2.721s-1.585,1.956-2.154,2.606c-.285.325-.521.584-.687.759A2.213,2.213,0,0,1,160.779,396.054Z" transform="translate(-160.779 -388.53)" fill="#e0e0e0"/>
            </g>
          </g>
        </g>
      </g>
      <g id="Group_96" data-name="Group 96" transform="translate(59.943 74.574)">
        <g id="Group_95" data-name="Group 95">
          <g id="Group_94" data-name="Group 94">
            <g id="Group_93" data-name="Group 93">
              <g id="Group_83" data-name="Group 83">
                <path id="Path_830" data-name="Path 830" d="M329.3,341.448,309.336,308.4a2.171,2.171,0,0,1,.736-2.98l20.193-12.2a2.171,2.171,0,0,1,2.98.736L353.213,327a2.169,2.169,0,0,1-.733,2.977l-20.193,12.2A2.173,2.173,0,0,1,329.3,341.448Z" transform="translate(-309.024 -292.904)" fill="#ebebeb"/>
              </g>
              <g id="Group_84" data-name="Group 84" transform="translate(31.979 28.398)">
                <path id="Path_831" data-name="Path 831" d="M424.712,397.145a2.964,2.964,0,1,1,1-4.07A2.965,2.965,0,0,1,424.712,397.145Z" transform="translate(-420.215 -391.645)" fill="#fff"/>
              </g>
              <g id="Group_85" data-name="Group 85" transform="translate(33.682 31.312)">
                <path id="Path_832" data-name="Path 832" d="M429.249,407.992a3.191,3.191,0,0,1-.751-.092,3.092,3.092,0,1,1,.751.092Zm-.009-5.93a2.82,2.82,0,0,0-2.407,4.28,2.824,2.824,0,0,0,3.874.955h0a2.822,2.822,0,0,0-.782-5.154A2.945,2.945,0,0,0,429.24,402.062Z" transform="translate(-426.136 -401.776)" fill="#fff"/>
              </g>
              <g id="Group_86" data-name="Group 86" transform="translate(7.617 11.023)">
                <path id="Path_833" data-name="Path 833" d="M337.676,331.917l-2.039,1.234-.127-.21,1.855-1.119-.29-.48.187-.112Z" transform="translate(-335.51 -331.23)" fill="#fff"/>
                <path id="Path_834" data-name="Path 834" d="M338.393,338.74l-.187.112-.866-1.432.15-.089,1.343.345a.788.788,0,0,0,.67-.032c.236-.144.282-.4.092-.707a.808.808,0,0,0-.564-.42l.037-.227a1.065,1.065,0,0,1,.728.546c.25.414.2.8-.144,1.009a.978.978,0,0,1-.84.052l-1.1-.282Z" transform="translate(-336.814 -334.835)" fill="#fff"/>
                <path id="Path_835" data-name="Path 835" d="M344.087,346.941l-.247-.408-.535.325-.127-.21.538-.325-.7-1.15.152-.092,2,.265.141.233-1.947-.247.535.886.472-.285.124.2-.472.285.247.408Z" transform="translate(-340.86 -341.097)" fill="#fff"/>
                <path id="Path_836" data-name="Path 836" d="M350.657,357.811l-.247-.408-.535.325-.127-.21.538-.325-.7-1.15.152-.092,2,.265.141.233-1.947-.247.535.886.472-.285.124.2-.472.285.247.408Z" transform="translate(-345.541 -348.84)" fill="#fff"/>
                <path id="Path_837" data-name="Path 837" d="M354.123,363.289c-.348.21-.765.132-1.067-.368a1.219,1.219,0,0,1-.178-.889h.227a1.02,1.02,0,0,0,.144.768c.21.348.489.429.736.279s.328-.42.014-.94l-.262-.434,1.087-.515.676,1.116-.187.112-.564-.932-.693.322.158.262C354.586,362.691,354.485,363.071,354.123,363.289Z" transform="translate(-347.865 -352.573)" fill="#fff"/>
                <path id="Path_838" data-name="Path 838" d="M358.561,370.5a.742.742,0,0,1-1.047-.319c-.328-.541-.129-1.064.515-1.452a1.133,1.133,0,0,1,1.8.848l-.221.017a.883.883,0,0,0-1.418-.673c-.046.029-.1.066-.161.109a.765.765,0,0,1,.728.411A.722.722,0,0,1,358.561,370.5Zm-.132-.2a.524.524,0,0,0,.129-.779.524.524,0,1,0-.874.546A.525.525,0,0,0,358.429,370.3Z" transform="translate(-351.075 -357.777)" fill="#fff"/>
                <path id="Path_839" data-name="Path 839" d="M364.21,379.619c-.342.207-.754.118-1.05-.377a1.229,1.229,0,0,1-.181-.892h.227a1.048,1.048,0,0,0,.147.777c.2.339.475.429.728.276s.3-.417.072-.8l-.089-.147.155-.092,1.05.138-.63-1.044.187-.112.794,1.311-.15.089-1.076-.138A.685.685,0,0,1,364.21,379.619Z" transform="translate(-355.061 -364.086)" fill="#fff"/>
                <path id="Path_840" data-name="Path 840" d="M368.721,387.334a.742.742,0,0,1-1.047-.319c-.328-.541-.129-1.064.515-1.452a1.133,1.133,0,0,1,1.8.848l-.221.017a.883.883,0,0,0-1.418-.673c-.046.029-.1.066-.161.109a.762.762,0,0,1,.728.411A.72.72,0,0,1,368.721,387.334Zm-.129-.2a.524.524,0,0,0,.129-.779.524.524,0,1,0-.874.546A.522.522,0,0,0,368.592,387.13Z" transform="translate(-358.313 -369.767)" fill="#fff"/>
                <path id="Path_841" data-name="Path 841" d="M373.945,392.111l-.15.089-2.407.288-.138-.227,2.361-.282-.636-1.05-.383.23-.124-.207.569-.342Z" transform="translate(-360.971 -373.532)" fill="#fff"/>
                <path id="Path_842" data-name="Path 842" d="M380.075,402.251l-.15.089-2.407.288-.138-.227,2.361-.282-.633-1.05-.383.23-.124-.207.569-.342Z" transform="translate(-365.338 -380.756)" fill="#fff"/>
                <path id="Path_843" data-name="Path 843" d="M382.732,410.671c-.362.219-.771.049-1.064-.44s-.25-.923.109-1.142a.6.6,0,0,1,.739.089.54.54,0,0,1,.256-.592c.334-.2.71-.043.972.388s.227.846-.1,1.047a.539.539,0,0,1-.647-.055A.6.6,0,0,1,382.732,410.671Zm-.127-.219c.25-.152.279-.463.06-.823s-.5-.48-.756-.328-.282.46-.063.823S382.352,410.6,382.605,410.452Zm.227-.923c.193.316.449.42.67.288s.25-.426.063-.731-.443-.42-.673-.282S382.64,409.21,382.833,409.529Z" transform="translate(-368.254 -386.276)" fill="#fff"/>
                <path id="Path_844" data-name="Path 844" d="M387.19,417.294a1.133,1.133,0,0,1-1.8-.846l.219-.017a.843.843,0,0,0,.144.454.833.833,0,0,0,1.274.216c.046-.029.1-.066.161-.109a.762.762,0,0,1-.728-.411.724.724,0,0,1,.2-1.058.742.742,0,0,1,1.047.319C388.033,416.386,387.834,416.906,387.19,417.294Zm.23-.532a.553.553,0,0,0,.112-.8.521.521,0,1,0-.874.549A.551.551,0,0,0,387.42,416.762Z" transform="translate(-371.044 -391.203)" fill="#fff"/>
                <path id="Path_845" data-name="Path 845" d="M394.116,425.337l-2.039,1.234-.127-.21,1.855-1.119-.29-.48.187-.112Z" transform="translate(-375.718 -397.782)" fill="#fff"/>
                <path id="Path_846" data-name="Path 846" d="M394.843,432.16l-.187.112-.866-1.432.15-.089,1.343.345a.788.788,0,0,0,.67-.032c.236-.144.282-.4.092-.707a.808.808,0,0,0-.564-.42l.037-.227a1.074,1.074,0,0,1,.728.546c.25.414.2.8-.144,1.01a.989.989,0,0,1-.84.052l-1.1-.282Z" transform="translate(-377.028 -401.387)" fill="#fff"/>
                <path id="Path_847" data-name="Path 847" d="M399.57,438.139c-.342.207-.754.118-1.05-.377a1.229,1.229,0,0,1-.181-.892h.227a1.048,1.048,0,0,0,.147.777c.2.339.475.429.728.276s.3-.417.072-.8l-.089-.147.155-.092,1.05.138-.63-1.044.187-.112.791,1.311-.15.089-1.076-.138A.683.683,0,0,1,399.57,438.139Z" transform="translate(-380.251 -405.775)" fill="#fff"/>
              </g>
              <g id="Group_87" data-name="Group 87" transform="translate(14.476 28.962)">
                <rect id="Rectangle_40" data-name="Rectangle 40" width="1.035" height="19.1" transform="matrix(0.856, -0.517, 0.517, 0.856, 0, 0.535)" fill="#fff"/>
              </g>
              <g id="Group_88" data-name="Group 88" transform="translate(17.517 37.99)">
                <rect id="Rectangle_41" data-name="Rectangle 41" width="1.035" height="9.796" transform="matrix(0.856, -0.517, 0.517, 0.856, 0, 0.535)" fill="#fff"/>
              </g>
              <g id="Group_89" data-name="Group 89" transform="translate(11.309 6.816)">
                <path id="Path_848" data-name="Path 848" d="M351.219,324.805l-2.669-4.415a1.43,1.43,0,0,1,.483-1.961l2.68-1.619a1.43,1.43,0,0,1,1.961.483l2.666,4.415a1.426,1.426,0,0,1-.483,1.959l-2.68,1.619A1.421,1.421,0,0,1,351.219,324.805Z" transform="translate(-348.344 -316.604)" fill="#e0e0e0"/>
              </g>
              <g id="Group_90" data-name="Group 90" transform="translate(12.196 7.235)">
                <path id="Path_849" data-name="Path 849" d="M351.43,319.348l.328-.2,2.134,3.532a.863.863,0,0,0,1.478-.892l-2.134-3.532.328-.2,2.134,3.532a1.248,1.248,0,0,1-2.137,1.291Z" transform="translate(-351.43 -318.06)" fill="#ebebeb"/>
              </g>
              <g id="Group_91" data-name="Group 91" transform="translate(15.787 12.212)">
                <rect id="Rectangle_42" data-name="Rectangle 42" width="0.385" height="2.833" transform="matrix(0.856, -0.516, 0.516, 0.856, 0, 0.199)" fill="#ebebeb"/>
              </g>
              <g id="Group_92" data-name="Group 92" transform="translate(19.099 4.547)">
                <rect id="Rectangle_43" data-name="Rectangle 43" width="20.61" height="1.769" transform="translate(1.514) rotate(58.861)" fill="#fff"/>
              </g>
            </g>
          </g>
        </g>
      </g>
      <g id="Group_136" data-name="Group 136" transform="translate(0 0)">
        <g id="Group_98" data-name="Group 98">
          <g id="Group_97" data-name="Group 97">
            <path id="Path_850" data-name="Path 850" d="M131.864,33.61c-.219,3.106,0,8.89-1.13,11.792s-2.64,5.89-5.47,7.187c-3.486,1.6-7.581.92-11.3,1.858C108.134,55.914,103.92,61.26,102.123,67s-1.6,11.878-1.383,17.886l29.747,4.127s.155-12.088,2.749-15.387,14.918-6.267,18.988-15.3c3.664-8.131,4.768-21.024,4.768-21.024Z" transform="translate(-100.602 -33.61)" fill="#f5f5f5"/>
          </g>
        </g>
        <g id="Group_99" data-name="Group 99" transform="translate(37.138 5.968)">
          <path id="Path_851" data-name="Path 851" d="M231.119,56.56l-.383-.71a1.1,1.1,0,0,1-.164-.012l-.546-.066-.081.644-.216-.026.25-2.03.759.095c.515.063.8.362.742.8a.637.637,0,0,1-.544.581l.408.756Zm.152-1.334c.04-.325-.152-.538-.558-.587l-.541-.066-.127,1.018.541.066C231,55.706,231.231,55.545,231.272,55.226Z" transform="translate(-229.73 -54.36)" fill="#e0e0e0"/>
          <path id="Path_852" data-name="Path 852" d="M238.488,57.282l-.023.187-1.435-.178.25-2.03,1.392.173-.023.187-1.176-.147-.089.722,1.05.129-.023.184-1.05-.129-.092.754Z" transform="translate(-234.93 -55.001)" fill="#e0e0e0"/>
          <path id="Path_853" data-name="Path 853" d="M243.519,57.285a1.026,1.026,0,0,1,1.194-.9,1,1,0,0,1,.708.388l-.152.121a.8.8,0,0,0-.569-.313.848.848,0,1,0-.21,1.682.794.794,0,0,0,.63-.17l.118.152a.991.991,0,0,1-.782.207A1.037,1.037,0,0,1,243.519,57.285Z" transform="translate(-239.548 -55.796)" fill="#e0e0e0"/>
          <path id="Path_854" data-name="Path 854" d="M252.448,59l-.023.187-1.435-.178.25-2.03,1.392.173-.023.187-1.176-.147-.089.722,1.05.129-.023.184-1.05-.129-.092.754Z" transform="translate(-244.876 -56.226)" fill="#e0e0e0"/>
          <path id="Path_855" data-name="Path 855" d="M257.99,57.81l.216.026-.25,2.03-.216-.026Z" transform="translate(-249.684 -56.818)" fill="#e0e0e0"/>
          <path id="Path_856" data-name="Path 856" d="M262.527,59.082c-.055.431-.4.656-.915.59l-.546-.066-.081.641-.216-.026.25-2.03.759.095C262.3,58.348,262.582,58.647,262.527,59.082Zm-.216-.026c.04-.325-.152-.538-.558-.587l-.541-.066-.127,1.015.541.066C262.035,59.536,262.271,59.375,262.312,59.056Z" transform="translate(-251.843 -57.088)" fill="#e0e0e0"/>
          <path id="Path_857" data-name="Path 857" d="M268.083,59.176l-.713-.089.023-.187,1.642.2-.023.187L268.3,59.2l-.227,1.844-.216-.026Z" transform="translate(-256.545 -57.594)" fill="#e0e0e0"/>
        </g>
        <g id="Group_101" data-name="Group 101" transform="translate(33.382 11.478)">
          <g id="Group_100" data-name="Group 100" transform="translate(0)">
            <path id="Path_858" data-name="Path 858" d="M228.752,75.167c-.006.04-2.715-.293-6.051-.748s-6.037-.857-6.031-.9,2.715.293,6.051.751S228.755,75.127,228.752,75.167Z" transform="translate(-216.67 -73.519)" fill="#e0e0e0"/>
          </g>
        </g>
        <g id="Group_103" data-name="Group 103" transform="translate(33.054 13.899)">
          <g id="Group_102" data-name="Group 102" transform="translate(0)">
            <path id="Path_859" data-name="Path 859" d="M227.612,83.587c-.006.04-2.715-.293-6.051-.748s-6.037-.857-6.031-.9,2.715.293,6.051.751S227.618,83.547,227.612,83.587Z" transform="translate(-215.53 -81.939)" fill="#e0e0e0"/>
          </g>
        </g>
        <g id="Group_105" data-name="Group 105" transform="translate(31.946 16.37)">
          <g id="Group_104" data-name="Group 104">
            <path id="Path_860" data-name="Path 860" d="M223.762,92.177c-.006.04-2.715-.293-6.051-.748s-6.037-.857-6.031-.9,2.715.293,6.051.751S223.768,92.137,223.762,92.177Z" transform="translate(-211.68 -90.529)" fill="#e0e0e0"/>
          </g>
        </g>
        <g id="Group_107" data-name="Group 107" transform="translate(29.93 18.861)">
          <g id="Group_106" data-name="Group 106">
            <path id="Path_861" data-name="Path 861" d="M216.752,100.837c-.006.04-2.715-.293-6.051-.748s-6.037-.857-6.031-.9,2.715.293,6.051.751S216.758,100.8,216.752,100.837Z" transform="translate(-204.67 -99.189)" fill="#e0e0e0"/>
          </g>
        </g>
        <g id="Group_109" data-name="Group 109" transform="translate(26.718 21.346)">
          <g id="Group_108" data-name="Group 108" transform="translate(0 0)">
            <path id="Path_862" data-name="Path 862" d="M205.582,109.48c-.006.04-2.715-.293-6.051-.751s-6.037-.857-6.031-.9,2.715.293,6.051.751S205.588,109.437,205.582,109.48Z" transform="translate(-193.5 -107.829)" fill="#e0e0e0"/>
          </g>
        </g>
        <g id="Group_111" data-name="Group 111" transform="translate(47.929 13.443)">
          <g id="Group_110" data-name="Group 110">
            <path id="Path_863" data-name="Path 863" d="M270.2,80.843a15.087,15.087,0,0,1-2.951-.48,7.632,7.632,0,0,1,1.487.167A7.5,7.5,0,0,1,270.2,80.843Z" transform="translate(-267.25 -80.352)" fill="#e0e0e0"/>
          </g>
        </g>
        <g id="Group_113" data-name="Group 113" transform="translate(47.825 15.603)">
          <g id="Group_112" data-name="Group 112">
            <path id="Path_864" data-name="Path 864" d="M269.841,88.353a15.088,15.088,0,0,1-2.951-.48,15.088,15.088,0,0,1,2.951.48Z" transform="translate(-266.89 -87.862)" fill="#e0e0e0"/>
          </g>
        </g>
        <g id="Group_115" data-name="Group 115" transform="translate(47.091 18.586)">
          <g id="Group_114" data-name="Group 114" transform="translate(0 0)">
            <path id="Path_865" data-name="Path 865" d="M267.29,98.73a7.7,7.7,0,0,1-1.49-.173,8.768,8.768,0,0,1-1.461-.308,6.326,6.326,0,0,1,1.487.161A7.365,7.365,0,0,1,267.29,98.73Z" transform="translate(-264.339 -98.234)" fill="#e0e0e0"/>
          </g>
        </g>
        <g id="Group_117" data-name="Group 117" transform="translate(46.033 21.114)">
          <g id="Group_116" data-name="Group 116">
            <path id="Path_866" data-name="Path 866" d="M263.61,107.52a7.7,7.7,0,0,1-1.49-.173,8.768,8.768,0,0,1-1.461-.308,6.326,6.326,0,0,1,1.487.161A7.3,7.3,0,0,1,263.61,107.52Z" transform="translate(-260.659 -107.024)" fill="#e0e0e0"/>
          </g>
        </g>
        <g id="Group_119" data-name="Group 119" transform="translate(43.758 23.516)">
          <g id="Group_118" data-name="Group 118">
            <path id="Path_867" data-name="Path 867" d="M255.7,115.87a7.7,7.7,0,0,1-1.49-.173,8.77,8.77,0,0,1-1.461-.308,6.327,6.327,0,0,1,1.487.161A7.613,7.613,0,0,1,255.7,115.87Z" transform="translate(-252.749 -115.374)" fill="#e0e0e0"/>
          </g>
        </g>
        <g id="Group_121" data-name="Group 121" transform="translate(17.903 23.463)">
          <g id="Group_120" data-name="Group 120">
            <path id="Path_868" data-name="Path 868" d="M181,117.763c-.006.04-4.072-.5-9.085-1.211s-9.071-1.317-9.065-1.357,4.072.5,9.085,1.211S181.006,117.723,181,117.763Z" transform="translate(-162.85 -115.193)" fill="#e0e0e0"/>
          </g>
        </g>
        <g id="Group_123" data-name="Group 123" transform="translate(14.397 25.474)">
          <g id="Group_122" data-name="Group 122">
            <path id="Path_869" data-name="Path 869" d="M170.217,125.286a.886.886,0,0,1-.2-.017l-.572-.075-2.1-.3c-1.786-.276-4.225-.65-6.92-1.067s-5.145-.823-6.911-1.116c-.871-.15-1.579-.273-2.091-.36-.247-.046-.437-.081-.567-.109a.962.962,0,0,1-.2-.052,1.028,1.028,0,0,1,.2.02c.147.02.334.046.569.081.512.078,1.225.184,2.1.313l6.92,1.073c2.692.431,5.128.823,6.911,1.11l2.094.354.567.1A.8.8,0,0,1,170.217,125.286Z" transform="translate(-150.66 -122.184)" fill="#e0e0e0"/>
          </g>
        </g>
        <g id="Group_125" data-name="Group 125" transform="translate(10.969 27.933)">
          <g id="Group_124" data-name="Group 124">
            <path id="Path_870" data-name="Path 870" d="M157.929,133.7a3.377,3.377,0,0,1-.748-.066c-.489-.063-1.194-.161-2.062-.285-1.74-.253-4.141-.615-6.79-1.033s-5.05-.8-6.785-1.087l-2.053-.348c-.23-.043-.414-.075-.558-.1a1.025,1.025,0,0,1-.193-.046.858.858,0,0,1,.2.017l.561.075,2.059.3,6.79,1.044c2.64.42,5.033.8,6.785,1.076C156.718,133.5,157.561,133.642,157.929,133.7Z" transform="translate(-138.74 -130.732)" fill="#e0e0e0"/>
          </g>
        </g>
        <g id="Group_127" data-name="Group 127" transform="translate(39.956 26.935)">
          <g id="Group_126" data-name="Group 126">
            <path id="Path_871" data-name="Path 871" d="M242.48,127.76a7.7,7.7,0,0,1-1.49-.173,8.77,8.77,0,0,1-1.461-.308,6.326,6.326,0,0,1,1.487.161A7.24,7.24,0,0,1,242.48,127.76Z" transform="translate(-239.529 -127.264)" fill="#e0e0e0"/>
          </g>
        </g>
        <g id="Group_129" data-name="Group 129" transform="translate(37.025 28.566)">
          <g id="Group_128" data-name="Group 128">
            <path id="Path_872" data-name="Path 872" d="M232.29,133.43a7.7,7.7,0,0,1-1.49-.173,8.77,8.77,0,0,1-1.461-.308,6.326,6.326,0,0,1,1.487.161A7.239,7.239,0,0,1,232.29,133.43Z" transform="translate(-229.339 -132.934)" fill="#e0e0e0"/>
          </g>
        </g>
        <g id="Group_131" data-name="Group 131" transform="translate(33.079 31.312)">
          <g id="Group_130" data-name="Group 130" transform="translate(0)">
            <path id="Path_873" data-name="Path 873" d="M218.57,142.98a7.7,7.7,0,0,1-1.49-.173,8.77,8.77,0,0,1-1.461-.308,6.327,6.327,0,0,1,1.487.161A7.482,7.482,0,0,1,218.57,142.98Z" transform="translate(-215.619 -142.484)" fill="#e0e0e0"/>
          </g>
        </g>
        <g id="Group_133" data-name="Group 133" transform="translate(6.056 32.693)">
          <g id="Group_132" data-name="Group 132">
            <path id="Path_874" data-name="Path 874" d="M144.093,150.737c-.006.04-5.033-.7-11.228-1.651s-11.214-1.76-11.205-1.8,5.033.7,11.228,1.651S144.1,150.7,144.093,150.737Z" transform="translate(-121.66 -147.285)" fill="#e0e0e0"/>
          </g>
        </g>
        <g id="Group_135" data-name="Group 135" transform="translate(18.141 40.398)">
          <g id="Group_134" data-name="Group 134">
            <path id="Path_875" data-name="Path 875" d="M171.017,175.267c-.006.04-1.654-.193-3.681-.521s-3.664-.627-3.655-.667,1.654.193,3.681.521S171.022,175.223,171.017,175.267Z" transform="translate(-163.68 -174.074)" fill="#e0e0e0"/>
          </g>
        </g>
      </g>
    </g>
    <g id="Floor" transform="translate(34.58 157.245)">
      <g id="Group_138" data-name="Group 138" transform="translate(0)">
        <g id="Group_137" data-name="Group 137">
          <path id="Path_876" data-name="Path 876" d="M158.488,463.565c0,.04-27.739.075-61.95.075s-61.958-.035-61.958-.075,27.734-.075,61.958-.075S158.488,463.525,158.488,463.565Z" transform="translate(-34.58 -463.49)" fill="#263238"/>
        </g>
      </g>
    </g>
    <g id="Character" transform="translate(35.303 54.533)">
      <g id="Group_295" data-name="Group 295" transform="translate(0)">
        <g id="Group_161" data-name="Group 161" transform="translate(25.986)">
          <g id="Group_139" data-name="Group 139" transform="translate(0 5.223)">
            <path id="Path_877" data-name="Path 877" d="M131.488,124.52l.023,1.153s.469,8.919.44,10.256-4.5,8.988-4.5,8.988l2.732,4.475,6.56-11.795-1.573-12.652-.037-.313" transform="translate(-127.45 -124.52)" fill="#ffbe9d"/>
          </g>
          <g id="Group_160" data-name="Group 160" transform="translate(2.605)">
            <g id="Group_159" data-name="Group 159">
              <g id="Group_140" data-name="Group 140" transform="translate(0.4 0.595)">
                <path id="Path_878" data-name="Path 878" d="M142.263,111.68c-.023-.095-.9-3.25-.9-3.25l-3.466,2a23.734,23.734,0,0,0,1.033,2.629l.6.618s3-.316,3.063-.348A13.368,13.368,0,0,0,142.263,111.68Z" transform="translate(-137.9 -108.43)" fill="#ffbe9d"/>
              </g>
              <g id="Group_154" data-name="Group 154">
                <g id="Group_151" data-name="Group 151">
                  <g id="Group_141" data-name="Group 141" transform="translate(3.08 0.397)">
                    <path id="Path_879" data-name="Path 879" d="M148.124,108.172a.167.167,0,0,1,.035.069c.132.351.515,1.936.339,2.053-.2.132-.768.147-.857-.052s-.423-2.007-.423-2.007-.035-.29.42-.477C147.917,107.64,148.124,108.172,148.124,108.172Z" transform="translate(-147.218 -107.741)" fill="#ffbe9d"/>
                  </g>
                  <g id="Group_142" data-name="Group 142" transform="translate(1.987 0.074)">
                    <path id="Path_880" data-name="Path 880" d="M144.324,107.05a.167.167,0,0,1,.035.069c.132.351.515,1.936.339,2.053-.2.132-.768.147-.857-.052s-.423-2.007-.423-2.007-.035-.29.42-.477C144.117,106.515,144.324,107.05,144.324,107.05Z" transform="translate(-143.418 -106.618)" fill="#ffbe9d"/>
                  </g>
                  <g id="Group_143" data-name="Group 143" transform="translate(0.989 0.029)">
                    <path id="Path_881" data-name="Path 881" d="M140.854,106.892a.166.166,0,0,1,.035.069c.132.351.515,1.936.339,2.053-.2.132-.768.147-.857-.052s-.423-2.007-.423-2.007-.035-.29.42-.477C140.647,106.36,140.854,106.892,140.854,106.892Z" transform="translate(-139.948 -106.461)" fill="#ffbe9d"/>
                  </g>
                  <g id="Group_144" data-name="Group 144">
                    <path id="Path_882" data-name="Path 882" d="M137.414,106.792a.166.166,0,0,1,.035.069c.132.351.515,1.936.339,2.053-.2.132-.768.147-.857-.052s-.423-2.007-.423-2.007-.035-.29.42-.477C137.207,106.26,137.414,106.792,137.414,106.792Z" transform="translate(-136.508 -106.361)" fill="#ffbe9d"/>
                  </g>
                  <g id="Group_146" data-name="Group 146" transform="translate(3.026 0.897)">
                    <g id="Group_145" data-name="Group 145">
                      <path id="Path_883" data-name="Path 883" d="M147.379,111.021a3.258,3.258,0,0,0-.124-.788,2.9,2.9,0,0,0-.221-.754,3.256,3.256,0,0,0,.124.788A3.19,3.19,0,0,0,147.379,111.021Z" transform="translate(-147.028 -109.479)" fill="#eb996e"/>
                    </g>
                  </g>
                  <g id="Group_148" data-name="Group 148" transform="translate(1.957 0.474)">
                    <g id="Group_147" data-name="Group 147">
                      <path id="Path_884" data-name="Path 884" d="M143.8,110.219a6.049,6.049,0,0,0-.193-1.116,6.257,6.257,0,0,0-.293-1.093,6.048,6.048,0,0,0,.193,1.116A6.571,6.571,0,0,0,143.8,110.219Z" transform="translate(-143.311 -108.01)" fill="#eb996e"/>
                    </g>
                  </g>
                  <g id="Group_150" data-name="Group 150" transform="translate(0.993 0.641)" opacity="0.78">
                    <g id="Group_149" data-name="Group 149">
                      <path id="Path_885" data-name="Path 885" d="M140.452,110.8a6.049,6.049,0,0,0-.193-1.116,6.254,6.254,0,0,0-.293-1.093,6.05,6.05,0,0,0,.193,1.116A5.966,5.966,0,0,0,140.452,110.8Z" transform="translate(-139.961 -108.59)" fill="#eb996e"/>
                    </g>
                  </g>
                </g>
                <g id="Group_153" data-name="Group 153" transform="translate(0.297 1.492)">
                  <g id="Group_152" data-name="Group 152">
                    <path id="Path_886" data-name="Path 886" d="M139.476,114.964l-1.047-.846a2.292,2.292,0,0,1-.831-1.487l-.058-.446,3.146-.636s.014,1.176-.892,1.191l1.113.564Z" transform="translate(-137.54 -111.55)" fill="#ffbe9d"/>
                  </g>
                </g>
              </g>
              <g id="Group_156" data-name="Group 156" transform="translate(0.305 1.403)">
                <g id="Group_155" data-name="Group 155">
                  <path id="Path_887" data-name="Path 887" d="M140.794,113.319c-.014.009-.083-.129-.273-.3a1.455,1.455,0,0,0-.963-.388l-.336,0,.316-.118c.227-.083.472-.175.733-.27l-.014.006a.878.878,0,0,0,.457-.814.431.431,0,0,0-.014-.075l.089.049c-.883.219-1.682.4-2.266.5-.293.052-.529.083-.693.1a.815.815,0,0,1-.259.012,9.143,9.143,0,0,1,.932-.219c.578-.127,1.369-.325,2.252-.544l.069-.017.02.066a.439.439,0,0,1,.02.1.861.861,0,0,1-.135.575,1.236,1.236,0,0,1-.394.38l-.006.006-.009,0c-.262.089-.509.175-.739.256l-.02-.121a1.457,1.457,0,0,1,1.009.463A.732.732,0,0,1,140.794,113.319Z" transform="translate(-137.57 -111.24)" fill="#eb996e"/>
                </g>
              </g>
              <g id="Group_158" data-name="Group 158" transform="translate(3.333 0.655)">
                <g id="Group_157" data-name="Group 157">
                  <path id="Path_888" data-name="Path 888" d="M148.1,110c.026-.014.078.141.239.288a.28.28,0,0,0,.316.046.414.414,0,0,0,.141-.391c-.037-.357-.058-.69-.089-.92a1.756,1.756,0,0,1-.049-.385c.017-.006.089.127.152.362a6.612,6.612,0,0,1,.135.935.53.53,0,0,1-.219.518.383.383,0,0,1-.457-.086.653.653,0,0,1-.15-.259C148.1,110.046,148.092,110.009,148.1,110Z" transform="translate(-148.097 -108.639)" fill="#eb996e"/>
                </g>
              </g>
            </g>
          </g>
        </g>
        <g id="Group_213" data-name="Group 213" transform="translate(12.669 11.941)">
          <g id="Group_162" data-name="Group 162" transform="translate(5.9 0.509)">
            <path id="Path_889" data-name="Path 889" d="M104.269,149.652a2.686,2.686,0,0,1,2,.978c.529.558.938,1.219,1.484,1.757a4.973,4.973,0,0,1,1.15,1.26c.394.823.063,1.884.561,2.646.279.431.774.682,1.064,1.107a2.694,2.694,0,0,1,.253,1.867,2.194,2.194,0,0,1-.449,1.237,2.128,2.128,0,0,1-.906.5,12.958,12.958,0,0,1-7.771.167" transform="translate(-101.66 -149.649)" fill="#263238"/>
          </g>
          <g id="Group_202" data-name="Group 202" transform="translate(3.206 1.196)">
            <g id="Group_163" data-name="Group 163">
              <path id="Path_890" data-name="Path 890" d="M92.323,156.483a3.952,3.952,0,0,1,3.552-4.426,4.033,4.033,0,0,1,4.3,3.463,41.406,41.406,0,0,1,.506,4.36,3.22,3.22,0,0,1-1.694,3.054,2.554,2.554,0,0,1-.535.132h0c-.009,0-.012.009-.012.014l.452,2.33a2.62,2.62,0,0,1-2.171,3.109,2.689,2.689,0,0,1-2.957-2.476Z" transform="translate(-92.292 -152.04)" fill="#ffbe9d"/>
            </g>
            <g id="Group_169" data-name="Group 169" transform="translate(6.266 4.41)">
              <g id="Group_168" data-name="Group 168">
                <g id="Group_167" data-name="Group 167">
                  <g id="Group_166" data-name="Group 166">
                    <g id="Group_165" data-name="Group 165">
                      <g id="Group_164" data-name="Group 164">
                        <path id="Path_891" data-name="Path 891" d="M115.342,167.627c-.035.046-.3-.095-.644-.046s-.569.259-.613.221c-.02-.017.009-.1.106-.193a.906.906,0,0,1,.483-.23.855.855,0,0,1,.521.089C115.313,167.535,115.359,167.6,115.342,167.627Z" transform="translate(-114.079 -167.372)" fill="#263238"/>
                      </g>
                    </g>
                  </g>
                </g>
              </g>
            </g>
            <g id="Group_175" data-name="Group 175" transform="translate(3.212 5.071)">
              <g id="Group_174" data-name="Group 174">
                <g id="Group_173" data-name="Group 173">
                  <g id="Group_172" data-name="Group 172">
                    <g id="Group_171" data-name="Group 171">
                      <g id="Group_170" data-name="Group 170">
                        <path id="Path_892" data-name="Path 892" d="M104.722,169.927c-.035.046-.3-.095-.644-.046s-.569.259-.613.221c-.02-.017.009-.1.106-.193a.906.906,0,0,1,.483-.23.855.855,0,0,1,.521.089C104.69,169.835,104.739,169.9,104.722,169.927Z" transform="translate(-103.459 -169.672)" fill="#263238"/>
                      </g>
                    </g>
                  </g>
                </g>
              </g>
            </g>
            <g id="Group_180" data-name="Group 180" transform="translate(5.085 4.112)">
              <g id="Group_179" data-name="Group 179">
                <g id="Group_178" data-name="Group 178">
                  <g id="Group_177" data-name="Group 177">
                    <g id="Group_176" data-name="Group 176">
                      <path id="Path_893" data-name="Path 893" d="M110.549,169.175a2.27,2.27,0,0,1,.544-.181c.086-.023.167-.052.173-.112a.448.448,0,0,0-.1-.25c-.112-.2-.233-.411-.357-.63a11.516,11.516,0,0,1-.837-1.662,11.721,11.721,0,0,1,.969,1.59c.121.221.236.434.345.636a.5.5,0,0,1,.095.337.223.223,0,0,1-.127.15.585.585,0,0,1-.147.043A2.279,2.279,0,0,1,110.549,169.175Z" transform="translate(-109.971 -166.339)" fill="#263238"/>
                    </g>
                  </g>
                </g>
              </g>
            </g>
            <g id="Group_184" data-name="Group 184" transform="translate(3.028 10.575)">
              <g id="Group_183" data-name="Group 183">
                <g id="Group_182" data-name="Group 182">
                  <g id="Group_181" data-name="Group 181">
                    <path id="Path_894" data-name="Path 894" d="M105.935,189.264a5.526,5.526,0,0,1-3.115-.454s.779,1.677,3.236,1.081Z" transform="translate(-102.82 -188.81)" fill="#eb996e"/>
                  </g>
                </g>
              </g>
            </g>
            <g id="Group_188" data-name="Group 188" transform="translate(4.639 7.627)">
              <g id="Group_187" data-name="Group 187">
                <g id="Group_186" data-name="Group 186">
                  <g id="Group_185" data-name="Group 185">
                    <path id="Path_895" data-name="Path 895" d="M109.419,178.729a.623.623,0,0,0-.59-.15.567.567,0,0,0-.36.267.367.367,0,0,0,.032.414.419.419,0,0,0,.466.049,1.318,1.318,0,0,0,.4-.325.406.406,0,0,0,.083-.115.112.112,0,0,0-.02-.127" transform="translate(-108.421 -178.559)" fill="#eb996e"/>
                  </g>
                </g>
              </g>
            </g>
            <g id="Group_193" data-name="Group 193" transform="translate(4.653 7.334)">
              <g id="Group_192" data-name="Group 192">
                <g id="Group_191" data-name="Group 191">
                  <g id="Group_190" data-name="Group 190">
                    <g id="Group_189" data-name="Group 189">
                      <path id="Path_896" data-name="Path 896" d="M108.5,177.539c.055-.012.109.362.469.578s.748.118.759.17c.009.023-.078.086-.244.115a.947.947,0,0,1-.63-.121.82.82,0,0,1-.368-.489C108.45,177.64,108.479,177.542,108.5,177.539Z" transform="translate(-108.47 -177.539)" fill="#263238"/>
                    </g>
                  </g>
                </g>
              </g>
            </g>
            <g id="Group_197" data-name="Group 197" transform="translate(2.694 4.033)">
              <g id="Group_196" data-name="Group 196">
                <g id="Group_195" data-name="Group 195">
                  <g id="Group_194" data-name="Group 194">
                    <path id="Path_897" data-name="Path 897" d="M103.2,166.237c-.02.1-.371.1-.765.21s-.7.265-.771.19c-.029-.037.014-.132.132-.242a1.378,1.378,0,0,1,1.171-.3C103.127,166.128,103.21,166.191,103.2,166.237Z" transform="translate(-101.66 -166.062)" fill="#263238"/>
                  </g>
                </g>
              </g>
            </g>
            <g id="Group_201" data-name="Group 201" transform="translate(6.005 3.327)">
              <g id="Group_200" data-name="Group 200">
                <g id="Group_199" data-name="Group 199">
                  <g id="Group_198" data-name="Group 198">
                    <path id="Path_898" data-name="Path 898" d="M114.35,163.888c-.049.086-.3.04-.584.078s-.518.129-.584.055c-.029-.037,0-.121.092-.21a.853.853,0,0,1,.94-.106C114.324,163.77,114.37,163.845,114.35,163.888Z" transform="translate(-113.171 -163.609)" fill="#263238"/>
                  </g>
                </g>
              </g>
            </g>
          </g>
          <g id="Group_203" data-name="Group 203" transform="translate(4.404)">
            <path id="Path_899" data-name="Path 899" d="M103.535,152.1c-.42.641-1.752.244-2.557-.2a1.912,1.912,0,0,1-2.611-.541,1.057,1.057,0,0,1-1.737-.267,2.083,2.083,0,0,1,.319-2.148,3,3,0,0,1,1.829-1,4.241,4.241,0,0,1,4.311,1.777,2.826,2.826,0,0,1,.446,2.37" transform="translate(-96.455 -147.879)" fill="#263238"/>
          </g>
          <g id="Group_204" data-name="Group 204" transform="translate(0 0.985)">
            <path id="Path_900" data-name="Path 900" d="M86.162,151.341a2.974,2.974,0,0,0-3.118,2.292c-.262,1.869-.009,2.1-.351,3-.221.581-.989,1.179-1.291,1.777a3.641,3.641,0,0,0-.1,2.422c.19.578.969,2.194.969,2.194a21.636,21.636,0,0,0,3.394-.368,1.885,1.885,0,0,0,.811-.38c.219-.2-.233-.883-.19-1.173.118-.828.739-1.306.561-2.125-.236-1.084-1.09-1.142-1.07-2.252.009-.59.889-1.435.969-2.019s.414-2.611-.587-3.365" transform="translate(-81.144 -151.305)" fill="#263238"/>
          </g>
          <g id="Group_206" data-name="Group 206" transform="translate(1.039 3.089)">
            <g id="Group_205" data-name="Group 205">
              <path id="Path_901" data-name="Path 901" d="M86.182,168.3c.009-.009-.109-.127-.3-.357a4.89,4.89,0,0,1-.667-1.061,3.571,3.571,0,0,1-.328-1.8,2.866,2.866,0,0,1,.992-1.956c.311-.253.667-.443.969-.7a1.907,1.907,0,0,0,.63-.938,5.831,5.831,0,0,0,.187-1,4.376,4.376,0,0,1,.173-.848,1.466,1.466,0,0,1,.768-.923,1.239,1.239,0,0,1,.446-.092.335.335,0,0,0-.121-.017.9.9,0,0,0-.345.063,1.5,1.5,0,0,0-.837.94,4.59,4.59,0,0,0-.193.863,5.957,5.957,0,0,1-.193.975,1.761,1.761,0,0,1-.6.874c-.29.242-.644.429-.969.693a2.949,2.949,0,0,0-1.03,2.045,3.58,3.58,0,0,0,.362,1.852,4.4,4.4,0,0,0,.713,1.055,3.343,3.343,0,0,0,.244.247C86.147,168.282,86.179,168.308,86.182,168.3Z" transform="translate(-84.758 -158.619)" fill="#455a64"/>
            </g>
          </g>
          <g id="Group_208" data-name="Group 208" transform="translate(10.962 3.163)">
            <g id="Group_207" data-name="Group 207">
              <path id="Path_902" data-name="Path 902" d="M121.736,167.513s.023-.026.058-.081a2.028,2.028,0,0,0,.127-.253,2.637,2.637,0,0,0,.2-1.018,2.73,2.73,0,0,0-.423-1.478,6.453,6.453,0,0,0-.567-.71,1.913,1.913,0,0,1-.449-.811,12.355,12.355,0,0,1,.029-1.852,3.09,3.09,0,0,0-.414-1.481,2.488,2.488,0,0,0-.7-.762,1.929,1.929,0,0,0-.242-.147.464.464,0,0,0-.089-.04c-.006.012.112.078.3.227a2.664,2.664,0,0,1,.653.768,3.081,3.081,0,0,1,.374,1.438,6.47,6.47,0,0,1-.055.892,3,3,0,0,0,.017.986,2.029,2.029,0,0,0,.48.866,6.558,6.558,0,0,1,.564.693,2.74,2.74,0,0,1,.431,1.412,2.833,2.833,0,0,1-.15,1C121.79,167.389,121.724,167.507,121.736,167.513Z" transform="translate(-119.259 -158.879)" fill="#455a64"/>
            </g>
          </g>
          <g id="Group_210" data-name="Group 210" transform="translate(7.051 0.231)">
            <g id="Group_209" data-name="Group 209">
              <path id="Path_903" data-name="Path 903" d="M105.66,148.75a6.994,6.994,0,0,1,.972.055,3.551,3.551,0,0,1,2.016,1.084,4.413,4.413,0,0,1,.969,2.1,5.562,5.562,0,0,1,.049.972.87.87,0,0,0,.055-.262,3.111,3.111,0,0,0-.012-.725,4.231,4.231,0,0,0-.961-2.174,3.485,3.485,0,0,0-2.1-1.09,2.96,2.96,0,0,0-.725-.012A.909.909,0,0,0,105.66,148.75Z" transform="translate(-105.66 -148.681)" fill="#455a64"/>
            </g>
          </g>
          <g id="Group_212" data-name="Group 212" transform="translate(5.187 0.426)">
            <g id="Group_211" data-name="Group 211">
              <path id="Path_904" data-name="Path 904" d="M103.211,152.217a.6.6,0,0,0,.032-.227,2.294,2.294,0,0,0-.066-.627,2.576,2.576,0,0,0-3.236-1.9,2.166,2.166,0,0,0-.578.247.624.624,0,0,0-.184.138,4.743,4.743,0,0,1,.788-.293,2.571,2.571,0,0,1,3.12,1.838A4.956,4.956,0,0,1,103.211,152.217Z" transform="translate(-99.179 -149.362)" fill="#455a64"/>
            </g>
          </g>
        </g>
        <g id="Group_229" data-name="Group 229" transform="translate(10.793 19.295)">
          <g id="Group_224" data-name="Group 224">
            <g id="Group_215" data-name="Group 215">
              <g id="Group_214" data-name="Group 214">
                <path id="Path_905" data-name="Path 905" d="M79.206,192.09a11.144,11.144,0,0,1,.938,3.342,37.012,37.012,0,0,1-1.084,4.559l12.163,1.139.058-2.813-.365-11.57L97.7,176.43l-5.134-2.98-4.987,6.762-1.263-.489-5.456.693v.963l-.155.02a11.187,11.187,0,0,0-3.4,1.332A5.692,5.692,0,0,0,74.7,188.5a8.725,8.725,0,0,0,1.481,4.024C77.76,194.379,79.206,192.09,79.206,192.09Z" transform="translate(-74.623 -173.45)" fill="navy"/>
              </g>
            </g>
            <g id="Group_216" data-name="Group 216" transform="translate(2.383 8.157)">
              <path id="Path_906" data-name="Path 906" d="M83.383,206.893a23.428,23.428,0,0,1-.443-3.785,10.49,10.49,0,0,1,2.81-1.288l.561,3.883Z" transform="translate(-82.908 -201.812)" fill="#fafafa"/>
            </g>
            <g id="Group_217" data-name="Group 217" transform="translate(12.933 13.434)">
              <path id="Path_907" data-name="Path 907" d="M119.88,220.16l-.29,6.773h2.557V220.16Z" transform="translate(-119.59 -220.16)" fill="#fafafa"/>
            </g>
            <g id="Group_219" data-name="Group 219" transform="translate(8.627 16.773)">
              <g id="Group_218" data-name="Group 218">
                <path id="Path_908" data-name="Path 908" d="M104.985,231.819a.974.974,0,0,1,.144-.012c.115,0,.262-.006.44-.012l1.682-.026h.049v.049c.014,1.628.026,4.055.026,6.773v.075H107.1l-2.41,0h-.075l0-.075c.1-1.953.181-3.647.242-4.875.035-.584.06-1.058.081-1.4.012-.15.017-.273.026-.371a.486.486,0,0,1,.014-.121,1.129,1.129,0,0,1,0,.141c0,.1,0,.23-.006.385-.009.351-.023.828-.04,1.421-.043,1.217-.1,2.9-.175,4.832l-.072-.075c.756,0,1.57,0,2.41,0h.147l-.075.075c0-2.718.012-5.148.026-6.773l.049.049-1.654-.026c-.184-.006-.334-.009-.452-.012S104.988,231.822,104.985,231.819Z" transform="translate(-104.62 -231.77)" fill="#fafafa"/>
              </g>
            </g>
            <g id="Group_220" data-name="Group 220" transform="translate(16.157 4.078)">
              <path id="Path_909" data-name="Path 909" d="M133.5,192.792l-2.7-1.7,2.37-3.46,2.764,1.6Z" transform="translate(-130.8 -187.63)" fill="#fafafa"/>
            </g>
            <g id="Group_221" data-name="Group 221" transform="translate(8.239 9.451)" opacity="0.4">
              <rect id="Rectangle_44" data-name="Rectangle 44" width="7.918" height="2.568" fill="#fff"/>
            </g>
            <g id="Group_223" data-name="Group 223" transform="translate(15.495 10.526)">
              <g id="Group_222" data-name="Group 222">
                <path id="Path_910" data-name="Path 910" d="M129.046,215.96a.661.661,0,0,1,.014-.239c.02-.15.043-.368.069-.638a11.916,11.916,0,0,0,0-2.111,12.047,12.047,0,0,0-.385-2.076c-.147-.521-.265-.837-.242-.846a.81.81,0,0,1,.112.21,6.352,6.352,0,0,1,.23.6,9.478,9.478,0,0,1,.388,4.231,6.435,6.435,0,0,1-.115.638A.785.785,0,0,1,129.046,215.96Z" transform="translate(-128.5 -210.05)" fill="#263238"/>
              </g>
            </g>
          </g>
          <g id="Group_226" data-name="Group 226" transform="translate(16.151 1.124)">
            <g id="Group_225" data-name="Group 225">
              <path id="Path_911" data-name="Path 911" d="M134.509,177.359a3.779,3.779,0,0,1-.463.6c-.3.354-.722.837-1.2,1.363-.178.2-.348.385-.509.561l-.043.046-.052-.035c-.434-.3-.805-.552-1.067-.742a2.144,2.144,0,0,1-.4-.319,2.1,2.1,0,0,1,.449.244c.273.167.656.411,1.1.7l-.092.012c.158-.178.328-.368.5-.564.472-.526.909-1,1.228-1.334A4.163,4.163,0,0,1,134.509,177.359Z" transform="translate(-130.779 -177.358)" fill="#fafafa"/>
            </g>
          </g>
          <g id="Group_228" data-name="Group 228" transform="translate(17.402 0.726)">
            <g id="Group_227" data-name="Group 227">
              <path id="Path_912" data-name="Path 912" d="M140.4,178.821a5.132,5.132,0,0,1-.8-.371c-.483-.244-1.148-.592-1.875-.986s-1.383-.756-1.855-1.024a5.394,5.394,0,0,1-.748-.463,5.132,5.132,0,0,1,.8.371c.483.244,1.148.592,1.875.986s1.383.756,1.855,1.024A5.175,5.175,0,0,1,140.4,178.821Z" transform="translate(-135.129 -175.975)" fill="#263238"/>
            </g>
          </g>
        </g>
        <g id="Group_248" data-name="Group 248" transform="translate(2.359 93.402)">
          <g id="Group_246" data-name="Group 246" transform="translate(0 0)">
            <g id="Group_230" data-name="Group 230">
              <path id="Path_913" data-name="Path 913" d="M49.05,431.12l-1.3,5.893-2.376,4.363a.617.617,0,0,0,.285.857h0a.617.617,0,0,0,.567-.026c1.1-.638,5.157-3.008,5.229-3.443.083-.506,1.789-6.126,1.789-6.126Z" transform="translate(-45.296 -431.12)" fill="#f58634"/>
            </g>
            <g id="Group_231" data-name="Group 231" transform="translate(0.361 7.248)" opacity="0.6">
              <path id="Path_914" data-name="Path 914" d="M46.55,460.185l5.893-3.865-.06.247a.92.92,0,0,1-.36.535c-.48.345-1.823,1.274-4.889,3.063a.618.618,0,0,1-.584.02Z" transform="translate(-46.55 -456.32)" fill="#fff"/>
            </g>
            <g id="Group_233" data-name="Group 233" transform="translate(5.283 5.039)" opacity="0.6">
              <g id="Group_232" data-name="Group 232">
                <path id="Path_915" data-name="Path 915" d="M63.9,448.664a.375.375,0,0,0-.216.452.359.359,0,0,0,.443.219.4.4,0,0,0,.227-.477.37.37,0,0,0-.486-.175" transform="translate(-63.664 -448.641)" fill="#fff"/>
              </g>
            </g>
            <g id="Group_235" data-name="Group 235" transform="translate(1.281 7.974)">
              <g id="Group_234" data-name="Group 234">
                <path id="Path_916" data-name="Path 916" d="M50.8,459.753a1.91,1.91,0,0,0-.4-.581,1.875,1.875,0,0,0-.644-.293c0-.014.083-.043.224-.029a.976.976,0,0,1,.5.221.96.96,0,0,1,.3.457C50.825,459.661,50.814,459.75,50.8,459.753Z" transform="translate(-49.75 -458.846)" fill="#263238"/>
              </g>
            </g>
            <g id="Group_237" data-name="Group 237" transform="translate(0.706 8.936)">
              <g id="Group_236" data-name="Group 236">
                <path id="Path_917" data-name="Path 917" d="M48.762,462.816c-.035.017-.175-.219-.457-.38a4.788,4.788,0,0,0-.555-.213.683.683,0,0,1,.621.1C48.693,462.509,48.8,462.808,48.762,462.816Z" transform="translate(-47.749 -462.189)" fill="#263238"/>
              </g>
            </g>
            <g id="Group_239" data-name="Group 239" transform="translate(1.868 7.003)">
              <g id="Group_238" data-name="Group 238">
                <path id="Path_918" data-name="Path 918" d="M53.277,456.531a5.944,5.944,0,0,0-.667-.633,6.285,6.285,0,0,0-.82-.417,1.364,1.364,0,0,1,.9.308A1.4,1.4,0,0,1,53.277,456.531Z" transform="translate(-51.79 -455.47)" fill="#263238"/>
              </g>
            </g>
            <g id="Group_241" data-name="Group 241" transform="translate(2.385 5.808)">
              <g id="Group_240" data-name="Group 240">
                <path id="Path_919" data-name="Path 919" d="M55.1,451.814c-.023.032-.313-.184-.733-.3s-.777-.1-.779-.138a1.205,1.205,0,0,1,.817.011A1.184,1.184,0,0,1,55.1,451.814Z" transform="translate(-53.59 -451.315)" fill="#263238"/>
              </g>
            </g>
            <g id="Group_243" data-name="Group 243" transform="translate(2.748 4.096)">
              <g id="Group_242" data-name="Group 242">
                <path id="Path_920" data-name="Path 920" d="M56.428,445.853a1.961,1.961,0,0,0-1.579-.328c-.006-.014.075-.072.23-.118a1.345,1.345,0,0,1,1.185.247C56.388,445.755,56.44,445.841,56.428,445.853Z" transform="translate(-54.849 -445.362)" fill="#263238"/>
              </g>
            </g>
            <g id="Group_245" data-name="Group 245" transform="translate(2.902 2.798)">
              <g id="Group_244" data-name="Group 244">
                <path id="Path_921" data-name="Path 921" d="M56.147,441.978a.53.53,0,0,1,.046-.224,1.632,1.632,0,0,1,.319-.538.689.689,0,0,1,.374-.253.247.247,0,0,1,.259.121.4.4,0,0,1,.029.288.876.876,0,0,1-.938.6,1.013,1.013,0,0,1-.84-.754.339.339,0,0,1,.055-.288.24.24,0,0,1,.279-.063.861.861,0,0,1,.336.3,1.82,1.82,0,0,1,.288.552.515.515,0,0,1,.04.224,2.762,2.762,0,0,0-.4-.719.836.836,0,0,0-.3-.25.133.133,0,0,0-.152.035.236.236,0,0,0-.023.193.906.906,0,0,0,.736.644.76.76,0,0,0,.8-.5.3.3,0,0,0-.012-.2.135.135,0,0,0-.141-.069.625.625,0,0,0-.319.21A2.284,2.284,0,0,0,56.147,441.978Z" transform="translate(-55.387 -440.85)" fill="#263238"/>
              </g>
            </g>
          </g>
          <g id="Group_247" data-name="Group 247" transform="translate(3.427 0)" opacity="0.3">
            <path id="Path_922" data-name="Path 922" d="M57.385,431.758l-.175.84,4.162,1.219.357-1.179-4.19-1.519Z" transform="translate(-57.21 -431.12)"/>
          </g>
        </g>
        <g id="Group_267" data-name="Group 267" transform="translate(20.361 95.392)">
          <g id="Group_261" data-name="Group 261" transform="translate(0 0)">
            <g id="Group_249" data-name="Group 249" transform="translate(0.003)">
              <path id="Path_923" data-name="Path 923" d="M112.717,438.23l-.351,4.708s4.668,1.938,4.688,2.816L107.9,445.4l.247-7.36Z" transform="translate(-107.9 -438.04)" fill="#f58634"/>
            </g>
            <g id="Group_251" data-name="Group 251" transform="translate(1.369 4.38)" opacity="0.6">
              <g id="Group_250" data-name="Group 250">
                <path id="Path_924" data-name="Path 924" d="M112.932,453.282a.375.375,0,0,0-.276.417.36.36,0,0,0,.411.276.394.394,0,0,0,.288-.443.373.373,0,0,0-.46-.239" transform="translate(-112.651 -453.27)" fill="#fff"/>
              </g>
            </g>
            <g id="Group_252" data-name="Group 252" transform="translate(0 6.618)" opacity="0.6">
              <path id="Path_925" data-name="Path 925" d="M107.89,461.792l.055-.742,8.758.618s.4.193.342.477Z" transform="translate(-107.89 -461.05)" fill="#fff"/>
            </g>
            <g id="Group_254" data-name="Group 254" transform="translate(3.761 4.811)">
              <g id="Group_253" data-name="Group 253">
                <path id="Path_926" data-name="Path 926" d="M121.821,454.814c0,.046-.227.058-.454.193s-.351.319-.391.3.037-.276.313-.434S121.832,454.774,121.821,454.814Z" transform="translate(-120.965 -454.767)" fill="#263238"/>
              </g>
            </g>
            <g id="Group_256" data-name="Group 256" transform="translate(4.93 5.271)">
              <g id="Group_255" data-name="Group 255">
                <path id="Path_927" data-name="Path 927" d="M125.664,456.389c.009.043-.187.112-.348.3s-.21.383-.256.377-.063-.259.138-.48S125.664,456.346,125.664,456.389Z" transform="translate(-125.031 -456.369)" fill="#263238"/>
              </g>
            </g>
            <g id="Group_258" data-name="Group 258" transform="translate(6.015 5.705)">
              <g id="Group_257" data-name="Group 257">
                <path id="Path_928" data-name="Path 928" d="M128.852,458.635c-.04.009-.095-.219.029-.457s.336-.331.354-.29-.118.164-.216.362S128.9,458.632,128.852,458.635Z" transform="translate(-128.805 -457.878)" fill="#263238"/>
              </g>
            </g>
            <g id="Group_260" data-name="Group 260" transform="translate(3.624 3.598)">
              <g id="Group_259" data-name="Group 259">
                <path id="Path_929" data-name="Path 929" d="M121.446,450.727c-.02.04-.224-.029-.477-.023s-.454.081-.475.04.173-.193.472-.2S121.469,450.693,121.446,450.727Z" transform="translate(-120.492 -450.549)" fill="#263238"/>
              </g>
            </g>
          </g>
          <g id="Group_262" data-name="Group 262" transform="translate(0.19 0.777)" opacity="0.3">
            <path id="Path_930" data-name="Path 930" d="M113.109,441.085l-.06.84-4.5-.216.029-.969Z" transform="translate(-108.55 -440.74)"/>
          </g>
          <g id="Group_264" data-name="Group 264" transform="translate(3.26 2.042)">
            <g id="Group_263" data-name="Group 263">
              <path id="Path_931" data-name="Path 931" d="M120.6,445.922a.859.859,0,0,1-.457-.02,2.051,2.051,0,0,1-.475-.167,2.4,2.4,0,0,1-.259-.15.63.63,0,0,1-.135-.112.193.193,0,0,1-.012-.239.244.244,0,0,1,.2-.095.575.575,0,0,1,.17.032,1.641,1.641,0,0,1,.282.109,1.593,1.593,0,0,1,.411.293c.2.2.27.374.256.383s-.118-.129-.328-.3a1.837,1.837,0,0,0-.4-.247,2.1,2.1,0,0,0-.259-.092c-.095-.029-.178-.035-.2.009-.009.017-.012.023.009.052a.5.5,0,0,0,.1.083,2.108,2.108,0,0,0,.236.147,2.342,2.342,0,0,0,.437.187A3.3,3.3,0,0,1,120.6,445.922Z" transform="translate(-119.224 -445.14)" fill="#263238"/>
            </g>
          </g>
          <g id="Group_266" data-name="Group 266" transform="translate(4.466 1.441)">
            <g id="Group_265" data-name="Group 265">
              <path id="Path_932" data-name="Path 932" d="M123.523,444.494a.734.734,0,0,1-.1-.449,1.466,1.466,0,0,1,.083-.5,1.554,1.554,0,0,1,.127-.273.381.381,0,0,1,.3-.221.214.214,0,0,1,.187.135.578.578,0,0,1,.04.17,1.057,1.057,0,0,1-.224.774c-.187.23-.377.276-.38.262s.144-.1.29-.325a1.037,1.037,0,0,0,.161-.426,1.016,1.016,0,0,0,0-.265c-.012-.1-.043-.178-.081-.17s-.127.069-.167.144a1.627,1.627,0,0,0-.124.244,1.657,1.657,0,0,0-.106.454C123.509,444.318,123.549,444.488,123.523,444.494Z" transform="translate(-123.419 -443.05)" fill="#263238"/>
            </g>
          </g>
        </g>
        <g id="Group_281" data-name="Group 281" transform="translate(10.996 22.193)">
          <g id="Group_273" data-name="Group 273" transform="translate(0.133)">
            <g id="Group_269" data-name="Group 269" transform="translate(0 0.076)">
              <g id="Group_268" data-name="Group 268">
                <path id="Path_933" data-name="Path 933" d="M78.243,196.789l2.37.132a11.869,11.869,0,0,0,.67,1.941,39.451,39.451,0,0,0,3.753-9.525c-.055-.178-.118-.374-.2-.6a2.5,2.5,0,0,1,.029-1c.063-.4.175-.932.207-1.179.1-.754.221-.871.486-.785.357.115-.147,2.114.147,2.157.158.023.351-.661.406-1.222a9.169,9.169,0,0,1,.495-2.4c.273-.17.509.1.44.659s-.158,2.255.141,2.278.538-2.844.538-2.844-.046-.624.3-.61c.621.026.135,3.049.083,3.333-.037.2.285.236.313.02s.178-2.867.811-2.844c.486.017-.377,2.491-.1,3.063s.46-1.947.923-1.913c.173.014.3.046-.017,1.473a31.727,31.727,0,0,1-1.107,3.342c-.733,3.955-3.952,16.609-9,14.291-2.824-1.3-4.141-7.714-4.141-7.714Z" transform="translate(-75.79 -183.789)" fill="#ffbe9d"/>
              </g>
            </g>
            <g id="Group_272" data-name="Group 272" transform="translate(8.968)">
              <g id="Group_271" data-name="Group 271">
                <g id="Group_270" data-name="Group 270">
                  <path id="Path_934" data-name="Path 934" d="M111.142,190.078a.379.379,0,0,1,.023-.086c.023-.063.049-.147.083-.25.078-.227.19-.546.331-.955s.313-.923.486-1.521a9.861,9.861,0,0,0,.224-.969c.032-.173.066-.351.086-.535a1.752,1.752,0,0,0,.012-.273c-.006-.095-.02-.17-.095-.173-.078-.02-.129.043-.181.124a1.513,1.513,0,0,0-.121.267c-.066.19-.121.391-.173.6s-.1.42-.164.636a1,1,0,0,1-.144.334.124.124,0,0,1-.066.04.126.126,0,0,1-.092-.02.292.292,0,0,1-.066-.092.737.737,0,0,1-.052-.184,5.828,5.828,0,0,1,.144-1.438c.04-.242.086-.486.118-.736a3.272,3.272,0,0,0,.029-.371c.006-.115-.014-.267-.066-.29s-.173.046-.233.15a1.556,1.556,0,0,0-.158.342,5.483,5.483,0,0,0-.187.771c-.046.265-.081.535-.112.811-.014.138-.026.276-.04.414l-.017.21a.321.321,0,0,1-.095.244.246.246,0,0,1-.285.012.194.194,0,0,1-.086-.138.35.35,0,0,1,0-.078l.009-.052c.02-.141.043-.282.063-.423.04-.282.075-.569.1-.857s.046-.581.052-.871a2.906,2.906,0,0,0-.086-.857.3.3,0,0,0-.121-.175.155.155,0,0,0-.164.052.816.816,0,0,0-.092.469v.012c-.052.567-.112,1.125-.2,1.671-.043.273-.086.544-.155.814-.017.066-.037.135-.06.2a.413.413,0,0,1-.135.207.147.147,0,0,1-.178-.04.37.37,0,0,1-.066-.109,1.006,1.006,0,0,1-.055-.207,7.643,7.643,0,0,1-.014-1.579,4.419,4.419,0,0,0,.04-.739.416.416,0,0,0-.135-.276.167.167,0,0,0-.124-.02.193.193,0,0,0-.066.029c-.023.017-.017.012-.035.043a3.091,3.091,0,0,0-.19.673c-.049.23-.089.46-.124.687s-.069.452-.1.67-.046.44-.089.656a3.506,3.506,0,0,1-.17.624c-.02.049-.043.1-.069.15s-.052.1-.147.132a.117.117,0,0,1-.121-.052.329.329,0,0,1-.037-.089,1.071,1.071,0,0,1-.02-.161c-.006-.411.055-.788.075-1.153a2.891,2.891,0,0,0,0-.523c-.012-.078-.035-.17-.081-.187a.213.213,0,0,0-.2,0,.7.7,0,0,0-.178.394c-.035.15-.049.3-.078.44-.1.569-.207,1.061-.259,1.461a1.962,1.962,0,0,0-.009.532c.035.147.083.276.109.377s.052.173.069.233.02.081.02.081a.293.293,0,0,1-.032-.078c-.02-.058-.049-.135-.083-.227s-.083-.221-.127-.377a1.907,1.907,0,0,1-.006-.546c.043-.408.141-.894.233-1.467.026-.141.04-.293.072-.446a1.753,1.753,0,0,1,.063-.233.431.431,0,0,1,.152-.221.311.311,0,0,1,.285,0c.112.063.118.173.138.259a2.858,2.858,0,0,1,.009.544c-.017.365-.075.751-.066,1.139a1,1,0,0,0,.017.138c.012.046.035.066.029.055s.046-.04.066-.078a.926.926,0,0,0,.06-.132,3.319,3.319,0,0,0,.158-.6c.04-.207.055-.426.083-.65s.06-.449.095-.676.075-.46.124-.693a3.336,3.336,0,0,1,.2-.713.214.214,0,0,1,.083-.092.624.624,0,0,1,.1-.043.284.284,0,0,1,.23.037.518.518,0,0,1,.2.368,1.389,1.389,0,0,1,0,.394c-.014.124-.026.25-.035.377a7.707,7.707,0,0,0,.017,1.544,1.007,1.007,0,0,0,.046.178.184.184,0,0,0,.037.063c.006.009.009.009.012.009h0c0,.058,0,.011,0,.023,0-.012,0-.009-.009-.02a.44.44,0,0,0,.069-.132c.02-.06.04-.124.058-.187.066-.256.109-.526.152-.8.081-.544.141-1.1.193-1.662v.012a.935.935,0,0,1,.121-.572.3.3,0,0,1,.336-.1.411.411,0,0,1,.207.265,2.99,2.99,0,0,1,.092.909c-.006.3-.026.592-.052.886s-.063.581-.1.866c-.023.144-.043.285-.066.426-.017.089-.014.092.014.118a.1.1,0,0,0,.112-.006c.032-.02.035-.063.04-.141l.017-.21c.014-.141.029-.279.04-.417.032-.276.066-.549.115-.82a5.322,5.322,0,0,1,.193-.794,1.7,1.7,0,0,1,.175-.374.549.549,0,0,1,.155-.161.267.267,0,0,1,.25-.037.293.293,0,0,1,.132.213.985.985,0,0,1,.012.2c0,.132-.017.262-.032.388-.035.253-.078.5-.121.742a6,6,0,0,0-.15,1.4.548.548,0,0,0,.037.147.2.2,0,0,0,.032.049s0-.006-.006.011,0,0,0,0c-.009-.014,0-.011,0-.017a.978.978,0,0,0,.118-.282c.063-.21.112-.423.167-.63s.109-.411.181-.607a1.618,1.618,0,0,1,.132-.288.456.456,0,0,1,.109-.127.222.222,0,0,1,.086-.043.244.244,0,0,1,.092,0,.187.187,0,0,1,.152.112.484.484,0,0,1,.032.161,1.61,1.61,0,0,1-.017.29c-.023.187-.058.368-.092.541a9.822,9.822,0,0,1-.239.972c-.181.6-.362,1.1-.509,1.519s-.273.731-.357.946c-.04.1-.072.181-.1.244C111.159,190.052,111.145,190.081,111.142,190.078Z" transform="translate(-106.972 -183.525)" fill="#eb996e"/>
                </g>
              </g>
            </g>
          </g>
          <g id="Group_274" data-name="Group 274" transform="translate(0.107 11.194)">
            <path id="Path_935" data-name="Path 935" d="M75.7,224.6c.457,1.616,1.355,4.116,2.315,6.75a.458.458,0,0,0,.843.04l2.358-4.99s-.569-4.1-.521-3.955-4.869.529-4.869.529Z" transform="translate(-75.7 -222.447)" fill="navy"/>
          </g>
          <g id="Group_276" data-name="Group 276" transform="translate(4.681 10.631)">
            <g id="Group_275" data-name="Group 275">
              <path id="Path_936" data-name="Path 936" d="M93.411,223.607c-.012.012-.06-.046-.181-.081a.45.45,0,0,0-.454.121l-.063.072-.035-.089c-.127-.322-.285-.739-.449-1.2a13.941,13.941,0,0,1-.618-1.941,13.631,13.631,0,0,1,.759,1.892c.164.457.311.883.417,1.211l-.1-.02a.493.493,0,0,1,.313-.147.522.522,0,0,1,.253.04C93.382,223.524,93.417,223.6,93.411,223.607Z" transform="translate(-91.607 -220.489)" fill="#263238"/>
            </g>
          </g>
          <g id="Group_278" data-name="Group 278" transform="translate(3.139 13.844)">
            <g id="Group_277" data-name="Group 277">
              <path id="Path_937" data-name="Path 937" d="M86.246,236.31a4.232,4.232,0,0,1,.342-.708c.227-.429.552-1.012.917-1.654s.7-1.219.955-1.634a4.163,4.163,0,0,1,.434-.656,4.233,4.233,0,0,1-.342.708c-.227.429-.552,1.012-.917,1.654s-.7,1.219-.955,1.634A4.233,4.233,0,0,1,86.246,236.31Z" transform="translate(-86.245 -231.659)" fill="#263238"/>
            </g>
          </g>
          <g id="Group_280" data-name="Group 280" transform="translate(0 12.107)">
            <g id="Group_279" data-name="Group 279">
              <path id="Path_938" data-name="Path 938" d="M76.9,231.257a2.66,2.66,0,0,1,.411-.288c.267-.173.656-.414,1.127-.7l-.026.078-.894-2.1c-.408-.972-.774-1.861-1.041-2.525l.078.026c-.374.2-.676.365-.889.472a1.741,1.741,0,0,1-.336.155,1.7,1.7,0,0,1,.308-.21c.2-.127.5-.3.866-.515l.055-.032.026.058c.288.656.667,1.539,1.076,2.511.319.774.618,1.493.871,2.108l.02.052-.046.026c-.477.276-.874.5-1.153.656A2.5,2.5,0,0,1,76.9,231.257Z" transform="translate(-75.329 -225.62)" fill="#fafafa"/>
            </g>
          </g>
        </g>
        <g id="Group_294" data-name="Group 294" transform="translate(0 43.603)">
          <g id="Group_283" data-name="Group 283">
            <g id="Group_282" data-name="Group 282">
              <path id="Path_939" data-name="Path 939" d="M62.457,311.133a1.69,1.69,0,0,0,1.636-1.585c.492-7.961,2.706-44.173,2.263-45.309-.5-1.277-1.812-5.718-1.812-5.718L52.8,257.97s-2.925,4.619-3.345,6.388c-.377,1.585-11.015,35.1-12.338,42.235a1.459,1.459,0,0,0,1.015,1.662Z" transform="translate(-37.095 -257.97)" fill="#263238"/>
            </g>
          </g>
          <g id="Group_285" data-name="Group 285" transform="translate(1.437 0.259)">
            <g id="Group_284" data-name="Group 284">
              <path id="Path_940" data-name="Path 940" d="M58.676,258.87s-.014.043-.052.127-.095.207-.167.362c-.152.322-.371.791-.653,1.386l-.429,1.021c-.158.374-.331.777-.486,1.225s-.345.915-.521,1.424-.342,1.05-.526,1.613q-.25.858-.521,1.795c-.17.627-.331,1.283-.509,1.961q-.237,1.022-.489,2.114c-.152.731-.322,1.478-.475,2.252-.316,1.542-.624,3.167-.955,4.849s-.676,3.422-1.09,5.194c-.2.889-.426,1.757-.638,2.617-.236.854-.463,1.7-.713,2.519-.5,1.642-1.047,3.207-1.6,4.679-1.125,2.945-2.289,5.536-3.307,7.69s-1.89,3.877-2.494,5.062c-.3.587-.538,1.047-.7,1.363-.081.15-.141.267-.187.354s-.069.118-.069.118.017-.043.055-.124.1-.207.173-.359q.237-.483.679-1.378c.587-1.2,1.444-2.925,2.45-5.082s2.157-4.751,3.276-7.7c.555-1.473,1.1-3.034,1.593-4.674.25-.82.475-1.659.71-2.514.213-.86.443-1.726.636-2.614.411-1.769.756-3.509,1.093-5.188s.644-3.3.963-4.849c.152-.774.325-1.521.48-2.252s.336-1.432.5-2.114c.178-.679.345-1.334.518-1.961s.362-1.222.529-1.795c.187-.567.368-1.1.535-1.613s.365-.978.532-1.421.336-.848.5-1.222.308-.71.44-1.018c.288-.6.523-1.061.679-1.378.078-.152.138-.27.181-.357Z" transform="translate(-42.09 -258.87)" fill="#455a64"/>
            </g>
          </g>
          <g id="Group_287" data-name="Group 287" transform="translate(7.655 0.262)">
            <g id="Group_286" data-name="Group 286">
              <path id="Path_941" data-name="Path 941" d="M63.71,309.6s.009-.046.029-.132.058-.219.1-.383c.095-.342.233-.834.408-1.467.357-1.28.866-3.12,1.5-5.393s1.357-5,2.151-8.018c.391-1.513.8-3.1,1.222-4.748s.84-3.356,1.277-5.1.834-3.466,1.231-5.119.759-3.253,1.113-4.774c.7-3.046,1.306-5.8,1.8-8.1s.892-4.176,1.168-5.473c.138-.641.244-1.142.316-1.49.037-.164.066-.293.086-.385s.035-.129.035-.129a1.109,1.109,0,0,1-.02.132c-.017.095-.04.224-.072.388-.069.348-.164.851-.29,1.5s-.29,1.444-.475,2.361-.408,1.967-.647,3.123c-.486,2.312-1.084,5.065-1.772,8.113-.348,1.524-.71,3.123-1.1,4.777s-.808,3.368-1.228,5.119c-.437,1.749-.866,3.457-1.28,5.108s-.837,3.236-1.231,4.745c-.8,3.02-1.542,5.735-2.183,8.013-.322,1.136-.615,2.166-.871,3.069s-.486,1.677-.673,2.312-.334,1.119-.434,1.458c-.049.161-.089.288-.118.38A1.332,1.332,0,0,1,63.71,309.6Z" transform="translate(-63.71 -258.88)" fill="#455a64"/>
            </g>
          </g>
          <g id="Group_289" data-name="Group 289" transform="translate(12.774 0.282)">
            <g id="Group_288" data-name="Group 288">
              <path id="Path_942" data-name="Path 942" d="M90.385,258.95s.009.046.023.135.029.227.049.394.046.391.075.644.035.549.058.883c.009.167.017.342.029.526s0,.38,0,.581v.633c0,.219-.02.449-.029.685s-.023.48-.037.733-.046.512-.072.777c-.04.535-.129,1.1-.2,1.685-.178,1.176-.414,2.459-.716,3.822s-.659,2.816-1.027,4.343-.748,3.132-1.067,4.809-.584,3.425-.811,5.223-.423,3.558-.61,5.257-.374,3.339-.569,4.9l-.311,2.275c-.121.736-.227,1.45-.345,2.14s-.244,1.352-.38,1.987-.27,1.242-.408,1.821-.3,1.122-.431,1.642-.3,1-.443,1.447c-.072.224-.135.443-.207.65s-.15.4-.221.592c-.141.38-.27.725-.385,1.038-.256.613-.475,1.081-.615,1.4-.069.155-.127.276-.164.362s-.06.121-.06.121.014-.043.046-.127.086-.21.152-.368c.132-.325.342-.794.59-1.412.112-.314.236-.661.374-1.041.069-.19.141-.388.213-.6s.132-.426.2-.653c.132-.452.29-.932.431-1.447s.273-1.067.42-1.639l.4-1.821c.129-.636.242-1.3.368-1.984s.221-1.4.339-2.137c.1-.736.2-1.5.3-2.275.193-1.559.377-3.2.561-4.9s.377-3.46.607-5.26.5-3.552.814-5.232.7-3.287,1.076-4.814.731-2.974,1.038-4.337.546-2.64.733-3.814c.075-.59.17-1.148.213-1.68.026-.265.052-.523.078-.774s.029-.495.043-.731.032-.463.035-.682,0-.429.006-.633,0-.394.006-.578-.014-.359-.023-.523c-.017-.331-.017-.627-.043-.88s-.043-.469-.06-.644-.026-.3-.035-.4A.761.761,0,0,1,90.385,258.95Z" transform="translate(-81.51 -258.95)" fill="#455a64"/>
            </g>
          </g>
          <g id="Group_291" data-name="Group 291" transform="translate(19.74 0.624)">
            <g id="Group_290" data-name="Group 290" transform="translate(0)">
              <path id="Path_943" data-name="Path 943" d="M106.357,312.337s-.012-.043-.032-.132-.043-.224-.075-.391-.072-.388-.115-.638-.106-.544-.135-.874-.081-.7-.127-1.1-.058-.846-.092-1.317c-.012-.236-.032-.48-.04-.733s0-.515-.006-.782,0-.546-.006-.828.02-.575.032-.871.023-.6.037-.915.049-.63.075-.955c.043-.65.124-1.323.2-2.019s.2-1.412.3-2.151c.127-.736.242-1.5.391-2.269.567-3.1,1.355-6.477,2.071-10.037a100.8,100.8,0,0,0,1.51-10.127c.311-3.132.429-5.968.469-8.349.014-1.191.009-2.266-.006-3.213s-.04-1.76-.069-2.424-.055-1.182-.069-1.533c-.006-.17-.011-.3-.017-.4s0-.135,0-.135a1.26,1.26,0,0,1,.014.135c.009.095.017.227.032.4.023.351.066.866.095,1.533s.069,1.481.095,2.427.035,2.025.026,3.215c-.026,2.384-.135,5.223-.437,8.361a99.45,99.45,0,0,1-1.5,10.144c-.716,3.566-1.507,6.937-2.082,10.034-.15.774-.267,1.53-.4,2.266-.1.739-.227,1.452-.3,2.148s-.167,1.366-.213,2.013c-.029.322-.055.641-.081.952s-.029.615-.04.912-.026.587-.037.869v1.6c.006.253.023.5.035.733.029.472.029.912.081,1.314s.081.771.115,1.1.083.621.121.877.075.466.1.641.046.3.06.394A.731.731,0,0,1,106.357,312.337Z" transform="translate(-105.73 -260.14)" fill="#455a64"/>
            </g>
          </g>
          <g id="Group_293" data-name="Group 293" transform="translate(23.88 0.523)">
            <g id="Group_292" data-name="Group 292">
              <path id="Path_944" data-name="Path 944" d="M123.058,259.79s.017.043.043.129.063.219.109.383.106.377.175.621a8.7,8.7,0,0,1,.2.857c.063.325.152.685.216,1.084s.118.834.184,1.3c.037.472.078.972.121,1.507.009.535.043,1.1.032,1.694a37.572,37.572,0,0,1-.25,3.874c-.164,1.386-.388,2.862-.667,4.406l-.9,4.837c-.313,1.677-.592,3.42-.843,5.211s-.454,3.546-.621,5.243-.288,3.339-.388,4.9-.158,3.051-.187,4.446-.046,2.692-.04,3.877.023,2.258.055,3.2.063,1.752.086,2.413.058,1.171.075,1.524q.009.255.017.4c0,.089,0,.135,0,.135s-.009-.046-.017-.135-.017-.227-.032-.4c-.023-.348-.066-.863-.1-1.524s-.083-1.473-.112-2.413-.063-2.013-.075-3.2-.012-2.485.023-3.88.089-2.885.173-4.452.207-3.21.38-4.909.365-3.457.618-5.249.529-3.54.846-5.217.621-3.293.912-4.835.509-3.011.679-4.395.25-2.678.267-3.863c.017-.592-.014-1.156-.02-1.688-.037-.532-.075-1.033-.109-1.5-.06-.466-.118-.9-.17-1.3s-.144-.756-.2-1.084-.118-.615-.19-.86-.118-.454-.161-.624-.072-.293-.095-.385A1.31,1.31,0,0,1,123.058,259.79Z" transform="translate(-120.126 -259.79)" fill="#455a64"/>
            </g>
          </g>
        </g>
      </g>
    </g>
    <g id="Device" transform="translate(72.825 51.047)">
      <g id="Group_303" data-name="Group 303" transform="translate(0 0)">
        <g id="Group_302" data-name="Group 302">
          <g id="Group_301" data-name="Group 301">
            <g id="Group_300" data-name="Group 300">
              <g id="Group_297" data-name="Group 297">
                <g id="Group_296" data-name="Group 296">
                  <path id="Path_945" data-name="Path 945" d="M211.595,200.9l-36.189-.167a7.882,7.882,0,0,1-7.846-7.918l.383-90.727a7.881,7.881,0,0,1,7.921-7.849l36.189.167a7.882,7.882,0,0,1,7.846,7.918l-.383,90.727A7.885,7.885,0,0,1,211.595,200.9Z" transform="translate(-167.56 -94.24)" fill="#263238"/>
                </g>
              </g>
              <g id="Group_299" data-name="Group 299" transform="translate(2.105 2.551)">
                <g id="Group_298" data-name="Group 298">
                  <path id="Path_946" data-name="Path 946" d="M216.916,103.274l-7.018-.032a1.745,1.745,0,0,0-1.711,1.775l-.006,1.274a1.744,1.744,0,0,1-1.711,1.775L192.795,108a1.745,1.745,0,0,1-1.7-1.789l.006-1.274a1.745,1.745,0,0,0-1.7-1.789l-2.468-.012-6.14-.029a5.52,5.52,0,0,0-5.545,5.5l-.374,88.556a5.521,5.521,0,0,0,5.5,5.545l36.117.167a5.519,5.519,0,0,0,5.545-5.5l.374-88.556A5.522,5.522,0,0,0,216.916,103.274Z" transform="translate(-174.88 -103.11)" fill="#fafafa"/>
                </g>
              </g>
            </g>
          </g>
        </g>
      </g>
      <g id="Group_304" data-name="Group 304" transform="translate(6.463 10.74)">
        <path id="Path_947" data-name="Path 947" d="M190.723,132.972a.146.146,0,0,1-.1-.043l-.549-.575a.151.151,0,0,1-.04-.1.146.146,0,0,1,.043-.1l.549-.526a.144.144,0,0,1,.2.21l-.446.426.452.472a.145.145,0,0,1-.006.2A.147.147,0,0,1,190.723,132.972Z" transform="translate(-190.03 -131.584)" fill="#263238"/>
      </g>
      <g id="Group_307" data-name="Group 307" transform="translate(6.767 86.968)">
        <g id="Group_305" data-name="Group 305">
          <path id="Path_948" data-name="Path 948" d="M225.582,406.731H195.726a4.637,4.637,0,0,1-4.636-4.636v-.828a4.637,4.637,0,0,1,4.636-4.636h29.859a4.637,4.637,0,0,1,4.636,4.636v.828A4.638,4.638,0,0,1,225.582,406.731Z" transform="translate(-191.09 -396.63)" fill="#f58634"/>
        </g>
        <g id="Group_306" data-name="Group 306" transform="translate(14.909 3.857)">
          <path id="Path_949" data-name="Path 949" d="M242.93,410.11h.909a1.119,1.119,0,1,1,0,2.232h-.909Zm.9,2.03a.914.914,0,1,0,0-1.823h-.661v1.826h.661Z" transform="translate(-242.93 -410.09)" fill="#fafafa"/>
          <path id="Path_950" data-name="Path 950" d="M251.4,411.176a1.173,1.173,0,1,1,1.173,1.136A1.124,1.124,0,0,1,251.4,411.176Zm2.111,0a.938.938,0,1,0-.935.926A.906.906,0,0,0,253.511,411.176Z" transform="translate(-248.964 -410.04)" fill="#fafafa"/>
          <path id="Path_951" data-name="Path 951" d="M263.257,410.11v2.235h-.2l-1.435-1.812v1.812h-.236V410.11h.2l1.438,1.812V410.11Z" transform="translate(-256.081 -410.09)" fill="#fafafa"/>
          <path id="Path_952" data-name="Path 952" d="M271.989,412.141v.2H270.41V410.11h1.53v.2h-1.294v.794H271.8v.2h-1.156v.828h1.343Z" transform="translate(-262.507 -410.09)" fill="#fafafa"/>
        </g>
      </g>
      <g id="Group_308" data-name="Group 308" transform="translate(11.421 47.969)">
        <path id="Path_953" data-name="Path 953" d="M208.484,262.385H207.27v-.575h3.109v.575h-1.214v3.089h-.682Z" transform="translate(-207.27 -261.586)" fill="navy"/>
        <path id="Path_954" data-name="Path 954" d="M222.385,263.316v1.6h-.656V263.4c0-.5-.247-.739-.664-.739a.742.742,0,0,0-.779.843v1.412h-.656V261.03h.656v1.415a1.248,1.248,0,0,1,.932-.357A1.1,1.1,0,0,1,222.385,263.316Z" transform="translate(-216.075 -261.03)" fill="navy"/>
        <path id="Path_955" data-name="Path 955" d="M233.95,265.918v1.639h-.618v-.339a.99.99,0,0,1-.88.377c-.638,0-1.041-.351-1.041-.837,0-.466.313-.831,1.162-.831h.722v-.043c0-.383-.23-.607-.7-.607a1.388,1.388,0,0,0-.848.276l-.256-.477a1.969,1.969,0,0,1,1.182-.345C233.484,264.727,233.95,265.11,233.95,265.918Zm-.653.765v-.325h-.676c-.446,0-.567.167-.567.371,0,.236.2.388.535.388A.713.713,0,0,0,233.3,266.683Z" transform="translate(-224.467 -263.666)" fill="navy"/>
        <path id="Path_956" data-name="Path 956" d="M245.905,265.938v1.6h-.656v-1.519c0-.5-.247-.739-.664-.739a.742.742,0,0,0-.779.843v1.412h-.656v-2.8h.624v.362a1.22,1.22,0,0,1,.963-.394A1.1,1.1,0,0,1,245.905,265.938Z" transform="translate(-232.831 -263.652)" fill="navy"/>
        <path id="Path_957" data-name="Path 957" d="M256.762,263.736l-.486.46v.739h-.656V261.05h.656V263.4l1.355-1.257h.785l-1.168,1.173,1.277,1.622h-.8Z" transform="translate(-241.714 -261.044)" fill="navy"/>
        <path id="Path_958" data-name="Path 958" d="M273.555,264.83l-1.309,3.02a1.086,1.086,0,0,1-1.079.828,1.164,1.164,0,0,1-.748-.256l.262-.48a.71.71,0,0,0,.48.193c.23,0,.365-.109.492-.388l.046-.109-1.219-2.807h.682l.88,2.068.886-2.068Z" transform="translate(-252.258 -263.737)" fill="navy"/>
        <path id="Path_959" data-name="Path 959" d="M281.66,266.149a1.491,1.491,0,1,1,1.487,1.435A1.407,1.407,0,0,1,281.66,266.149Zm2.321,0a.831.831,0,1,0-.831.874A.814.814,0,0,0,283.981,266.149Z" transform="translate(-260.265 -263.659)" fill="navy"/>
        <path id="Path_960" data-name="Path 960" d="M296.859,264.823v2.8h-.624v-.357a1.148,1.148,0,0,1-.9.394,1.108,1.108,0,0,1-1.205-1.237v-1.6h.656v1.507c0,.509.242.748.656.748a.737.737,0,0,0,.765-.843V264.82h.653Z" transform="translate(-269.149 -263.73)" fill="navy"/>
        <path id="Path_961" data-name="Path 961" d="M306.18,265.1a.405.405,0,0,1,.423-.4.4.4,0,0,1,.414.4.419.419,0,0,1-.837,0Zm.037-3.293h.774l-.132,2.45h-.518Z" transform="translate(-277.733 -261.586)" fill="navy"/>
      </g>
      <g id="Group_359" data-name="Group 359" transform="translate(10.391 16.287)">
        <g id="Group_312" data-name="Group 312" transform="translate(8.672 11.363)">
          <g id="Group_309" data-name="Group 309">
            <circle id="Ellipse_23" data-name="Ellipse 23" cx="7.529" cy="7.529" r="7.529" fill="#f58634"/>
          </g>
          <g id="Group_311" data-name="Group 311" transform="translate(4.328 4.349)">
            <g id="Group_310" data-name="Group 310">
              <path id="Path_962" data-name="Path 962" d="M255.8,205.5a31.318,31.318,0,0,1-3.141,4.225c-.391.475-.765.929-1.11,1.346l-.152.184-.164-.167a17.711,17.711,0,0,1-2.338-2.637,17.672,17.672,0,0,1,2.637,2.338l-.313.017c.339-.423.7-.883,1.09-1.36A31.2,31.2,0,0,1,255.8,205.5Z" transform="translate(-248.888 -205.501)" fill="#fff"/>
            </g>
          </g>
        </g>
        <g id="Group_313" data-name="Group 313" transform="translate(25.646 15.143)">
          <path id="Path_963" data-name="Path 963" d="M294.111,204.238c-.224-.791-1.251-.713-1.251-.713l.029.549c.6-.1.963.6.963.6Z" transform="translate(-292.86 -203.523)" fill="#e8505b"/>
        </g>
        <g id="Group_314" data-name="Group 314" transform="translate(3.834 16.803)">
          <path id="Path_964" data-name="Path 964" d="M218.271,210.008c-.224-.791-1.251-.713-1.251-.713l.029.549c.6-.1.963.6.963.6Z" transform="translate(-217.02 -209.293)" fill="#e0e0e0"/>
        </g>
        <g id="Group_315" data-name="Group 315" transform="translate(16.765 5.145)">
          <path id="Path_965" data-name="Path 965" d="M262.314,170.189c1.194.362,1.936-1.015,1.936-1.015l-.725-.414c-.354.843-1.544.745-1.544.745Z" transform="translate(-261.98 -168.76)" fill="#e0e0e0"/>
        </g>
        <g id="Group_316" data-name="Group 316" transform="translate(9.86 8.056)">
          <path id="Path_966" data-name="Path 966" d="M238.591,178.88c-.555.058-.621.756-.621.756l.371.043c0-.408.509-.578.509-.578Z" transform="translate(-237.97 -178.88)" fill="#e8505b"/>
        </g>
        <g id="Group_317" data-name="Group 317" transform="translate(32.643 12.364)">
          <path id="Path_967" data-name="Path 967" d="M317.9,194.648c.081-.552-.578-.788-.578-.788l-.135.348c.4.1.434.636.434.636Z" transform="translate(-317.19 -193.86)" fill="#e0e0e0"/>
        </g>
        <g id="Group_318" data-name="Group 318" transform="translate(13.006)">
          <path id="Path_968" data-name="Path 968" d="M249.623,151.658c.081-.552-.578-.788-.578-.788l-.135.348c.4.1.431.636.431.636Z" transform="translate(-248.91 -150.87)" fill="#e8505b"/>
        </g>
        <g id="Group_319" data-name="Group 319" transform="translate(0 9.333)">
          <path id="Path_969" data-name="Path 969" d="M203.695,183.682c-.1.866,1.047,1.076,1.047,1.076l.207-.567c-.687-.063-.788-.871-.788-.871Z" transform="translate(-203.688 -183.32)" fill="#e8505b"/>
        </g>
        <g id="Group_320" data-name="Group 320" transform="translate(25.315 5.81)">
          <path id="Path_970" data-name="Path 970" d="M291.929,171.818c.558.032.736-.644.736-.644l-.359-.1c-.066.406-.6.486-.6.486Z" transform="translate(-291.71 -171.07)" fill="#e8505b"/>
        </g>
        <g id="Group_339" data-name="Group 339" transform="translate(27.659 7.578)">
          <g id="Group_325" data-name="Group 325">
            <g id="Group_322" data-name="Group 322" transform="translate(0 1.205)">
              <g id="Group_321" data-name="Group 321">
                <path id="Path_971" data-name="Path 971" d="M300.78,181.456a2.324,2.324,0,0,1-.92,0,2.324,2.324,0,0,1,.92,0Z" transform="translate(-299.86 -181.41)" fill="#e0e0e0"/>
              </g>
            </g>
            <g id="Group_324" data-name="Group 324" transform="translate(1.363)">
              <g id="Group_323" data-name="Group 323">
                <path id="Path_972" data-name="Path 972" d="M304.646,177.22a2.381,2.381,0,1,1-.046.466A1.214,1.214,0,0,1,304.646,177.22Z" transform="translate(-304.6 -177.22)" fill="#e0e0e0"/>
              </g>
            </g>
          </g>
          <g id="Group_330" data-name="Group 330" transform="translate(1.395 1.173)">
            <g id="Group_327" data-name="Group 327" transform="translate(0.535)">
              <g id="Group_326" data-name="Group 326">
                <path id="Path_973" data-name="Path 973" d="M306.57,181.346a2.324,2.324,0,0,1,.92,0,2.324,2.324,0,0,1-.92,0Z" transform="translate(-306.57 -181.3)" fill="#e0e0e0"/>
              </g>
            </g>
            <g id="Group_329" data-name="Group 329" transform="translate(0 0.368)">
              <g id="Group_328" data-name="Group 328">
                <path id="Path_974" data-name="Path 974" d="M304.756,183.512a2.381,2.381,0,1,1,.046-.466A1.364,1.364,0,0,1,304.756,183.512Z" transform="translate(-304.71 -182.58)" fill="#e0e0e0"/>
              </g>
            </g>
          </g>
          <g id="Group_332" data-name="Group 332" transform="translate(1.852 1.542)">
            <g id="Group_331" data-name="Group 331">
              <path id="Path_975" data-name="Path 975" d="M306.63,182.975c-.02.017-.106-.058-.2-.167s-.147-.21-.129-.224.106.058.2.167S306.65,182.958,306.63,182.975Z" transform="translate(-306.299 -182.581)" fill="#e0e0e0"/>
            </g>
          </g>
          <g id="Group_334" data-name="Group 334" transform="translate(1.797 0.512)">
            <g id="Group_333" data-name="Group 333">
              <path id="Path_976" data-name="Path 976" d="M306.452,179c.017.017-.043.109-.138.2s-.184.158-.2.141.043-.109.138-.2S306.435,178.986,306.452,179Z" transform="translate(-306.11 -179)" fill="#e0e0e0"/>
            </g>
          </g>
          <g id="Group_336" data-name="Group 336" transform="translate(0.762 0.602)">
            <g id="Group_335" data-name="Group 335">
              <path id="Path_977" data-name="Path 977" d="M302.835,179.589c-.017.02-.1-.026-.19-.1s-.15-.15-.132-.17.1.026.19.1S302.849,179.571,302.835,179.589Z" transform="translate(-302.51 -179.314)" fill="#e0e0e0"/>
            </g>
          </g>
          <g id="Group_338" data-name="Group 338" transform="translate(0.733 1.501)">
            <g id="Group_337" data-name="Group 337">
              <path id="Path_978" data-name="Path 978" d="M302.72,182.443c.017.017-.035.106-.121.2s-.17.155-.187.138.034-.106.121-.2S302.7,182.425,302.72,182.443Z" transform="translate(-302.408 -182.44)" fill="#e0e0e0"/>
            </g>
          </g>
        </g>
        <g id="Group_358" data-name="Group 358" transform="translate(2.603 5.013)">
          <g id="Group_344" data-name="Group 344">
            <g id="Group_341" data-name="Group 341" transform="translate(0 1.205)">
              <g id="Group_340" data-name="Group 340">
                <path id="Path_979" data-name="Path 979" d="M213.66,172.536a2.324,2.324,0,0,1-.92,0,1.184,1.184,0,0,1,.46-.046A1.315,1.315,0,0,1,213.66,172.536Z" transform="translate(-212.74 -172.49)" fill="#e8505b"/>
              </g>
            </g>
            <g id="Group_343" data-name="Group 343" transform="translate(1.363)">
              <g id="Group_342" data-name="Group 342">
                <path id="Path_980" data-name="Path 980" d="M217.526,168.3a2.382,2.382,0,0,1,0,.932,2.382,2.382,0,0,1,0-.932Z" transform="translate(-217.48 -168.3)" fill="#e8505b"/>
              </g>
            </g>
          </g>
          <g id="Group_349" data-name="Group 349" transform="translate(1.395 1.176)">
            <g id="Group_346" data-name="Group 346" transform="translate(0.535)">
              <g id="Group_345" data-name="Group 345">
                <path id="Path_981" data-name="Path 981" d="M219.45,172.436a2.324,2.324,0,0,1,.92,0,2.324,2.324,0,0,1-.92,0Z" transform="translate(-219.45 -172.39)" fill="#e8505b"/>
              </g>
            </g>
            <g id="Group_348" data-name="Group 348" transform="translate(0 0.365)">
              <g id="Group_347" data-name="Group 347">
                <path id="Path_982" data-name="Path 982" d="M217.636,174.592a2.382,2.382,0,0,1,0-.932,2.382,2.382,0,0,1,0,.932Z" transform="translate(-217.59 -173.66)" fill="#e8505b"/>
              </g>
            </g>
          </g>
          <g id="Group_351" data-name="Group 351" transform="translate(1.855 1.545)">
            <g id="Group_350" data-name="Group 350">
              <path id="Path_983" data-name="Path 983" d="M219.52,174.065c-.02.017-.106-.058-.2-.167s-.147-.21-.129-.224.106.058.2.167S219.538,174.048,219.52,174.065Z" transform="translate(-219.189 -173.671)" fill="#e8505b"/>
            </g>
          </g>
          <g id="Group_353" data-name="Group 353" transform="translate(1.8 0.515)">
            <g id="Group_352" data-name="Group 352">
              <path id="Path_984" data-name="Path 984" d="M219.342,170.093c.017.017-.043.109-.138.2s-.184.158-.2.141.043-.109.138-.2S219.325,170.076,219.342,170.093Z" transform="translate(-219 -170.09)" fill="#e8505b"/>
            </g>
          </g>
          <g id="Group_355" data-name="Group 355" transform="translate(0.762 0.605)">
            <g id="Group_354" data-name="Group 354">
              <path id="Path_985" data-name="Path 985" d="M215.715,170.679c-.017.02-.1-.026-.19-.1s-.15-.15-.132-.17.1.026.19.1S215.732,170.658,215.715,170.679Z" transform="translate(-215.39 -170.404)" fill="#e8505b"/>
            </g>
          </g>
          <g id="Group_357" data-name="Group 357" transform="translate(0.736 1.501)">
            <g id="Group_356" data-name="Group 356">
              <path id="Path_986" data-name="Path 986" d="M215.61,173.523c.017.017-.035.106-.121.2s-.17.155-.187.138.035-.106.121-.2S215.589,173.506,215.61,173.523Z" transform="translate(-215.299 -173.52)" fill="#e8505b"/>
            </g>
          </g>
        </g>
      </g>
      <g id="Group_366" data-name="Group 366" transform="translate(41.685 10.512)">
        <g id="Group_361" data-name="Group 361">
          <g id="Group_360" data-name="Group 360">
            <path id="Path_987" data-name="Path 987" d="M316.561,130.865a27.6,27.6,0,0,1-4.061,0,14.024,14.024,0,0,1,2.03-.075A13.578,13.578,0,0,1,316.561,130.865Z" transform="translate(-312.5 -130.79)" fill="#263238"/>
          </g>
        </g>
        <g id="Group_363" data-name="Group 363" transform="translate(0 0.846)">
          <g id="Group_362" data-name="Group 362">
            <path id="Path_988" data-name="Path 988" d="M316.561,133.8a27.608,27.608,0,0,1-4.061,0,27.6,27.6,0,0,1,4.061,0Z" transform="translate(-312.5 -133.73)" fill="#263238"/>
          </g>
        </g>
        <g id="Group_365" data-name="Group 365" transform="translate(0 1.691)">
          <g id="Group_364" data-name="Group 364">
            <path id="Path_989" data-name="Path 989" d="M316.561,136.745a27.608,27.608,0,0,1-4.061,0,27.6,27.6,0,0,1,4.061,0Z" transform="translate(-312.5 -136.67)" fill="#263238"/>
          </g>
        </g>
      </g>
    </g>
    <g id="Plant" transform="translate(139.161 138.339)">
      <g id="Group_382" data-name="Group 382" transform="translate(0 0)">
        <g id="Group_368" data-name="Group 368" transform="translate(4.651)">
          <g id="Group_367" data-name="Group 367">
            <path id="Path_990" data-name="Path 990" d="M416.7,397.77a3.58,3.58,0,0,1,1.849,2.094,6.26,6.26,0,0,1,.244,2.836,11.127,11.127,0,0,1-2.381,5.171c-1.55-1.352-1.907-3.713-2.013-4.921-.164-1.91.693-5.464,2.3-5.18" transform="translate(-414.381 -397.754)" fill="navy"/>
          </g>
        </g>
        <g id="Group_370" data-name="Group 370" transform="translate(8.418 9.319)">
          <g id="Group_369" data-name="Group 369">
            <path id="Path_991" data-name="Path 991" d="M427.548,433.994a3.042,3.042,0,0,1,.984-2.893,4.052,4.052,0,0,1,2.98-.932,1.7,1.7,0,0,1,1.309.587,1.3,1.3,0,0,1,.02,1.32,2.613,2.613,0,0,1-.978.961,5.232,5.232,0,0,1-4.314.958" transform="translate(-427.478 -430.156)" fill="navy"/>
          </g>
        </g>
        <g id="Group_373" data-name="Group 373" transform="translate(6.498 11.14)">
          <g id="Group_372" data-name="Group 372">
            <g id="Group_371" data-name="Group 371">
              <path id="Path_992" data-name="Path 992" d="M420.805,444.146a2.2,2.2,0,0,1,.055-.377c.049-.265.112-.61.187-1.021a10.7,10.7,0,0,1,1.056-3.264,6.542,6.542,0,0,1,2.344-2.491,4.471,4.471,0,0,1,.955-.423,2.225,2.225,0,0,1,.276-.069.316.316,0,0,1,.1-.014,6.92,6.92,0,0,0-1.28.587,6.748,6.748,0,0,0-2.275,2.473,11.452,11.452,0,0,0-1.079,3.218c-.095.429-.17.777-.23,1.015A2.177,2.177,0,0,1,420.805,444.146Z" transform="translate(-420.803 -436.487)" fill="#263238"/>
            </g>
          </g>
        </g>
        <g id="Group_376" data-name="Group 376" transform="translate(6.48 2.78)">
          <g id="Group_375" data-name="Group 375">
            <g id="Group_374" data-name="Group 374">
              <path id="Path_993" data-name="Path 993" d="M420.818,407.42a.7.7,0,0,1,.02.164c.009.124.017.279.029.475.023.411.046,1.009.069,1.746.049,1.475.086,3.514.075,5.766s-.066,4.291-.127,5.766c-.029.736-.06,1.334-.086,1.746-.014.2-.023.351-.032.475s.006,0,0,0c.02-.164-.026.106-.026,0,0-.124,0-.279.006-.475.012-.429.026-1.021.043-1.746.037-1.475.078-3.512.086-5.764s-.014-4.288-.037-5.764c-.012-.725-.02-1.317-.029-1.746,0-.2,0-.354,0-.475A1.533,1.533,0,0,1,420.818,407.42Z" transform="translate(-420.74 -407.42)" fill="#263238"/>
            </g>
          </g>
        </g>
        <g id="Group_378" data-name="Group 378" transform="translate(0 8.806)">
          <g id="Group_377" data-name="Group 377">
            <path id="Path_994" data-name="Path 994" d="M404.016,433.842a7.121,7.121,0,0,0-3.888-5.214,1.5,1.5,0,0,0-1.619-.026,1.477,1.477,0,0,0-.124,1.613,6.085,6.085,0,0,0,5.594,3.776" transform="translate(-398.21 -428.372)" fill="navy"/>
          </g>
        </g>
        <g id="Group_381" data-name="Group 381" transform="translate(2.168 10.806)">
          <g id="Group_380" data-name="Group 380">
            <g id="Group_379" data-name="Group 379">
              <path id="Path_995" data-name="Path 995" d="M405.749,435.328a1.817,1.817,0,0,1,.328.144,3.511,3.511,0,0,1,.371.2c.138.086.308.173.475.3a6.517,6.517,0,0,1,.541.408,6.723,6.723,0,0,1,.575.523,8,8,0,0,1,1.1,1.406,7.848,7.848,0,0,1,.722,1.631,6.5,6.5,0,0,1,.181.756,5.715,5.715,0,0,1,.092.67,4.905,4.905,0,0,1,.026.558,3.141,3.141,0,0,1-.012.42,1.921,1.921,0,0,1-.04.357c-.032,0,.023-.512-.069-1.326a6.224,6.224,0,0,0-.106-.659,7.042,7.042,0,0,0-.19-.742,7.994,7.994,0,0,0-.719-1.6,8.22,8.22,0,0,0-1.067-1.389,8.52,8.52,0,0,0-1.081-.938C406.2,435.566,405.735,435.354,405.749,435.328Z" transform="translate(-405.749 -435.327)" fill="#263238"/>
            </g>
          </g>
        </g>
      </g>
    </g>
  </g>
</svg>
