<svg xmlns="http://www.w3.org/2000/svg" xmlns:xlink="http://www.w3.org/1999/xlink" width="2023.869" height="875.01" viewBox="0 0 2023.869 875.01">
  <defs>
    <linearGradient id="linear-gradient" x1="0.5" x2="0.5" y2="1" gradientUnits="objectBoundingBox">
      <stop offset="0" stop-color="navy"/>
      <stop offset="1" stop-color="#000040"/>
    </linearGradient>
    <filter id="Subtraction_12" x="0" y="0" width="2023.869" height="875.01" filterUnits="userSpaceOnUse">
      <feOffset dy="3" input="SourceAlpha"/>
      <feGaussianBlur stdDeviation="3" result="blur"/>
      <feFlood flood-opacity="0.161"/>
      <feComposite operator="in" in2="blur"/>
      <feComposite in="SourceGraphic"/>
    </filter>
  </defs>
  <g transform="matrix(1, 0, 0, 1, 0, 0)" filter="url(#Subtraction_12)">
    <path id="Subtraction_12-2" data-name="Subtraction 12" d="M1483.89,1411.51h-.089c-33.086,0-67.731-1.121-102.974-3.331-33.738-2.116-68.923-5.288-104.577-9.426-33.993-3.946-69.308-8.875-104.964-14.65-33.873-5.487-68.939-11.88-104.224-19-122.069-24.643-252.268-59.007-386.979-102.137-52.918-16.943-106.673-35.3-159.771-54.553-42.477-15.405-84.627-31.417-125.278-47.59-69.4-27.611-110.626-46.245-111.035-46.43l.964-559.89H2274.558a682.961,682.961,0,0,1,11.241,68.6,659.794,659.794,0,0,1,4.061,76.436c-.075,13.57-.586,27.285-1.517,40.763-.973,14.076-2.432,28.292-4.338,42.25-1.984,14.534-4.508,29.2-7.5,43.58-3.109,14.938-6.812,29.995-11.007,44.754-4.348,15.3-9.346,30.7-14.854,45.77-5.7,15.6-12.108,31.289-19.044,46.63-7.166,15.851-15.1,31.776-23.575,47.333-8.745,16.047-18.316,32.156-28.449,47.879-10.441,16.2-21.767,32.439-33.665,48.268-12.246,16.292-25.442,32.61-39.223,48.5-14.165,16.334-29.347,32.677-45.122,48.575-16.2,16.325-33.481,32.641-51.365,48.494a511.561,511.561,0,0,1-52.014,40.365,557.918,557.918,0,0,1-56.925,33.767,629.816,629.816,0,0,1-61.348,27.544c-20.766,8.044-42.73,15.343-65.283,21.7-21.963,6.186-45.088,11.644-68.732,16.223-23,4.453-47.12,8.2-71.692,11.125-23.874,2.845-48.827,5-74.165,6.4C1535.453,1410.818,1509.832,1411.509,1483.89,1411.51Z" transform="translate(-275 -548.5)" opacity="0.21" fill="url(#linear-gradient)"/>
  </g>
</svg>
