<svg xmlns="http://www.w3.org/2000/svg" xmlns:xlink="http://www.w3.org/1999/xlink" width="160.608" height="131.405" viewBox="0 0 160.608 131.405">
  <defs>
    <linearGradient id="linear-gradient" x1="0.4" y1="0.5" x2="0.441" y2="0.5" gradientUnits="objectBoundingBox">
      <stop offset="0" stop-color="#c0b9c8"/>
      <stop offset="1" stop-color="#e0dbe1"/>
    </linearGradient>
    <linearGradient id="linear-gradient-2" y1="0.5" x2="0.902" y2="0.5" gradientUnits="objectBoundingBox">
      <stop offset="0" stop-color="#f8f6fa"/>
      <stop offset="1" stop-color="#fbf8fc"/>
    </linearGradient>
    <clipPath id="clip-path">
      <path id="Path_684" data-name="Path 684" d="M170.283,212.84l2.508,1.446c.292.169.523.062.523-.231a1.084,1.084,0,0,0-.523-.831l-2.508-1.446c-.292-.169-.523-.062-.523.231A1.045,1.045,0,0,0,170.283,212.84Z" transform="translate(-169.76 -211.698)"/>
    </clipPath>
    <linearGradient id="linear-gradient-3" x1="32.202" y1="37.511" x2="32.79" y2="38.199" gradientUnits="objectBoundingBox">
      <stop offset="0.517" stop-color="#788eff"/>
      <stop offset="0.518" stop-color="#7084f5"/>
      <stop offset="0.524" stop-color="#4c54c3"/>
      <stop offset="0.527" stop-color="#3e42b0"/>
    </linearGradient>
  </defs>
  <g id="_x35_" transform="translate(-116.63 -132.64)">
    <g id="Group_40" data-name="Group 40" transform="translate(116.63 132.64)">
      <path id="Path_667" data-name="Path 667" d="M276.845,203.113,225.133,174.88l-41.019,23.679-4.831-19.279L116.63,214.622l1.816,1.046H164.8l43.958,25.372a11.256,11.256,0,0,0,4.754,0l63.329-36.557A.794.794,0,0,0,276.845,203.113Z" transform="translate(-116.63 -109.889)" fill="#50197c" opacity="0.4"/>
      <g id="Group_33" data-name="Group 33" transform="translate(35.124 7.753)">
        <g id="Group_32" data-name="Group 32">
          <g id="Group_28" data-name="Group 28">
            <g id="Group_24" data-name="Group 24">
              <path id="Path_668" data-name="Path 668" d="M203.372,137.7a1.219,1.219,0,0,0-.815.154L140.12,173.9l.462.092,62.437-36.05a1.219,1.219,0,0,1,.815-.154Z" transform="translate(-139.102 -137.679)" fill="#c0b9c8"/>
              <path id="Path_669" data-name="Path 669" d="M153.671,218.722l-13.709-55.759-.462-.092,13.709,55.759a1.382,1.382,0,0,0,1,1.108l.462.092A1.382,1.382,0,0,1,153.671,218.722Z" transform="translate(-139.436 -124.111)" fill="#c0b9c8"/>
              <path id="Path_670" data-name="Path 670" d="M140.938,161.3l-.462-.092a2.42,2.42,0,0,0-.954,2.554l.462.092A2.446,2.446,0,0,1,140.938,161.3Z" transform="translate(-139.459 -125.005)" fill="#e0dbe1"/>
              <path id="Path_671" data-name="Path 671" d="M218.738,194.625l-13.709-55.759c-.246-.969-1.046-1.4-1.816-.954l-62.437,36.05a2.42,2.42,0,0,0-.954,2.554l13.709,55.759c.246.969,1.046,1.4,1.816.954l62.437-36.05A2.42,2.42,0,0,0,218.738,194.625Z" transform="translate(-139.297 -137.648)" fill="#282525"/>
              <path id="Path_672" data-name="Path 672" d="M215.533,189.715l-12.493-50.8-62.329,36L153.2,225.7Z" transform="translate(-138.785 -137.016)" fill="#6426db"/>
            </g>
            <g id="Group_25" data-name="Group 25" transform="translate(15.434 57.657)">
              <path id="Path_673" data-name="Path 673" d="M149.49,203.064V204.8a.953.953,0,0,0,.569.8l43.835,25.31a3,3,0,0,0,2.754,0l62.021-36.05a.984.984,0,0,0,.569-.785V192.34Z" transform="translate(-149.49 -165.895)" fill="url(#linear-gradient)"/>
              <path id="Path_674" data-name="Path 674" d="M258.668,200.8l-43.835-25.31a3,3,0,0,0-2.754,0l-62.021,36.05a.849.849,0,0,0,0,1.6l43.835,25.31a3,3,0,0,0,2.754,0l62.021-36.05A.846.846,0,0,0,258.668,200.8Z" transform="translate(-149.489 -175.153)" fill="url(#linear-gradient-2)"/>
            </g>
            <g id="Group_26" data-name="Group 26" transform="translate(20.75 60.496)">
              <path id="Path_675" data-name="Path 675" d="M206.127,182.133v-.185c-.031-.123.031-.246.2-.339l2.908-1.677a1.079,1.079,0,0,1,1.015,0l2.446,1.416a.324.324,0,0,1,.2.339v.185c.031.123-.031.246-.2.338l-2.908,1.677a1.079,1.079,0,0,1-1.016,0l-2.446-1.416C206.158,182.379,206.1,182.256,206.127,182.133ZM211,179.763l2.446,1.416a1.079,1.079,0,0,0,1.016,0l2.908-1.677a.324.324,0,0,0,.2-.338v-.185c.031-.123-.031-.246-.2-.339l-2.446-1.416a1.079,1.079,0,0,0-1.015,0L211,178.9a.324.324,0,0,0-.2.339v.185A.346.346,0,0,0,211,179.763Zm-9.37,5.416,2.446,1.416a1.079,1.079,0,0,0,1.015,0L208,184.917a.324.324,0,0,0,.2-.339v-.185c.031-.123-.031-.246-.2-.338l-2.446-1.416a1.079,1.079,0,0,0-1.016,0l-2.908,1.677a.324.324,0,0,0-.2.339v.185A.346.346,0,0,0,201.634,185.179Zm-35.265,30.172,2.446,1.415a1.079,1.079,0,0,0,1.015,0l2.908-1.677a.324.324,0,0,0,.2-.339v-.185c.031-.123-.031-.246-.2-.339l-2.446-1.415a1.079,1.079,0,0,0-1.016,0l-2.908,1.677a.324.324,0,0,0-.2.339v.185A.359.359,0,0,0,166.369,215.351Zm10.232-15.74,2.446,1.416a1.079,1.079,0,0,0,1.016,0l2.908-1.677a.324.324,0,0,0,.2-.339v-.185c.031-.123-.031-.246-.2-.339l-2.446-1.416a1.079,1.079,0,0,0-1.016,0L176.6,198.75a.324.324,0,0,0-.2.339v.185A.334.334,0,0,0,176.6,199.611Zm9.37-5.416,2.446,1.415a1.079,1.079,0,0,0,1.015,0l2.908-1.677a.324.324,0,0,0,.2-.339v-.185c.031-.123-.031-.246-.2-.339l-2.446-1.415a1.079,1.079,0,0,0-1.015,0l-2.908,1.677a.324.324,0,0,0-.2.339v.185A.346.346,0,0,0,185.971,194.2Zm9.386-5.416,2.446,1.416a1.079,1.079,0,0,0,1.015,0l4.416-2.554a.324.324,0,0,0,.2-.339v-.185c.031-.123-.031-.246-.2-.339l-2.446-1.415a1.079,1.079,0,0,0-1.015,0l-4.416,2.554a.324.324,0,0,0-.2.339v.185C195.126,188.564,195.188,188.687,195.357,188.779Zm-4.693,2.708,2.446,1.416a1.079,1.079,0,0,0,1.016,0l2.908-1.677a.324.324,0,0,0,.2-.339V190.7c.031-.123-.031-.246-.2-.339l-2.446-1.415a1.079,1.079,0,0,0-1.016,0l-2.908,1.677a.324.324,0,0,0-.2.339v.185A.324.324,0,0,0,190.664,191.487Zm-9.37,5.416,2.446,1.416a1.079,1.079,0,0,0,1.015,0l2.908-1.677a.324.324,0,0,0,.2-.339v-.185c.031-.123-.031-.246-.2-.339l-2.446-1.416a1.079,1.079,0,0,0-1.016,0l-2.908,1.677a.324.324,0,0,0-.2.339v.185C181.063,196.672,181.125,196.811,181.294,196.9Zm19.925-6.539,2.446,1.416a1.079,1.079,0,0,0,1.015,0l2.908-1.677a.324.324,0,0,0,.2-.339v-.185c.031-.123-.031-.246-.2-.339l-2.446-1.416a1.079,1.079,0,0,0-1.016,0l-2.908,1.677a.324.324,0,0,0-.2.339v.185A.373.373,0,0,0,201.219,190.364Zm-37.481,21.648,2.446,1.415a1.079,1.079,0,0,0,1.015,0l2.908-1.677a.324.324,0,0,0,.2-.339v-.185c.031-.123-.031-.246-.2-.339l-2.446-1.415a1.079,1.079,0,0,0-1.016,0l-2.908,1.677a.324.324,0,0,0-.2.339v.185C163.508,211.782,163.569,211.9,163.738,212.012Zm32.8-18.956,2.446,1.415a1.079,1.079,0,0,0,1.016,0l2.908-1.677a.324.324,0,0,0,.2-.339v-.185c.031-.123-.031-.246-.2-.339l-2.446-1.415a1.079,1.079,0,0,0-1.015,0l-2.908,1.677a.324.324,0,0,0-.2.339v.185A.324.324,0,0,0,196.541,193.057Zm-4.693,2.708,2.446,1.416a1.079,1.079,0,0,0,1.015,0l2.908-1.677a.324.324,0,0,0,.2-.339v-.185c.031-.123-.031-.246-.2-.339l-2.446-1.416a1.079,1.079,0,0,0-1.016,0l-2.908,1.677a.324.324,0,0,0-.2.339v.185A.346.346,0,0,0,191.849,195.765Zm-4.677,2.708,2.446,1.416a1.079,1.079,0,0,0,1.015,0l2.908-1.677a.324.324,0,0,0,.2-.338v-.185c.031-.123-.031-.246-.2-.339l-2.446-1.416a1.079,1.079,0,0,0-1.016,0l-2.908,1.677a.324.324,0,0,0-.2.339v.185C186.941,198.257,187,198.38,187.171,198.473ZM168.416,209.3l2.446,1.415a1.079,1.079,0,0,0,1.015,0l2.908-1.677a.324.324,0,0,0,.2-.339v-.185c.031-.123-.031-.246-.2-.339l-2.446-1.415a1.079,1.079,0,0,0-1.016,0l-2.908,1.677a.324.324,0,0,0-.2.339v.185A.359.359,0,0,0,168.416,209.3Zm4.693-2.708,2.446,1.415a1.079,1.079,0,0,0,1.016,0l2.908-1.677a.324.324,0,0,0,.2-.339v-.185c.031-.123-.031-.246-.2-.339-3.585-2.077-2.385-2.031-6.37.262a.324.324,0,0,0-.2.339v.185C172.878,206.366,172.939,206.5,173.108,206.6Zm4.677-2.708,2.446,1.416a1.079,1.079,0,0,0,1.015,0l2.908-1.677a.324.324,0,0,0,.2-.339V203.1c.031-.123-.031-.246-.2-.339l-2.446-1.416a1.079,1.079,0,0,0-1.016,0l-2.908,1.677a.324.324,0,0,0-.2.338v.185A.346.346,0,0,0,177.786,203.889Zm4.693-2.708c2.4,1.385,2.816,1.785,3.462,1.416l2.908-1.677a.324.324,0,0,0,.2-.339V200.4c.031-.123-.031-.246-.2-.339l-2.446-1.416a1.079,1.079,0,0,0-1.015,0l-2.908,1.677a.324.324,0,0,0-.2.338v.185A.324.324,0,0,0,182.479,201.181Zm-8.355,17.832v-.185c.031-.123-.031-.246-.2-.339l-2.446-1.415a1.079,1.079,0,0,0-1.015,0l-4.416,2.554a.324.324,0,0,0-.2.339v.185c-.031.123.031.246.2.339l2.446,1.415a1.079,1.079,0,0,0,1.015,0l4.416-2.554A.3.3,0,0,0,174.124,219.013Zm-5.877-1.569v-.185c.031-.123-.031-.246-.2-.339l-2.446-1.415a1.079,1.079,0,0,0-1.015,0l-2.908,1.677a.324.324,0,0,0-.2.339v.185c-.031.123.031.246.2.339l2.446,1.415a1.079,1.079,0,0,0,1.016,0l2.908-1.677C168.216,217.69,168.277,217.567,168.246,217.444Zm3.662-15.125c3.523,2.031,2.308,2.077,6.37-.262a.324.324,0,0,0,.2-.339v-.185c.031-.123-.031-.246-.2-.339l-2.446-1.416a1.079,1.079,0,0,0-1.015,0l-2.908,1.677a.324.324,0,0,0-.2.338v.185A.373.373,0,0,0,171.908,202.319Zm49.112-10.339V191.8c.031-.123-.031-.246-.2-.339l-2.446-1.416a1.079,1.079,0,0,0-1.016,0l-2.908,1.677a.324.324,0,0,0-.2.339v.185c-.031.123.031.246.2.338L216.9,194a1.079,1.079,0,0,0,1.016,0l2.908-1.677C220.99,192.226,221.052,192.1,221.021,191.98ZM165.6,214.1v-.185c.031-.123-.031-.246-.2-.339l-2.446-1.415a1.079,1.079,0,0,0-1.016,0l-4.416,2.554a.324.324,0,0,0-.2.339v.185c-.031.123.031.246.2.339L159.969,217a1.079,1.079,0,0,0,1.016,0l4.416-2.554C165.569,214.351,165.631,214.228,165.6,214.1Zm1.631-9.093,2.446,1.416a1.079,1.079,0,0,0,1.016,0l2.908-1.677a.324.324,0,0,0,.2-.339v-.185c.031-.123-.031-.246-.2-.339l-2.446-1.416a1.079,1.079,0,0,0-1.015,0l-2.908,1.677a.324.324,0,0,0-.2.338v.185A.324.324,0,0,0,167.231,205.012Zm-4.693,2.708,2.446,1.416a1.079,1.079,0,0,0,1.015,0l2.908-1.677a.324.324,0,0,0,.2-.339v-.185c.031-.123-.031-.246-.2-.339l-2.446-1.416a1.079,1.079,0,0,0-1.016,0l-2.908,1.677a.324.324,0,0,0-.2.338v.185A.346.346,0,0,0,162.538,207.72Zm-2.816,4.8v-.185c.031-.123-.031-.246-.2-.339l-2.446-1.416a1.079,1.079,0,0,0-1.015,0l-2.908,1.677a.324.324,0,0,0-.2.338v.185c-.031.123.031.246.2.339l2.446,1.416a1.079,1.079,0,0,0,1.015,0l2.908-1.677A.3.3,0,0,0,159.723,212.52Zm-1.862-2.092,2.446,1.416a1.079,1.079,0,0,0,1.015,0l2.908-1.677a.324.324,0,0,0,.2-.339v-.185c.031-.123-.031-.246-.2-.339l-2.446-1.416a1.079,1.079,0,0,0-1.016,0l-2.908,1.677a.324.324,0,0,0-.2.338v.185C157.63,210.212,157.692,210.335,157.861,210.428Zm76.823-21.587c.031-.123-.031-.246-.2-.339l-2.446-1.415a1.079,1.079,0,0,0-1.016,0l-2.908,1.677a.324.324,0,0,0-.2.339v.185c-.031.123.031.246.2.339l2.446,1.415a1.079,1.079,0,0,0,1.015,0l2.908-1.677a.324.324,0,0,0,.2-.339v-.092A.1.1,0,0,0,234.684,188.841Zm-18.571,5.277-2.446-1.416a1.079,1.079,0,0,0-1.015,0l-2.908,1.677a.324.324,0,0,0-.2.339v.185c-.031.123.031.246.2.339l2.446,1.416a1.079,1.079,0,0,0,1.015,0l2.908-1.677a.324.324,0,0,0,.2-.339v-.185A.359.359,0,0,0,216.113,194.118Zm9.4-5.385-2.446-1.415a1.079,1.079,0,0,0-1.015,0l-2.908,1.677a.324.324,0,0,0-.2.339v.185c-.031.123.031.246.2.339l2.446,1.415a1.079,1.079,0,0,0,1.015,0l2.908-1.677a.324.324,0,0,0,.2-.339v-.185C225.744,188.949,225.683,188.826,225.514,188.733Zm-18.771,10.8-2.446-1.415a1.079,1.079,0,0,0-1.015,0l-2.908,1.677a.324.324,0,0,0-.2.339v.185c-.031.123.031.246.2.339l2.446,1.415a1.079,1.079,0,0,0,1.016,0l2.908-1.677a.324.324,0,0,0,.2-.339v-.185A.346.346,0,0,0,206.742,199.534Zm16.909-12.894v.185c-.031.123.031.246.2.339l2.446,1.415a1.079,1.079,0,0,0,1.016,0l2.908-1.677a.324.324,0,0,0,.2-.339v-.185c.031-.123-.031-.246-.2-.339l-2.446-1.415a1.079,1.079,0,0,0-1.016,0l-2.908,1.677A.3.3,0,0,0,223.652,186.641Zm-35.665,23.71-2.446-1.416a1.079,1.079,0,0,0-1.016,0l-2.908,1.677a.324.324,0,0,0-.2.338v.185c-.031.123.031.246.2.339l2.446,1.416a1.079,1.079,0,0,0,1.015,0l2.908-1.677a.324.324,0,0,0,.2-.339v-.185A.345.345,0,0,0,187.987,210.351Zm9.37-5.4-2.446-1.416a1.079,1.079,0,0,0-1.015,0l-2.908,1.677a.324.324,0,0,0-.2.339v.185c-.031.123.031.246.2.338l2.446,1.416a1.079,1.079,0,0,0,1.016,0l2.908-1.677a.324.324,0,0,0,.2-.339v-.185C197.588,205.166,197.526,205.042,197.357,204.95Zm-4.677,2.708-2.446-1.416a1.079,1.079,0,0,0-1.015,0l-2.908,1.677a.324.324,0,0,0-.2.338v.185c-.031.123.031.246.2.339l2.446,1.416a1.079,1.079,0,0,0,1.016,0l2.908-1.677a.324.324,0,0,0,.2-.339V208A.346.346,0,0,0,192.68,207.658Zm-9.386,5.4-2.446-1.416a1.079,1.079,0,0,0-1.015,0l-2.908,1.677a.324.324,0,0,0-.2.338v.185c-.031.123.031.246.2.339l2.446,1.416a1.079,1.079,0,0,0,1.016,0l2.908-1.677a.324.324,0,0,0,.2-.339V213.4C183.525,213.289,183.463,213.151,183.294,213.059Zm-4.677,2.708-2.446-1.416a1.079,1.079,0,0,0-1.015,0l-2.908,1.677a.324.324,0,0,0-.2.339v.185c-.031.123.031.246.2.339l2.446,1.416a1.079,1.079,0,0,0,1.015,0l2.908-1.677a.324.324,0,0,0,.2-.339v-.185A.359.359,0,0,0,178.617,215.767Zm23.433-13.524-2.446-1.416a1.079,1.079,0,0,0-1.016,0L195.68,202.5a.324.324,0,0,0-.2.339v.185c-.031.123.031.246.2.338l2.446,1.416a1.079,1.079,0,0,0,1.015,0l2.908-1.677a.324.324,0,0,0,.2-.339v-.185A.324.324,0,0,0,202.05,202.242Zm9.37-5.416-2.446-1.415a1.079,1.079,0,0,0-1.016,0l-2.908,1.677a.324.324,0,0,0-.2.339v.185c-.031.123.031.246.2.339l2.446,1.415a1.079,1.079,0,0,0,1.016,0l2.908-1.677a.324.324,0,0,0,.2-.339v-.185A.324.324,0,0,0,211.42,196.826ZM185.925,216.4l-2.446-1.416a1.079,1.079,0,0,0-1.016,0l-2.908,1.677a.324.324,0,0,0-.2.339v.185c-.031.123.031.246.2.339L182,218.936a1.079,1.079,0,0,0,1.016,0l2.908-1.677a.324.324,0,0,0,.2-.338v-.185A.324.324,0,0,0,185.925,216.4Zm4.693-2.708-2.446-1.416a1.079,1.079,0,0,0-1.016,0l-2.908,1.677a.324.324,0,0,0-.2.339v.185c-.031.123.031.246.2.339l2.446,1.416a1.079,1.079,0,0,0,1.015,0l2.908-1.677a.324.324,0,0,0,.2-.338v-.185A.346.346,0,0,0,190.618,213.689Zm-9.386,5.416-2.446-1.416a1.079,1.079,0,0,0-1.015,0l-2.908,1.677a.324.324,0,0,0-.2.338v.185c-.031.123.031.246.2.339l2.446,1.416a1.079,1.079,0,0,0,1.015,0l2.908-1.677a.324.324,0,0,0,.2-.339v-.185C181.463,219.321,181.4,219.2,181.232,219.105Zm-4.677,2.708-2.446-1.416a1.079,1.079,0,0,0-1.016,0l-2.908,1.677a.324.324,0,0,0-.2.339v.185c-.031.123.031.246.2.339l2.446,1.416a1.079,1.079,0,0,0,1.015,0l2.908-1.677a.324.324,0,0,0,.2-.339v-.185A.346.346,0,0,0,176.555,221.813Zm35.188-30.141-2.446-1.415a1.079,1.079,0,0,0-1.016,0l-4.416,2.554a.324.324,0,0,0-.2.339v.185c-.031.123.031.246.2.339l2.446,1.416a1.079,1.079,0,0,0,1.016,0l4.416-2.554a.324.324,0,0,0,.2-.339v-.185A.334.334,0,0,0,211.743,191.672Zm8.478,4.924-2.446-1.416a1.079,1.079,0,0,0-1.015,0l-4.416,2.554a.324.324,0,0,0-.2.339v.185c-.031.123.031.246.2.339l2.446,1.415a1.079,1.079,0,0,0,1.015,0l4.416-2.554a.324.324,0,0,0,.2-.339v-.185A.359.359,0,0,0,220.221,196.6Zm9.586-5.385-2.446-1.416a1.079,1.079,0,0,0-1.016,0l-2.908,1.677a.324.324,0,0,0-.2.339V192c-.031.123.031.246.2.338l2.446,1.416a1.079,1.079,0,0,0,1.016,0l2.908-1.677a.324.324,0,0,0,.2-.339v-.185A.346.346,0,0,0,229.806,191.21Zm-4.693,2.693-2.446-1.416a1.079,1.079,0,0,0-1.015,0l-2.908,1.677a.324.324,0,0,0-.2.339v.185c-.031.123.031.246.2.338l2.446,1.416a1.079,1.079,0,0,0,1.016,0l2.908-1.677a.324.324,0,0,0,.2-.339v-.185A.345.345,0,0,0,225.113,193.9Zm-10.986,6.262-2.446-1.416a1.079,1.079,0,0,0-1.016,0l-21.71,12.54a.324.324,0,0,0-.2.338v.185c-.031.123.031.246.2.339l2.446,1.416a1.079,1.079,0,0,0,1.016,0l21.71-12.54a.324.324,0,0,0,.2-.339V200.5A.346.346,0,0,0,214.128,200.165Zm-17.956.492-2.446-1.415a1.079,1.079,0,0,0-1.016,0l-2.908,1.677a.324.324,0,0,0-.2.339v.185c-.031.123.031.246.2.339l2.446,1.415a1.079,1.079,0,0,0,1.015,0l2.908-1.677a.324.324,0,0,0,.2-.339V201A.345.345,0,0,0,196.172,200.657Zm-4.693,2.708-2.446-1.415a1.079,1.079,0,0,0-1.016,0l-2.908,1.677a.324.324,0,0,0-.2.339v.185c-.031.123.031.246.2.339l2.446,1.415a1.079,1.079,0,0,0,1.016,0l2.908-1.677a.324.324,0,0,0,.2-.339V203.7C191.71,203.6,191.649,203.458,191.479,203.365Zm9.385-5.4-2.446-1.415a1.079,1.079,0,0,0-1.015,0l-2.908,1.677a.324.324,0,0,0-.2.339v.185c-.031.123.031.246.2.339l2.446,1.415a1.079,1.079,0,0,0,1.016,0l2.908-1.677a.324.324,0,0,0,.2-.339V198.3A.346.346,0,0,0,200.865,197.965ZM215.082,181.7v.185c-.031.123.031.246.2.339l2.446,1.416a1.079,1.079,0,0,0,1.015,0l2.908-1.677a.324.324,0,0,0,.2-.338v-.185c.031-.123-.031-.246-.2-.339l-2.446-1.416a1.079,1.079,0,0,0-1.016,0l-2.908,1.677A.334.334,0,0,0,215.082,181.7Zm-9.539,13.555-2.446-1.416a1.079,1.079,0,0,0-1.016,0l-2.908,1.677a.324.324,0,0,0-.2.338v.185c-.031.123.031.246.2.339l2.446,1.416a1.079,1.079,0,0,0,1.015,0l2.908-1.677a.324.324,0,0,0,.2-.339V195.6C205.773,195.472,205.712,195.349,205.542,195.257ZM186.8,206.073l-2.446-1.415a1.079,1.079,0,0,0-1.015,0l-2.908,1.677a.324.324,0,0,0-.2.339v.185c-.031.123.031.246.2.339l2.446,1.415a1.079,1.079,0,0,0,1.016,0l2.908-1.677a.324.324,0,0,0,.2-.339v-.185A.359.359,0,0,0,186.8,206.073Zm-9.37,5.416-2.446-1.416a1.079,1.079,0,0,0-1.016,0l-2.908,1.677a.324.324,0,0,0-.2.339v.185c-.031.123.031.246.2.339l2.446,1.416a1.079,1.079,0,0,0,1.016,0l2.908-1.677a.324.324,0,0,0,.2-.338v-.185A.346.346,0,0,0,177.432,211.489Zm4.677-2.708-2.446-1.416a1.079,1.079,0,0,0-1.016,0l-2.908,1.677a.324.324,0,0,0-.2.339v.185c-.031.123.031.246.2.338l2.446,1.416a1.079,1.079,0,0,0,1.015,0l2.908-1.677a.324.324,0,0,0,.2-.339v-.185A.324.324,0,0,0,182.109,208.781Z" transform="translate(-152.945 -176.944)" fill="#c0b9c8"/>
              <path id="Path_676" data-name="Path 676" d="M159.533,212.5l-2.908,1.677a1.079,1.079,0,0,1-1.016,0l-2.446-1.416c-.277-.169-.277-.431,0-.585l2.908-1.677a1.079,1.079,0,0,1,1.015,0l2.446,1.415C159.81,212.066,159.81,212.328,159.533,212.5Zm4.677-3.293-2.446-1.416a1.079,1.079,0,0,0-1.016,0l-2.908,1.677c-.277.169-.277.431,0,.585l2.446,1.416a1.079,1.079,0,0,0,1.016,0l2.908-1.677A.3.3,0,0,0,164.21,209.2ZM168.9,206.5l-2.446-1.416a1.079,1.079,0,0,0-1.015,0l-2.908,1.677c-.277.169-.277.431,0,.585l2.446,1.416a1.079,1.079,0,0,0,1.015,0l2.908-1.677C169.18,206.927,169.18,206.666,168.9,206.5Zm4.693-2.708-2.446-1.416a1.079,1.079,0,0,0-1.015,0l-2.908,1.677c-.277.169-.277.431,0,.585l2.446,1.416a1.079,1.079,0,0,0,1.016,0l2.908-1.677C173.872,204.219,173.872,203.958,173.6,203.789Zm4.677-2.708-2.446-1.416a1.079,1.079,0,0,0-1.015,0l-2.908,1.677c-.277.169-.277.431,0,.585l2.446,1.415a1.079,1.079,0,0,0,1.015,0l2.908-1.677C178.565,201.511,178.565,201.25,178.273,201.081Zm4.693-2.708-2.446-1.416a1.079,1.079,0,0,0-1.016,0l-2.908,1.677c-.277.169-.277.431,0,.585l2.446,1.415a1.079,1.079,0,0,0,1.016,0l2.908-1.677C183.243,198.8,183.243,198.542,182.966,198.373Zm4.677-2.708-2.446-1.415a1.079,1.079,0,0,0-1.016,0l-2.908,1.677c-.277.169-.277.431,0,.585l2.446,1.416a1.079,1.079,0,0,0,1.016,0l2.908-1.677C187.935,196.1,187.935,195.834,187.643,195.665Zm4.693-2.693-2.446-1.416a1.079,1.079,0,0,0-1.015,0l-2.908,1.677c-.277.169-.277.431,0,.585l2.446,1.415a1.079,1.079,0,0,0,1.015,0l2.908-1.677C192.613,193.388,192.613,193.126,192.336,192.972Zm4.693-2.708-2.446-1.415a1.079,1.079,0,0,0-1.016,0l-2.908,1.677c-.277.169-.277.431,0,.585l2.446,1.416a1.079,1.079,0,0,0,1.016,0l2.908-1.677C197.305,190.68,197.305,190.418,197.028,190.264Zm6.2-3.585-2.446-1.415a1.079,1.079,0,0,0-1.015,0l-4.416,2.554c-.277.169-.277.431,0,.585l2.446,1.416a1.079,1.079,0,0,0,1.015,0l4.416-2.554C203.506,187.11,203.506,186.848,203.229,186.679Zm17.6,4.677-2.446-1.416a1.079,1.079,0,0,0-1.016,0l-2.908,1.677c-.277.169-.277.431,0,.585l2.446,1.415a1.079,1.079,0,0,0,1.015,0l2.908-1.677C221.108,191.787,221.108,191.526,220.831,191.357Zm4.677-2.708-2.446-1.416a1.079,1.079,0,0,0-1.015,0l-2.908,1.677c-.277.169-.277.431,0,.585l2.446,1.415a1.079,1.079,0,0,0,1.015,0l2.908-1.677C225.8,189.079,225.8,188.818,225.508,188.649Zm4.693-2.693-2.446-1.416a1.079,1.079,0,0,0-1.016,0l-2.908,1.677c-.277.169-.277.431,0,.585l2.446,1.415a1.079,1.079,0,0,0,1.016,0l2.908-1.677C230.478,186.371,230.478,186.11,230.2,185.956Zm-5.093,7.878-2.446-1.416a1.079,1.079,0,0,0-1.015,0l-2.908,1.677c-.277.169-.277.431,0,.585l2.446,1.416a1.079,1.079,0,0,0,1.016,0l2.908-1.677C225.385,194.265,225.385,194,225.108,193.834Zm4.693-2.708-2.446-1.416a1.079,1.079,0,0,0-1.016,0l-2.908,1.677c-.277.169-.277.431,0,.585l2.446,1.415a1.079,1.079,0,0,0,1.016,0l2.908-1.677C230.078,191.557,230.078,191.3,229.8,191.126Zm4.677-2.708L232.032,187a1.079,1.079,0,0,0-1.016,0l-2.908,1.677c-.277.169-.277.431,0,.585l2.446,1.415a1.079,1.079,0,0,0,1.015,0L234.478,189C234.771,188.849,234.771,188.587,234.478,188.418ZM165.41,213.482l-2.446-1.416a1.079,1.079,0,0,0-1.015,0l-4.416,2.554c-.277.169-.277.431,0,.585l2.446,1.416a1.079,1.079,0,0,0,1.015,0l4.416-2.554C165.687,213.913,165.687,213.651,165.41,213.482Zm4.677-2.708-2.446-1.415a1.079,1.079,0,0,0-1.015,0l-2.908,1.677c-.277.169-.277.431,0,.585l2.446,1.416a1.079,1.079,0,0,0,1.016,0l2.908-1.677C170.38,211.2,170.38,210.943,170.087,210.774Zm4.693-2.708-2.446-1.415a1.079,1.079,0,0,0-1.016,0l-2.908,1.677c-.277.169-.277.431,0,.585l2.446,1.416a1.079,1.079,0,0,0,1.015,0l2.908-1.677C175.057,208.5,175.057,208.235,174.78,208.066Zm4.693-2.708-2.446-1.416a1.079,1.079,0,0,0-1.016,0l-2.908,1.677c-.277.169-.277.431,0,.585l2.446,1.416a1.079,1.079,0,0,0,1.016,0l2.908-1.677C179.75,205.789,179.75,205.527,179.473,205.358Zm4.677-2.693L181.7,201.25a1.079,1.079,0,0,0-1.016,0l-2.908,1.677c-.277.169-.277.431,0,.585l2.446,1.416a1.079,1.079,0,0,0,1.015,0l2.908-1.677C184.427,203.081,184.427,202.819,184.15,202.665Zm4.693-2.708-2.446-1.416a1.079,1.079,0,0,0-1.015,0l-2.908,1.677c-.277.169-.277.431,0,.585l2.446,1.416a1.079,1.079,0,0,0,1.016,0l2.908-1.677C189.12,200.373,189.12,200.111,188.843,199.957Zm4.677-2.708-2.446-1.416a1.079,1.079,0,0,0-1.016,0l-2.908,1.677c-.277.169-.277.431,0,.585l2.446,1.416a1.079,1.079,0,0,0,1.016,0l2.908-1.677A.3.3,0,0,0,193.52,197.249Zm4.693-2.708-2.446-1.416a1.079,1.079,0,0,0-1.016,0l-2.908,1.677c-.277.169-.277.431,0,.585l2.446,1.415a1.079,1.079,0,0,0,1.015,0l2.908-1.677C198.49,194.972,198.49,194.711,198.213,194.541Zm4.693-2.708-2.446-1.416a1.079,1.079,0,0,0-1.015,0l-2.908,1.677c-.277.169-.277.431,0,.585l2.446,1.415a1.079,1.079,0,0,0,1.016,0l2.908-1.677C203.183,192.264,203.183,192,202.906,191.834Zm4.677-2.708-2.446-1.415a1.079,1.079,0,0,0-1.016,0l-2.908,1.677c-.277.169-.277.431,0,.585l2.446,1.416a1.079,1.079,0,0,0,1.015,0l2.908-1.677C207.876,189.556,207.876,189.295,207.583,189.126Zm-39.542,27.695-2.446-1.415a1.079,1.079,0,0,0-1.015,0l-2.908,1.677c-.277.169-.277.431,0,.585l2.446,1.416a1.079,1.079,0,0,0,1.016,0l2.908-1.677C168.333,217.251,168.333,216.99,168.041,216.821Zm4.693-2.708-2.446-1.416a1.079,1.079,0,0,0-1.016,0l-2.908,1.677c-.277.169-.277.431,0,.585l2.446,1.416a1.079,1.079,0,0,0,1.015,0l2.908-1.677C173.011,214.543,173.011,214.282,172.734,214.113Zm4.693-2.693L174.98,210a1.079,1.079,0,0,0-1.016,0l-2.908,1.677c-.277.169-.277.431,0,.585l2.446,1.416a1.079,1.079,0,0,0,1.016,0L177.427,212C177.7,211.835,177.7,211.574,177.427,211.42Zm4.677-2.708-2.446-1.416a1.079,1.079,0,0,0-1.016,0l-2.908,1.677c-.277.169-.277.431,0,.585l2.446,1.416a1.079,1.079,0,0,0,1.015,0L182.1,209.3C182.381,209.128,182.381,208.866,182.1,208.712Zm-5.554,13.017-2.446-1.416a1.079,1.079,0,0,0-1.016,0l-2.908,1.677c-.277.169-.277.431,0,.585l2.446,1.415a1.079,1.079,0,0,0,1.015,0l2.908-1.677C176.827,222.16,176.827,221.9,176.55,221.729Zm4.677-2.708-2.446-1.415a1.079,1.079,0,0,0-1.015,0l-2.908,1.677c-.277.169-.277.431,0,.585l2.446,1.416a1.079,1.079,0,0,0,1.015,0l2.908-1.677C181.519,219.452,181.519,219.19,181.227,219.021Zm4.693-2.693-2.446-1.415a1.079,1.079,0,0,0-1.016,0l-2.908,1.677c-.277.169-.277.431,0,.585L182,218.59a1.079,1.079,0,0,0,1.016,0l2.908-1.677C186.2,216.744,186.2,216.482,185.92,216.328Zm4.693-2.708-2.446-1.415a1.079,1.079,0,0,0-1.016,0l-2.908,1.677c-.277.169-.277.431,0,.585l2.446,1.416a1.079,1.079,0,0,0,1.015,0l2.908-1.677C190.889,214.036,190.889,213.774,190.612,213.62Zm29.6-17.094-2.446-1.416a1.079,1.079,0,0,0-1.015,0l-4.416,2.554c-.277.169-.277.431,0,.585l2.446,1.416a1.079,1.079,0,0,0,1.015,0l4.416-2.554C220.492,196.942,220.492,196.68,220.215,196.526ZM186.8,206l-2.446-1.416a1.079,1.079,0,0,0-1.015,0l-2.908,1.677c-.277.169-.277.431,0,.585l2.446,1.416a1.079,1.079,0,0,0,1.016,0l2.908-1.677A.31.31,0,0,0,186.8,206Zm4.677-2.708-2.446-1.416a1.079,1.079,0,0,0-1.016,0l-2.908,1.677c-.277.169-.277.431,0,.585l2.446,1.415a1.079,1.079,0,0,0,1.016,0l2.908-1.677C191.766,203.727,191.766,203.465,191.474,203.3Zm4.693-2.708-2.446-1.416a1.079,1.079,0,0,0-1.016,0L189.8,200.85c-.277.169-.277.431,0,.585l2.446,1.415a1.079,1.079,0,0,0,1.015,0l2.908-1.677C196.444,201.019,196.444,200.757,196.167,200.588Zm4.693-2.708-2.446-1.416a1.079,1.079,0,0,0-1.015,0l-2.908,1.677c-.277.169-.277.431,0,.585l2.446,1.415a1.079,1.079,0,0,0,1.016,0l2.908-1.677C201.137,198.311,201.137,198.049,200.86,197.88Zm4.677-2.708-2.446-1.415a1.079,1.079,0,0,0-1.016,0l-2.908,1.677c-.277.169-.277.431,0,.585l2.446,1.416a1.079,1.079,0,0,0,1.015,0l2.908-1.677C205.829,195.6,205.829,195.342,205.537,195.172Zm6.2-3.57-2.446-1.416a1.079,1.079,0,0,0-1.016,0l-4.416,2.554c-.277.169-.277.431,0,.585l2.446,1.415a1.079,1.079,0,0,0,1.016,0l4.416-2.554C212.015,192.018,212.015,191.757,211.738,191.6Zm-37.819,26.8-2.446-1.416a1.079,1.079,0,0,0-1.015,0l-4.416,2.554c-.277.169-.277.431,0,.585l2.446,1.415a1.079,1.079,0,0,0,1.015,0l4.416-2.554C174.211,218.821,174.211,218.559,173.919,218.405Zm4.693-2.708-2.446-1.416a1.079,1.079,0,0,0-1.015,0l-2.908,1.677c-.277.169-.277.431,0,.585l2.446,1.415a1.079,1.079,0,0,0,1.015,0l2.908-1.677A.31.31,0,0,0,178.611,215.7Zm4.677-2.708-2.446-1.415a1.079,1.079,0,0,0-1.015,0l-2.908,1.677c-.277.169-.277.431,0,.585l2.446,1.416a1.079,1.079,0,0,0,1.016,0l2.908-1.677C183.581,213.42,183.581,213.159,183.289,212.989Zm4.693-2.708-2.446-1.415a1.079,1.079,0,0,0-1.016,0l-2.908,1.677c-.277.169-.277.431,0,.585l2.446,1.416a1.079,1.079,0,0,0,1.015,0l2.908-1.677C188.258,210.712,188.258,210.451,187.981,210.281Zm4.693-2.708-2.446-1.416a1.079,1.079,0,0,0-1.015,0l-2.908,1.677c-.277.169-.277.431,0,.585l2.446,1.416a1.079,1.079,0,0,0,1.016,0l2.908-1.677C192.951,208,192.951,207.743,192.674,207.574Zm21.448-7.478-2.446-1.416a1.079,1.079,0,0,0-1.016,0l-21.71,12.54c-.277.169-.277.431,0,.585l2.446,1.416a1.079,1.079,0,0,0,1.016,0l21.71-12.54C214.4,200.511,214.4,200.25,214.122,200.1Zm-16.771,4.77-2.446-1.416a1.079,1.079,0,0,0-1.015,0l-2.908,1.677c-.277.169-.277.431,0,.585l2.446,1.416a1.079,1.079,0,0,0,1.016,0l2.908-1.677C197.644,205.3,197.644,205.035,197.352,204.866Zm4.693-2.708-2.446-1.416a1.079,1.079,0,0,0-1.016,0l-2.908,1.677c-.277.169-.277.431,0,.585l2.446,1.416a1.079,1.079,0,0,0,1.015,0l2.908-1.677C202.321,202.588,202.321,202.327,202.044,202.158Zm4.693-2.693-2.446-1.416a1.079,1.079,0,0,0-1.015,0l-2.908,1.677c-.277.169-.277.431,0,.585l2.446,1.416a1.079,1.079,0,0,0,1.016,0l2.908-1.677C207.014,199.88,207.014,199.619,206.737,199.465Zm4.677-2.708-2.446-1.416a1.079,1.079,0,0,0-1.016,0l-2.908,1.677c-.277.169-.277.431,0,.585l2.446,1.415a1.079,1.079,0,0,0,1.016,0l2.908-1.677C211.691,197.173,211.691,196.911,211.414,196.757Zm4.693-2.708-2.446-1.416a1.079,1.079,0,0,0-1.015,0l-2.908,1.677c-.277.169-.277.431,0,.585l2.446,1.415a1.079,1.079,0,0,0,1.015,0l2.908-1.677A.31.31,0,0,0,216.107,194.049ZM208,183.956l-2.446-1.416a1.079,1.079,0,0,0-1.016,0l-2.908,1.677c-.277.169-.277.431,0,.585l2.446,1.416a1.079,1.079,0,0,0,1.015,0L208,184.541A.31.31,0,0,0,208,183.956Zm4.677-2.708-2.446-1.416a1.079,1.079,0,0,0-1.015,0l-2.908,1.677c-.277.169-.277.431,0,.585l2.446,1.416a1.079,1.079,0,0,0,1.015,0l2.908-1.677C212.968,181.679,212.968,181.417,212.676,181.248Zm4.693-2.708-2.446-1.416a1.079,1.079,0,0,0-1.016,0L211,178.8c-.277.169-.277.431,0,.585l2.446,1.416a1.079,1.079,0,0,0,1.016,0l2.908-1.677C217.646,178.971,217.646,178.709,217.369,178.54ZM221.646,181l-2.446-1.416a1.079,1.079,0,0,0-1.016,0l-2.908,1.677c-.277.169-.277.431,0,.585l2.446,1.416a1.079,1.079,0,0,0,1.015,0l2.908-1.677C221.923,181.433,221.923,181.171,221.646,181Z" transform="translate(-152.94 -176.997)" fill="#3d3838"/>
            </g>
            <path id="Path_677" data-name="Path 677" d="M219.018,202.535l-21.541,12.432a1.955,1.955,0,0,1-1.754,0l-14.278-8.247a.539.539,0,0,1,0-1.015l21.541-12.432a1.955,1.955,0,0,1,1.754,0l14.278,8.247C219.51,201.812,219.51,202.258,219.018,202.535Z" transform="translate(-117.037 -107.847)" fill="#e0dbe1" opacity="0.2"/>
            <path id="Path_678" data-name="Path 678" d="M181.456,205.976,203,193.544a1.955,1.955,0,0,1,1.754,0l14.278,8.247a.754.754,0,0,1,.339.369c.077-.231-.046-.462-.339-.631l-14.278-8.247a1.955,1.955,0,0,0-1.754,0l-21.541,12.432c-.292.169-.415.415-.339.631A.7.7,0,0,1,181.456,205.976Z" transform="translate(-117.033 -107.842)" fill="#e0dbe1"/>
            <path id="Path_679" data-name="Path 679" d="M211.988,175.86l-61.006,35.219-.092.062,2.077,1.2,60.99-35.219.092-.062Zm-59.006,36.327-1.816-1.046L212,176.014l1.816,1.046Z" transform="translate(-133.302 -117.114)" fill="#c0b9c8" opacity="0.4"/>
            <g id="Group_27" data-name="Group 27" transform="translate(73.464 65.304)">
              <path id="Path_680" data-name="Path 680" d="M199.306,182.645l-3.216-1.862a1.434,1.434,0,0,0-1.277,0l-7.355,4.247a.388.388,0,0,0-.246.415v.185a.388.388,0,0,0,.246.415l6.416,3.708a1.434,1.434,0,0,0,1.277,0l12.2-7.047a.388.388,0,0,0,.246-.415v-.185a.388.388,0,0,0-.246-.415l-2.385-1.385a.914.914,0,0,0-.846,0l-4.093,2.339A.849.849,0,0,1,199.306,182.645Z" transform="translate(-187.206 -180.079)" fill="#c0b9c8"/>
              <path id="Path_681" data-name="Path 681" d="M207.352,181.611l-2.385-1.385a.914.914,0,0,0-.846,0l-4.093,2.339a.815.815,0,0,1-.708,0L196.1,180.7a1.434,1.434,0,0,0-1.277,0l-7.355,4.247c-.354.2-.354.523,0,.739l6.416,3.708a1.434,1.434,0,0,0,1.277,0l12.2-7.047A.392.392,0,0,0,207.352,181.611Z" transform="translate(-187.205 -180.122)" fill="#3d3838"/>
            </g>
          </g>
          <g id="Group_31" data-name="Group 31" transform="translate(46.621 113.886)">
            <g id="Group_30" data-name="Group 30">
              <path id="Path_682" data-name="Path 682" d="M170.283,212.84l2.508,1.446c.292.169.523.062.523-.231a1.084,1.084,0,0,0-.523-.831l-2.508-1.446c-.292-.169-.523-.062-.523.231A1.045,1.045,0,0,0,170.283,212.84Z" transform="translate(-169.76 -211.698)" fill="#282525"/>
              <g id="Group_29" data-name="Group 29" clip-path="url(#clip-path)">
                <path id="Path_683" data-name="Path 683" d="M172.348,213.876l.354.2,1.246-.723-.354-.2Zm-.769-.446.354.2,1.246-.723-.354-.2Zm-.769-.431.354.2,1.246-.723-.354-.2Zm-.769-.446.354.2,1.246-.723-.354-.2Z" transform="translate(-169.609 -211.626)" fill="#ad852c"/>
              </g>
            </g>
          </g>
        </g>
      </g>
      <g id="Group_39" data-name="Group 39" transform="translate(42.881)">
        <path id="Path_685" data-name="Path 685" d="M144.5,173.738l9.386,52.22,63.037-36.388-9.37-52.22Z" transform="translate(-144.5 -130.103)" fill="#8f49ff" opacity="0.5"/>
        <path id="Path_686" data-name="Path 686" d="M148.3,172.584l6.262,53.651,63.745-36.8L212.06,135.78Z" transform="translate(-142.453 -130.949)" fill="#9959ff" opacity="0.5"/>
        <path id="Path_687" data-name="Path 687" d="M152.1,171.429l3.123,55.082,64.452-37.219-3.123-55.082Z" transform="translate(-140.407 -131.794)" fill="#a65aff" opacity="0.5"/>
        <path id="Path_688" data-name="Path 688" d="M155.9,172.684v52.79l65.16-37.619V135.05Z" transform="translate(-138.36 -131.342)" fill="#cfe9ff" opacity="0.7"/>
        <g id="Group_38" data-name="Group 38" transform="translate(61.975 3.97)">
          <path id="Path_689" data-name="Path 689" d="M205.505,187.763V135.22L184.78,147.19v52.544Z" transform="translate(-184.78 -135.22)" fill="#282525" opacity="0.9"/>
          <path id="Path_690" data-name="Path 690" d="M186.149,149.527v1.508a.111.111,0,0,1-.062.092l-.246.138c-.046.031-.062.015-.062-.015v-1.508a.111.111,0,0,1,.062-.092l.246-.138C186.134,149.5,186.149,149.5,186.149,149.527Zm.385,1.277V149.3a.111.111,0,0,1,.062-.092l.708-.415a.436.436,0,0,1,.354-.092c.077.015.123.092.123.231v.785a.663.663,0,0,1-.123.369,1,1,0,0,1-.354.308l-.708.415C186.549,150.85,186.534,150.85,186.534,150.8Zm.4-.446.308-.185a.292.292,0,0,0,.123-.108.188.188,0,0,0,.046-.138v-.769a.093.093,0,0,0-.046-.092.155.155,0,0,0-.123.046l-.308.185c-.031.046-.031,1.046-.031,1.046C186.9,150.373,186.919,150.373,186.934,150.358Zm2.2-1-.939.539c-.046.031-.062.015-.062-.015v-1.508a.111.111,0,0,1,.062-.092l.939-.539c.031-.015.062-.015.062.015v.169a.111.111,0,0,1-.062.092l-.6.354a1.694,1.694,0,0,0-.031.369c.031,0,.523-.277.523-.277.046-.031.062-.015.062.015v.169a.111.111,0,0,1-.062.092l-.492.292a1.965,1.965,0,0,0-.031.4c.031,0,.631-.338.631-.338.031-.015.062-.015.062.015v.169A.078.078,0,0,1,189.134,149.358Zm.677-.385-.246.138c-.046.031-.062.015-.062-.015v-1.508a.111.111,0,0,1,.062-.092l.215-.123c.046-.031.062-.031.077-.015l.585.615c.015,0,.015-.939.015-.939a.111.111,0,0,1,.062-.092l.246-.138c.046-.031.062-.015.062.015v1.508a.111.111,0,0,1-.062.092l-.215.123q-.069.046-.092,0l-.585-.6c-.015,0-.015.939-.015.939Q189.88,148.927,189.811,148.973Zm1.969-1.139-.246.138c-.046.031-.062.015-.062-.015v-1.246a1.907,1.907,0,0,0-.354.185c-.046.031-.062.015-.062-.015v-.169a.111.111,0,0,1,.062-.092l1.092-.631c.046-.031.062-.015.062.015v.169a.111.111,0,0,1-.062.092l-.323.185c-.031.046-.031,1.292-.031,1.292A.157.157,0,0,1,191.781,147.834Zm1.077-2.185v1.508a.111.111,0,0,1-.062.092l-.246.138c-.046.031-.062.015-.062-.015v-1.508a.111.111,0,0,1,.062-.092l.246-.138C192.842,145.619,192.858,145.619,192.858,145.65Zm.692,1.154-.246.138c-.046.031-.062.015-.062-.015v-1.508a.111.111,0,0,1,.062-.092l.923-.539c.046-.015.062-.015.062.015v.169a.111.111,0,0,1-.062.092l-.585.339a2.259,2.259,0,0,0-.031.431,4.175,4.175,0,0,0,.523-.277c.046-.031.062-.015.062.015v.169a.111.111,0,0,1-.062.092l-.492.292a4.029,4.029,0,0,0-.031.585A.084.084,0,0,1,193.55,146.8Zm1.385-2.339v1.508a.111.111,0,0,1-.062.092l-.246.138c-.046.031-.062.015-.062-.015V144.68a.111.111,0,0,1,.062-.092l.246-.138C194.9,144.419,194.935,144.434,194.935,144.465Zm1.154.892-.308.185a.436.436,0,0,1-.354.092c-.077-.015-.123-.092-.123-.231v-.8a.626.626,0,0,1,.123-.369,1,1,0,0,1,.354-.308l.308-.185a.436.436,0,0,1,.354-.092c.077.015.123.092.123.231V144a.111.111,0,0,1-.062.092l-.246.138c-.046.031-.062.015-.062-.015v-.108a.093.093,0,0,0-.046-.092.205.205,0,0,0-.138.046l-.2.108a.292.292,0,0,0-.123.108c-.031.031-.031.077-.031.138v.769a.13.13,0,0,0,.031.092.173.173,0,0,0,.123-.046l.2-.108a.54.54,0,0,0,.138-.108.188.188,0,0,0,.046-.138v-.108a.111.111,0,0,1,.062-.092l.246-.138c.046-.031.062-.015.062.015v.123a.663.663,0,0,1-.123.369A1.753,1.753,0,0,1,196.089,145.357Zm.985-.569-.277.154c-.031-.031.415-1.8.415-1.8a.207.207,0,0,1,.092-.108l.385-.215q.069-.046.092,0l.462,1.246c.015.031,0,.046-.031.077l-.277.154c-.062-.015-.138-.246-.138-.246l-.569.323-.077.323A.717.717,0,0,1,197.073,144.788Zm.415-1.554-.215.846.431-.246-.215-.6Zm1.569.4-.246.138c-.046.031-.062.015-.062-.015v-1.246a1.907,1.907,0,0,0-.354.185c-.046.031-.062.015-.062-.015v-.169a.111.111,0,0,1,.062-.092l1.092-.631c.046-.031.062-.015.062.015v.169a.111.111,0,0,1-.062.092l-.323.185c-.031.046-.031,1.292-.031,1.292A.158.158,0,0,1,199.058,143.634Zm1.077-2.185v1.508a.111.111,0,0,1-.062.092l-.246.138c-.046.031-.062.015-.062-.015v-1.508a.111.111,0,0,1,.062-.092l.246-.138C200.12,141.418,200.135,141.418,200.135,141.449Zm1.169.892-.323.185a.436.436,0,0,1-.354.092c-.077-.015-.123-.092-.123-.231v-.8a.626.626,0,0,1,.123-.369,1,1,0,0,1,.354-.308l.323-.185a.436.436,0,0,1,.354-.092c.077.015.123.092.123.231v.785a.626.626,0,0,1-.123.369A1.026,1.026,0,0,1,201.3,142.342Zm-.277-.123.2-.123a.292.292,0,0,0,.123-.108.188.188,0,0,0,.046-.138v-.769a.093.093,0,0,0-.046-.092.155.155,0,0,0-.123.046l-.2.123a.292.292,0,0,0-.123.108c-.031.031-.031.077-.031.138v.769a.13.13,0,0,0,.031.092A.307.307,0,0,0,201.028,142.218Zm1.4-.523-.246.138c-.046.031-.062.015-.062-.015v-1.508a.111.111,0,0,1,.062-.092l.215-.123c.046-.031.062-.031.077-.015l.585.615c.015,0,.015-.939.015-.939a.111.111,0,0,1,.062-.092l.246-.138c.046-.031.062-.015.062.015v1.508a.111.111,0,0,1-.062.092l-.215.123q-.069.046-.092,0l-.569-.6c-.015,0-.015.939-.015.939C202.489,141.634,202.458,141.665,202.428,141.7Z" transform="translate(-184.241 -132.91)" fill="#db3e3e"/>
          <g id="Group_35" data-name="Group 35" transform="translate(1.816 21.37)">
            <path id="Path_691" data-name="Path 691" d="M194.584,151.665a9.92,9.92,0,0,0-3.447,2.939c-2.585,3.031-3.493,9.893,1.339,10.509.077.015.046.169-.046.231-5-.615-4.093-7.693-1.385-10.878a10.209,10.209,0,0,1,3.554-3.031C194.722,151.388,194.707,151.618,194.584,151.665Zm-.723,1.369a9.331,9.331,0,0,0-3.323,3.723c-.077.154.062.2.138.046a9.03,9.03,0,0,1,3.2-3.57c2.6-1.739,2.169,1.246,3.4,2.031.077.046.215-.169.123-.231C196.215,154.3,196.6,151.2,193.861,153.034Zm-1.339,8.585c.092-.108.108-.169.077-.215a3.6,3.6,0,0,1-.385-3.8c.062-.154-.092-.185-.154-.015a3.9,3.9,0,0,0,.385,4.031C192.46,161.65,192.491,161.65,192.522,161.619Zm1.969-6.493c.385-.031.646.477.939,1.015a5.539,5.539,0,0,0,.462.785c.062.077.215-.123.154-.2a5.539,5.539,0,0,1-.462-.785c-.292-.569-.585-1.092-1.031-1.062a3.269,3.269,0,0,0-2.169,1.862c-.092.154.046.231.123.077A3.049,3.049,0,0,1,194.491,155.127Zm-2.108.292c.723-.815,1.754-1.677,2.523-1.662.108,0,.185-.231.077-.246-.831-.031-1.923.892-2.693,1.754a5.923,5.923,0,0,0-1.6,4.462c.015.138.185.015.185-.123A5.608,5.608,0,0,1,192.384,155.419Zm-2.185,2.693c.046-.154-.123-.138-.169.015-.954,3.554,1.123,5.677,1.292,5.585.077-.046.123-.185.062-.215A5.329,5.329,0,0,1,190.2,158.111Zm-1.631-2.416c.092-.046.123-.062.138-.092a17.251,17.251,0,0,1,4.247-5.154c.123-.092.092-.292-.031-.185a17.372,17.372,0,0,0-4.062,4.8C188.8,155.127,188.445,155.7,188.568,155.7Zm1.508,9.939c-1.616-1.154-2.616-3.323-2-6.385.754-3.8,4.385-9.016,7.785-8.939,2.139.046,1.754,2.431,2.846,2.6a1.994,1.994,0,0,0,.662-.077c-.015-.077-.015-.138-.031-.215a1.352,1.352,0,0,1-.539.062c-1-.154-.692-2.539-2.846-2.6-3.477-.077-7.247,5.247-8.047,9.216-.631,3.154.385,5.385,2.046,6.554a3.647,3.647,0,0,0,1.892.631,4.429,4.429,0,0,0,.785-.231A3.769,3.769,0,0,1,190.076,165.635Zm3.57-15.832c-.123.062-.138.277-.015.231a5.352,5.352,0,0,1,2.923-.646,2.088,2.088,0,0,1,1.785,1.769c.031.123.2-.031.185-.154a2.219,2.219,0,0,0-1.877-1.862A5.516,5.516,0,0,0,193.645,149.8Zm.431,7.8c.815.277-.046,4.293,4.754.354.123-.092.077-.292-.031-.185-3.4,2.785-3.8,1.477-4.123.431-.169-.554-.431-1.215-.985-.615-1.139,1.231.939,3.323,1.292,3.108.077-.046.123-.2.062-.231a2.542,2.542,0,0,1-1.492-2.293C193.537,157.942,193.876,157.5,194.076,157.6Zm.6,4.185c.092-.046.123-.2.062-.231a3.9,3.9,0,0,1-1.877-2.216,2.454,2.454,0,0,1,1.154-2.693c1.215-.385.708,2.416,2.462,2,.108-.031.169-.262.046-.231-1.692.415-1.062-2.431-2.477-2a2.827,2.827,0,0,0-1.369,3.077C192.968,160.727,194.461,161.912,194.676,161.789Zm-3.693-1.492c-.031-.123-.2.015-.185.154.492,2.4,2.4,3.677,4.97,3.431.077-.077.138-.169.215-.262A4.224,4.224,0,0,1,190.983,160.3Zm3.431,2.339a2.318,2.318,0,0,1-1.477-.8c-.031-.031-.077-.015-.123.046a.18.18,0,0,0-.031.169,2.4,2.4,0,0,0,1.539.831,8.708,8.708,0,0,0,2.2.031,2.344,2.344,0,0,0,.169-.246A9.326,9.326,0,0,1,194.415,162.635ZM196.153,161c-.108.015-.169.262-.062.231a11.72,11.72,0,0,0,1.693-.462,2.007,2.007,0,0,0,.123-.262A10.159,10.159,0,0,1,196.153,161Zm-.923.739c-.108-.015-.2.215-.092.231a5.419,5.419,0,0,0,2.046-.077c.046-.077.108-.169.154-.262A5.464,5.464,0,0,1,195.23,161.743Zm2.585-6.57c-.108,0-.185.231-.092.231a2.678,2.678,0,0,0,1.708-.923v-.231A2.533,2.533,0,0,1,197.815,155.173Zm-2.308,5.324c-.108.031-.169.262-.046.231a6.784,6.784,0,0,0,3.031-1.554c.031-.108.077-.215.108-.308A6.884,6.884,0,0,1,195.507,160.5Zm-3.585,3.37c-.077-.062-.215.169-.123.231a5.428,5.428,0,0,0,2.939.831c.077-.077.169-.154.246-.231A5.391,5.391,0,0,1,191.922,163.866ZM199.015,156a5.2,5.2,0,0,1-1.862,1.185.822.822,0,0,1-.831-.169c-.077-.062-.215.154-.138.215a.944.944,0,0,0,.939.185,5.426,5.426,0,0,0,1.954-1.246C199.184,156.065,199.123,155.9,199.015,156Zm-.154.877a10.167,10.167,0,0,1-1.754,1.308c-.108.046-.138.277-.015.215a11,11,0,0,0,1.816-1.339C199.015,156.957,198.984,156.773,198.861,156.881Zm.231-1.6c-.908.785-2.031,1.262-2.523.554a4.026,4.026,0,0,1-.446-.969,5,5,0,0,0-.369-.877c-.062-.108-.138-.262-.246-.123-.092.138-.015.154.077.308a4.687,4.687,0,0,1,.369.846,4.245,4.245,0,0,0,.462,1c.539.769,1.754.277,2.723-.569C199.261,155.357,199.215,155.173,199.092,155.28Zm-4.939,10.109a4.869,4.869,0,0,1-1.231-.169c-.092-.031-.2.2-.108.231a4.016,4.016,0,0,0,1.015.169Zm4.939-11.586c.108-.108.062-.277-.046-.169-1.708,1.6-1.415-2.416-3.693-2.354-.108,0-.185.246-.077.246,1.231-.031,1.769,1.339,2.308,2.339C197.815,154.3,198.384,154.465,199.092,153.8Z" transform="translate(-185.014 -149.109)" fill="url(#linear-gradient-3)"/>
            <g id="Group_34" data-name="Group 34" transform="translate(0 3.459)">
              <path id="Path_692" data-name="Path 692" d="M186.991,162.3c-.569.323-1.031.138-1.031-.431a2.137,2.137,0,0,1,1.031-1.631l15.109-8.724c.569-.323,1.031-.138,1.031.431a2.138,2.138,0,0,1-1.031,1.631Z" transform="translate(-185.96 -151.357)" opacity="0"/>
              <path id="Path_693" data-name="Path 693" d="M187.015,162.178c-.539.308-.985.123-.985-.415a2.056,2.056,0,0,1,.985-1.554l14.971-8.647c.539-.308.985-.123.985.415a2.056,2.056,0,0,1-.985,1.554Z" transform="translate(-185.922 -151.327)" fill="#070910" opacity="0.063"/>
              <path id="Path_694" data-name="Path 694" d="M187.039,162.067c-.523.292-.939.123-.939-.4a1.91,1.91,0,0,1,.939-1.477l14.848-8.57c.523-.292.939-.123.939.4a1.91,1.91,0,0,1-.939,1.477Z" transform="translate(-185.885 -151.292)" fill="#0d1220" opacity="0.125"/>
              <path id="Path_695" data-name="Path 695" d="M187.072,161.939c-.492.277-.892.108-.892-.369a1.828,1.828,0,0,1,.892-1.4l14.709-8.493c.492-.277.892-.108.892.369a1.828,1.828,0,0,1-.892,1.4Z" transform="translate(-185.842 -151.257)" fill="#141a30" opacity="0.188"/>
              <path id="Path_696" data-name="Path 696" d="M187.1,161.818c-.462.262-.846.108-.846-.354a1.747,1.747,0,0,1,.846-1.323l14.586-8.416c.462-.262.846-.108.846.354a1.747,1.747,0,0,1-.846,1.323Z" transform="translate(-185.804 -151.228)" fill="#1a2340" opacity="0.25"/>
              <path id="Path_697" data-name="Path 697" d="M187.12,161.706c-.431.246-.8.108-.8-.339a1.625,1.625,0,0,1,.8-1.246l14.448-8.339c.431-.246.8-.108.8.339a1.625,1.625,0,0,1-.8,1.246Z" transform="translate(-185.766 -151.193)" fill="#212c50" opacity="0.313"/>
              <path id="Path_698" data-name="Path 698" d="M187.139,161.578c-.415.231-.739.092-.739-.308a1.54,1.54,0,0,1,.739-1.169l14.324-8.262c.415-.231.739-.092.739.308a1.54,1.54,0,0,1-.739,1.169Z" transform="translate(-185.723 -151.158)" fill="#273560" opacity="0.375"/>
              <path id="Path_699" data-name="Path 699" d="M187.172,161.472c-.385.215-.692.092-.692-.292a1.47,1.47,0,0,1,.692-1.108l14.186-8.185c.385-.215.692-.092.692.292a1.47,1.47,0,0,1-.692,1.108Z" transform="translate(-185.68 -151.128)" fill="#2e3e70" opacity="0.438"/>
              <path id="Path_700" data-name="Path 700" d="M187.2,161.355c-.354.2-.646.077-.646-.277a1.389,1.389,0,0,1,.646-1.031l14.063-8.124c.354-.2.646-.077.646.277a1.389,1.389,0,0,1-.646,1.031Z" transform="translate(-185.642 -151.104)" fill="#354780" opacity="0.5"/>
              <path id="Path_701" data-name="Path 701" d="M187.22,161.244c-.339.185-.6.077-.6-.262a1.283,1.283,0,0,1,.6-.954l13.924-8.047c.339-.185.6-.077.6.262a1.283,1.283,0,0,1-.6.954Z" transform="translate(-185.605 -151.069)" fill="#3b4f8f" opacity="0.563"/>
              <path id="Path_702" data-name="Path 702" d="M187.244,161.117c-.308.169-.554.077-.554-.231a1.16,1.16,0,0,1,.554-.877l13.8-7.97c.308-.169.554-.077.554.231a1.16,1.16,0,0,1-.554.877Z" transform="translate(-185.567 -151.035)" fill="#42589f" opacity="0.625"/>
              <path id="Path_703" data-name="Path 703" d="M187.278,161c-.277.154-.508.062-.508-.215a1.079,1.079,0,0,1,.508-.8l13.663-7.893c.277-.154.508-.062.508.215a1.079,1.079,0,0,1-.508.8Z" transform="translate(-185.524 -150.999)" fill="#4861af" opacity="0.688"/>
              <path id="Path_704" data-name="Path 704" d="M187.3,160.885c-.246.154-.462.062-.462-.2a.932.932,0,0,1,.462-.723l13.54-7.816c.246-.154.462-.062.462.2a.932.932,0,0,1-.462.723Z" transform="translate(-185.486 -150.972)" fill="#4f6abf" opacity="0.75"/>
              <path id="Path_705" data-name="Path 705" d="M187.325,160.758c-.231.138-.415.046-.415-.169a.826.826,0,0,1,.415-.646l13.4-7.739c.231-.138.415-.046.415.169a.85.85,0,0,1-.415.646Z" transform="translate(-185.448 -150.937)" fill="#5573cf" opacity="0.813"/>
              <path id="Path_706" data-name="Path 706" d="M187.349,160.646c-.2.123-.369.046-.369-.154a.744.744,0,0,1,.369-.569l13.278-7.662c.2-.123.369-.046.369.154a.744.744,0,0,1-.369.569Z" transform="translate(-185.411 -150.902)" fill="#5c7bdf" opacity="0.875"/>
              <path id="Path_707" data-name="Path 707" d="M187.368,160.525c-.169.108-.308.046-.308-.138a.644.644,0,0,1,.308-.492l13.14-7.585c.169-.108.308-.046.308.138a.62.62,0,0,1-.308.492Z" transform="translate(-185.368 -150.873)" fill="#6284ef" opacity="0.938"/>
              <path id="Path_708" data-name="Path 708" d="M200.418,152.888,187.4,160.4c-.154.092-.262.031-.262-.108a.537.537,0,0,1,.262-.415l13.017-7.508c.154-.092.262-.031.262.108A.537.537,0,0,1,200.418,152.888Z" transform="translate(-185.324 -150.838)" fill="#698dff"/>
              <path id="Path_709" data-name="Path 709" d="M200.382,152.891l-12.97,7.493c-.138.077-.262.031-.262-.108a.5.5,0,0,1,.262-.4l12.97-7.493c.138-.077.262-.031.262.108A.616.616,0,0,1,200.382,152.891Z" transform="translate(-185.319 -150.824)" fill="#6f92ff"/>
              <path id="Path_710" data-name="Path 710" d="M200.34,152.885l-12.924,7.462c-.138.077-.246.031-.246-.108a.492.492,0,0,1,.246-.385l12.924-7.462c.138-.077.246-.031.246.108A.492.492,0,0,1,200.34,152.885Z" transform="translate(-185.308 -150.819)" fill="#7596ff"/>
              <path id="Path_711" data-name="Path 711" d="M200.3,152.885l-12.878,7.431c-.123.077-.231.031-.231-.092a.514.514,0,0,1,.231-.369l12.878-7.431c.123-.077.231-.031.231.092A.514.514,0,0,1,200.3,152.885Z" transform="translate(-185.298 -150.803)" fill="#7b9bff"/>
              <path id="Path_712" data-name="Path 712" d="M200.252,152.879l-12.817,7.4c-.123.077-.215.031-.215-.092a.466.466,0,0,1,.215-.354l12.817-7.4c.123-.077.215-.031.215.092A.466.466,0,0,1,200.252,152.879Z" transform="translate(-185.281 -150.798)" fill="#81a0ff"/>
              <path id="Path_713" data-name="Path 713" d="M200.216,152.882l-12.77,7.37c-.123.062-.215.031-.215-.092a.44.44,0,0,1,.215-.339l12.77-7.37c.123-.062.215-.031.215.092A.485.485,0,0,1,200.216,152.882Z" transform="translate(-185.276 -150.785)" fill="#87a4ff"/>
              <path id="Path_714" data-name="Path 714" d="M200.174,152.871l-12.724,7.355c-.108.062-.2.031-.2-.077a.465.465,0,0,1,.2-.323l12.724-7.355c.108-.062.2-.031.2.092A.41.41,0,0,1,200.174,152.871Z" transform="translate(-185.265 -150.774)" fill="#8da9ff"/>
              <path id="Path_715" data-name="Path 715" d="M200.133,152.86l-12.678,7.324c-.108.062-.185.031-.185-.077a.407.407,0,0,1,.185-.292l12.678-7.324c.108-.062.185-.031.185.077A.407.407,0,0,1,200.133,152.86Z" transform="translate(-185.254 -150.763)" fill="#93adff"/>
              <path id="Path_716" data-name="Path 716" d="M200.1,152.864l-12.632,7.293c-.092.062-.185.031-.185-.077a.341.341,0,0,1,.185-.277L200.1,152.51c.092-.062.185-.015.185.077A.41.41,0,0,1,200.1,152.864Z" transform="translate(-185.249 -150.751)" fill="#9ab2ff"/>
              <path id="Path_717" data-name="Path 717" d="M200.055,152.856l-12.586,7.262c-.092.046-.169.015-.169-.077a.334.334,0,0,1,.169-.262l12.586-7.262c.092-.046.169-.015.169.077A.334.334,0,0,1,200.055,152.856Z" transform="translate(-185.238 -150.743)" fill="#a0b7ff"/>
              <path id="Path_718" data-name="Path 718" d="M200.014,152.855l-12.54,7.231c-.092.046-.154.015-.154-.062a.33.33,0,0,1,.154-.246l12.54-7.231c.092-.046.154-.015.154.062A.36.36,0,0,1,200.014,152.855Z" transform="translate(-185.227 -150.727)" fill="#a6bbff"/>
              <path id="Path_719" data-name="Path 719" d="M199.967,152.855l-12.478,7.2c-.077.046-.138.015-.138-.062a.31.31,0,0,1,.138-.231l12.478-7.216c.077-.046.138-.015.138.062A.291.291,0,0,1,199.967,152.855Z" transform="translate(-185.211 -150.727)" fill="#acc0ff"/>
              <path id="Path_720" data-name="Path 720" d="M199.93,152.855,187.5,160.04c-.077.046-.138.015-.138-.062a.283.283,0,0,1,.138-.215l12.432-7.185c.077-.046.138-.015.138.062A.4.4,0,0,1,199.93,152.855Z" transform="translate(-185.206 -150.711)" fill="#b2c4ff"/>
              <path id="Path_721" data-name="Path 721" d="M199.889,152.839,187.5,159.993c-.062.046-.123.015-.123-.046a.253.253,0,0,1,.123-.185l12.386-7.155c.062-.046.123-.015.123.046A.306.306,0,0,1,199.889,152.839Z" transform="translate(-185.195 -150.695)" fill="#b8c9ff"/>
              <path id="Path_722" data-name="Path 722" d="M199.847,152.831l-12.34,7.124c-.062.031-.108.015-.108-.046a.209.209,0,0,1,.108-.169l12.34-7.124c.062-.031.108-.015.108.046A.252.252,0,0,1,199.847,152.831Z" transform="translate(-185.184 -150.688)" fill="#beceff"/>
              <path id="Path_723" data-name="Path 723" d="M199.8,152.835,187.5,159.928q-.092.046-.092-.046a.2.2,0,0,1,.092-.154l12.293-7.093q.092-.046.092.046C199.9,152.728,199.857,152.8,199.8,152.835Z" transform="translate(-185.179 -150.677)" fill="#c4d2ff"/>
              <path id="Path_724" data-name="Path 724" d="M199.76,152.825l-12.247,7.062c-.046.031-.092.015-.092-.031a.2.2,0,0,1,.092-.138l12.247-7.062c.046-.031.092-.015.092.031A.148.148,0,0,1,199.76,152.825Z" transform="translate(-185.174 -150.666)" fill="#cad7ff"/>
            </g>
          </g>
          <g id="Group_37" data-name="Group 37" transform="translate(4.016 45.758)">
            <path id="Path_725" data-name="Path 725" d="M198.11,168.436V166.22l-5.97,3.446v2.277l5.785-3.339A1.844,1.844,0,0,0,198.11,168.436Z" transform="translate(-184.832 -164.281)" fill="#1b1b1e" opacity="0.4"/>
            <path id="Path_726" data-name="Path 726" d="M194.883,170.667l-7.493,4.339v-2.277l7.493-4.339Z" transform="translate(-187.39 -163.113)" fill="#788eff"/>
            <g id="Group_36" data-name="Group 36" transform="translate(0.754)">
              <path id="Path_727" data-name="Path 727" d="M188.526,170.346l-.585.338c-.046-.015-.046-.092-.046-.092a.082.082,0,0,1,.046-.062l.554-.323c.169-.092.262-.2.262-.292,0-.138-.062-.169-.169-.123l-.385.108a.47.47,0,0,1-.246.015c-.046-.015-.077-.062-.077-.138,0-.2.154-.385.446-.569l.539-.308c.046.015.046.092.046.092a.082.082,0,0,1-.046.062l-.492.292a.959.959,0,0,0-.185.138.184.184,0,0,0-.062.123c0,.108.062.123.185.092l.385-.092c.108-.031.2-.031.231,0,.046.031.062.092.062.185C188.988,169.977,188.834,170.177,188.526,170.346Z" transform="translate(-187.88 -162.838)" fill="#788eff"/>
              <path id="Path_728" data-name="Path 728" d="M189.84,169.458v.092a.082.082,0,0,1-.046.062l-.477.277a.557.557,0,0,1-.354.108c-.092-.015-.123-.077-.123-.2v-.523a.572.572,0,0,1,.123-.338,1.415,1.415,0,0,1,.354-.308l.477-.277c.046.015.046.092.046.092a.082.082,0,0,1-.046.062l-.446.262q-.277.162-.277.369v.508c0,.138.092.169.277.062l.446-.262C189.825,169.442,189.84,169.442,189.84,169.458Z" transform="translate(-187.363 -163.134)" fill="#788eff"/>
              <path id="Path_729" data-name="Path 729" d="M190.346,169.345l-.169.092a.557.557,0,0,1-.354.108c-.092-.015-.123-.077-.123-.2v-.523a.572.572,0,0,1,.123-.339,1.415,1.415,0,0,1,.354-.308l.723-.415a10.57,10.57,0,0,1,.046,1.2c0,.031-.015.046-.046.062l-.154.092c-.046-.015-.046-.108-.046-.108A.838.838,0,0,1,190.346,169.345Zm.354-.585v-.692c-.031,0-.492.262-.492.262q-.277.162-.277.369v.508c0,.138.092.169.277.062l.185-.108a1.513,1.513,0,0,0,.231-.185A.408.408,0,0,0,190.7,168.76Z" transform="translate(-186.9 -163.452)" fill="#788eff"/>
              <path id="Path_730" data-name="Path 730" d="M191,168.929l-.154.092a10.57,10.57,0,0,1-.046-1.2.082.082,0,0,1,.046-.062l.154-.092c.046.015.046.108.046.108a.941.941,0,0,1,.354-.339l.185-.108a.535.535,0,0,1,.354-.108c.077.015.123.077.123.2v.862c0,.031-.015.046-.046.062l-.154.092a5.491,5.491,0,0,1-.046-.862c0-.138-.092-.169-.277-.062l-.185.108a1.51,1.51,0,0,0-.231.185.408.408,0,0,0-.077.215v.846C191.046,168.883,191.031,168.9,191,168.929Z" transform="translate(-186.307 -163.744)" fill="#788eff"/>
              <path id="Path_731" data-name="Path 731" d="M192.1,168.289l-.154.092a10.563,10.563,0,0,1-.046-1.2.082.082,0,0,1,.046-.062l.154-.092c.046.015.046.108.046.108a.941.941,0,0,1,.354-.339l.185-.108a.535.535,0,0,1,.354-.108c.077.015.123.077.123.2v.862c0,.031-.015.046-.046.062l-.154.092a5.491,5.491,0,0,1-.046-.862c0-.138-.092-.169-.277-.062l-.185.108a1.513,1.513,0,0,0-.231.185.408.408,0,0,0-.077.215v.846C192.146,168.258,192.131,168.274,192.1,168.289Z" transform="translate(-185.715 -164.089)" fill="#788eff"/>
              <path id="Path_732" data-name="Path 732" d="M193.01,166.3v-.231c0-.031.015-.046.046-.062l.154-.092c.046.015.046.246.046.246,0,.031-.015.046-.046.062l-.154.092C193.025,166.335,193.01,166.32,193.01,166.3Zm0,1.431v-1.2a.082.082,0,0,1,.046-.062l.154-.092a10.57,10.57,0,0,1,.046,1.2c0,.031-.015.046-.046.062l-.154.092Q193.01,167.782,193.01,167.736Z" transform="translate(-185.117 -164.443)" fill="#788eff"/>
              <path id="Path_733" data-name="Path 733" d="M193.67,167.379l-.154.092a10.57,10.57,0,0,1-.046-1.2.082.082,0,0,1,.046-.062l.154-.092c.046.015.046.108.046.108a.941.941,0,0,1,.354-.338l.185-.108a.535.535,0,0,1,.354-.108c.077.015.123.077.123.2v.862c0,.031-.015.046-.046.062l-.154.092a5.487,5.487,0,0,1-.046-.862c0-.138-.092-.169-.277-.062l-.185.108a1.513,1.513,0,0,0-.231.185.408.408,0,0,0-.077.215v.846C193.716,167.348,193.7,167.364,193.67,167.379Z" transform="translate(-184.869 -164.579)" fill="#788eff"/>
              <path id="Path_734" data-name="Path 734" d="M195.222,166.468l-.185.108a.535.535,0,0,1-.354.108c-.077-.015-.123-.077-.123-.2v-.462a.572.572,0,0,1,.123-.339,1.415,1.415,0,0,1,.354-.308l.723-.415a11.107,11.107,0,0,1,.046,1.231.61.61,0,0,1-.123.338,1.162,1.162,0,0,1-.354.308l-.615.354c-.046,0-.046-.092-.046-.092,0-.031.015-.046.046-.062l.585-.339q.277-.162.277-.369v-.185A1.037,1.037,0,0,1,195.222,166.468Zm.339-.585v-.631c-.031,0-.492.262-.492.262q-.277.162-.277.369v.446c0,.138.092.169.277.062l.185-.108a1.512,1.512,0,0,0,.231-.185A.336.336,0,0,0,195.56,165.883Z" transform="translate(-184.282 -164.96)" fill="#788eff"/>
            </g>
          </g>
        </g>
        <path id="Path_735" data-name="Path 735" d="M155.9,170.259v4.554l65.16-37.634V132.64Z" transform="translate(-138.36 -132.64)" fill="#788eff"/>
      </g>
    </g>
    <g id="Group_44" data-name="Group 44" transform="translate(191.16 161.458)">
      <g id="Group_42" data-name="Group 42" transform="translate(0.215 0.4)">
        <path id="Path_736" data-name="Path 736" d="M182.658,171.4,165.21,181.479V161.693l17.448-10.062Z" transform="translate(-165.21 -151.63)" fill="#7334ea"/>
        <g id="Group_41" data-name="Group 41" transform="translate(0.892 7.051)">
          <path id="Path_737" data-name="Path 737" d="M169.419,164.23a21.973,21.973,0,0,1,5.2-3,6.693,6.693,0,0,1,.231,2.354s-2.523,2.585-2.585,2.616c-.046.031-1.985.077-2.046.092a5.6,5.6,0,0,1-.569-.908c-.015-.031-.969.077-.969.077Z" transform="translate(-164.233 -153.511)" fill="#ffca8c"/>
          <path id="Path_738" data-name="Path 738" d="M169.52,162.386v2.446c.677,1.539,3.923-.492,3.923-2.262v-3.2Z" transform="translate(-163.781 -154.513)" fill="#fcb67c"/>
          <path id="Path_739" data-name="Path 739" d="M174.956,159.005c0,2.092-1.385,5.847-3.108,6.831-1.708.985-3.108-1.169-3.108-3.246a7.014,7.014,0,0,1,3.108-5.57C173.556,156.036,174.956,156.928,174.956,159.005Z" transform="translate(-164.201 -155.994)" fill="#ffca8c"/>
          <path id="Path_740" data-name="Path 740" d="M178.807,160.758l-2.631.754c-.169,2.662-4.062,5.293-5.216,3.016l-2.477,2.154a5.1,5.1,0,0,0-1.354,1.862,19.034,19.034,0,0,0-1.339,7.555l2-1.154,11.555-6.662,2.016-1.154c0-3.693-.708-5.293-1.277-5.985A1.189,1.189,0,0,0,178.807,160.758Z" transform="translate(-165.79 -153.793)" fill="#788eff"/>
          <path id="Path_741" data-name="Path 741" d="M172.693,156.47c1.616-.723,2.216.246,2.323.862a9.222,9.222,0,0,1-.4,4.139,7.57,7.57,0,0,0-.046-2.6.371.371,0,0,0-.462-.169,17.49,17.49,0,0,0-3.046,1.185,2.964,2.964,0,0,0-1.862,1.939,6.546,6.546,0,0,0,0,3.016s-.985-1.169-.231-4.447a3.533,3.533,0,0,1,.415-1,2.546,2.546,0,0,1,.339-.462,4.921,4.921,0,0,0,.4-.369A5.061,5.061,0,0,1,172.693,156.47Z" transform="translate(-164.231 -156.213)" fill="#282525"/>
        </g>
      </g>
      <g id="Group_43" data-name="Group 43">
        <path id="Path_742" data-name="Path 742" d="M165.07,182v-20.31l.108-.062,17.786-10.263v20.31l-.108.062Zm.446-20.033v19.263l16.986-9.816V152.155Z" transform="translate(-165.07 -151.37)" fill="#7334ea"/>
      </g>
    </g>
    <g id="Group_46" data-name="Group 46" transform="translate(188.175 184.839)">
      <g id="Group_45" data-name="Group 45">
        <path id="Path_743" data-name="Path 743" d="M185.917,170.742l-20.848,12.032c-1.077.615-1.939.246-1.939-.815a4.037,4.037,0,0,1,1.939-3.062l20.848-12.032c1.077-.615,1.939-.246,1.939.815A4,4,0,0,1,185.917,170.742Z" transform="translate(-163.13 -166.566)" fill="#fff"/>
        <path id="Path_744" data-name="Path 744" d="M185.917,175.152l-20.848,12.032c-1.077.615-1.939.246-1.939-.815a4.037,4.037,0,0,1,1.939-3.062l20.848-12.032c1.077-.615,1.939-.246,1.939.815A4,4,0,0,1,185.917,175.152Z" transform="translate(-163.13 -164.191)" fill="#fff"/>
        <path id="Path_745" data-name="Path 745" d="M176.817,181.832l-5.908,3.416c-1.077.615-1.939.246-1.939-.815a4.037,4.037,0,0,1,1.939-3.062l5.908-3.416c1.077-.615,1.939-.246,1.939.815A3.956,3.956,0,0,1,176.817,181.832Z" transform="translate(-159.985 -160.593)" fill="#cfe9ff"/>
      </g>
    </g>
    <g id="Group_48" data-name="Group 48" transform="translate(157.942 149.011)">
      <g id="Group_47" data-name="Group 47">
        <path id="Path_746" data-name="Path 746" d="M172.237,143.28l-28.757,16.6v45.635l28.787-16.632Z" transform="translate(-143.48 -143.28)" fill="#cfe9ff" opacity="0.7"/>
        <path id="Path_747" data-name="Path 747" d="M172.237,143.28l-28.757,16.6v4.108l28.757-16.6Z" transform="translate(-143.48 -143.28)" fill="#788eff"/>
      </g>
      <path id="Path_748" data-name="Path 748" d="M162.039,160.255v-3.57c0-3.616-2.954-4.862-6.57-2.77s-6.57,6.739-6.57,10.37v3.539a5.235,5.235,0,0,0-2.169,3.77v8.616c0,1.416,1.139,1.892,2.554,1.077l12.155-7.016a5.307,5.307,0,0,0,2.554-4.031v-8.616A1.333,1.333,0,0,0,162.039,160.255Zm-6.57-4.816c2.785-1.6,5.031-.646,5.031,2.123v3.493l-10.078,5.816v-3.493C150.438,160.593,152.7,157.039,155.469,155.439Zm.446,14.386v4.2l-1.092.631v-4.2c-.508.077-.846-.215-.846-.8a2.906,2.906,0,0,1,1.4-2.2c.769-.446,1.4-.185,1.4.585A2.907,2.907,0,0,1,155.915,169.825Z" transform="translate(-141.73 -138.099)" fill="#fff"/>
      <path id="Path_749" data-name="Path 749" d="M155.468,175.8l2.231-1.292v.539l-2.231,1.292Zm-2.862,5.893-3.477,2.016v.539l4.123-2.385,1.431-.831V180.5l-2.077,1.2Zm3.077-3.37v-.539l-1.739,1-1.154.662v.539l1.154-.662Zm-3.708,1.616-2.862,1.646v.539l2.862-1.646Zm1.477-2.446,1.2-.692v-.539l-2.062,1.2-3.447,2V180l4.308-2.508Zm-3.385-.154,2.816-1.631v-.539l-2.816,1.631-.908.523v.539l.908-.523Zm5.616-3.246.908-.523v-.539l-1.2.692-1.693.985v.539l1.985-1.154Zm2.046,4.631-2.231,1.292v.539l2.231-1.292Zm6.616-3.816-2.077,1.2v.539l2.077-1.2Zm-.031-6.339-1.246.723v.539l1.246-.723Zm-2.077,1.2-1.077.615v.539l1.077-.615Zm2.092.908-2.062,1.185v.539l2.062-1.185Zm-3.077,3.893-.877.508v.539l.877-.508Zm.815.062,2.277-1.323v-.539l-2.277,1.323Zm5.508-1.585-.892.508v.539l.892-.508Zm-.031-6.339-1.246.723v.539l1.246-.723Zm.031,2.108-.862.492v.539l.862-.492Zm-1.077,2.739v.539l1.092-.631v-.539ZM146.021,186.02l.923-.539v-.539l-.923.539Zm-.031-6.324.569-.323v-.539l-.569.323Zm.031,2.092.954-.554V180.7l-.954.554Zm.015,1.569v.539l.723-.415v-.539Z" transform="translate(-142.128 -130.66)" fill="#fff"/>
    </g>
    <path id="Path_750" data-name="Path 750" d="M165.455,182.874a1.009,1.009,0,0,1-.492.785c-.277.154-.492.062-.492-.215a1.009,1.009,0,0,1,.492-.785C165.239,182.489,165.455,182.6,165.455,182.874Zm1.554-1.4a1.009,1.009,0,0,0-.492.785c0,.277.215.385.492.215a1.009,1.009,0,0,0,.492-.785C167.5,181.412,167.286,181.32,167.009,181.474Zm2.046-1.185a1.009,1.009,0,0,0-.492.785c0,.277.215.385.492.215a1.009,1.009,0,0,0,.492-.785C169.547,180.227,169.317,180.135,169.055,180.289Zm2.031-1.169a1.009,1.009,0,0,0-.492.785c0,.277.215.385.492.215a1.033,1.033,0,0,0,.492-.785C171.578,179.058,171.363,178.95,171.086,179.119Zm2.046-1.185a1.009,1.009,0,0,0-.492.785c0,.277.215.385.492.215a1.009,1.009,0,0,0,.492-.785C173.625,177.873,173.409,177.781,173.132,177.935Zm2.046-1.185a1.009,1.009,0,0,0-.492.785c0,.277.215.385.492.215a1.009,1.009,0,0,0,.492-.785C175.671,176.688,175.44,176.6,175.179,176.75Zm2.031-1.169a1.009,1.009,0,0,0-.492.785c0,.277.215.385.492.215a1.009,1.009,0,0,0,.492-.785C177.7,175.519,177.487,175.427,177.21,175.581Zm2.046-1.185a1.009,1.009,0,0,0-.492.785c0,.277.215.385.492.215a1.009,1.009,0,0,0,.492-.785C179.748,174.334,179.533,174.242,179.256,174.4Z" transform="translate(25.767 22.45)" fill="#cfcad4"/>
    <g id="Group_49" data-name="Group 49" transform="translate(190.237 192.662)">
      <path id="Path_751" data-name="Path 751" d="M164.685,175.605v1.185c0,.262.138.308.369.169a1.159,1.159,0,0,0,.477-.539v-1.308l.231-.123v1.246l.015.477-.185.108-.031-.215a1.244,1.244,0,0,1-.569.6c-.339.2-.523.062-.523-.262v-1.215Z" transform="translate(-164.47 -169.852)" fill="#cfcad4"/>
      <path id="Path_752" data-name="Path 752" d="M166.657,175.664c0-.231-.138-.215-.462-.046-.462.231-.585.138-.585-.123a1.088,1.088,0,0,1,.631-.877c.462-.262.631-.123.631.215a1.691,1.691,0,0,1-.215.138c0-.246-.092-.354-.415-.169a.667.667,0,0,0-.4.539c0,.185.077.231.446.046.431-.215.615-.185.615.123a1.128,1.128,0,0,1-.662.908c-.477.277-.662.092-.662-.185a1.832,1.832,0,0,1,.231-.138c0,.185.092.323.431.123A.7.7,0,0,0,166.657,175.664Z" transform="translate(-163.872 -170.126)" fill="#cfcad4"/>
      <path id="Path_753" data-name="Path 753" d="M166.9,175.23c.015.369.169.523.508.323a.877.877,0,0,0,.477-.677l.215-.123a1.3,1.3,0,0,1-.692,1c-.508.292-.739.031-.739-.446a1.466,1.466,0,0,1,.723-1.354c.492-.292.708-.031.708.462v.138Zm0-.185.969-.569c-.015-.369-.169-.523-.492-.339A1.061,1.061,0,0,0,166.9,175.045Z" transform="translate(-163.285 -170.476)" fill="#cfcad4"/>
      <path id="Path_754" data-name="Path 754" d="M168.589,173.22v.215a1.055,1.055,0,0,0-.492.554v1.292l-.231.123v-1.246l-.015-.477.185-.108.031.215a1.143,1.143,0,0,1,.477-.539A.19.19,0,0,0,168.589,173.22Z" transform="translate(-162.649 -170.805)" fill="#cfcad4"/>
      <path id="Path_755" data-name="Path 755" d="M169.251,174.789l-.231.138v-2.569l.231-.138Z" transform="translate(-162.019 -171.344)" fill="#cfcad4"/>
      <path id="Path_756" data-name="Path 756" d="M170.172,174.4l-.662.385v-2.569l.662-.385c.615-.354.969-.231.969.662v.138A1.843,1.843,0,0,1,170.172,174.4Zm-.015-.2a1.5,1.5,0,0,0,.754-1.431v-.138c0-.723-.277-.846-.754-.569l-.415.231v2.139Z" transform="translate(-161.755 -171.65)" fill="#cfcad4"/>
    </g>
  </g>
</svg>
