<svg xmlns="http://www.w3.org/2000/svg" xmlns:xlink="http://www.w3.org/1999/xlink" width="1429.02" height="1012.266" viewBox="0 0 1429.02 1012.266">
  <defs>
    <filter id="Path_1" x="0" y="9.218" width="856.121" height="922.707" filterUnits="userSpaceOnUse">
      <feOffset dx="5" dy="20" input="SourceAlpha"/>
      <feGaussianBlur stdDeviation="1.5" result="blur"/>
      <feFlood flood-opacity="0.129"/>
      <feComposite operator="in" in2="blur"/>
      <feComposite in="SourceGraphic"/>
    </filter>
    <filter id="Path_2" x="529.369" y="0" width="899.651" height="918.74" filterUnits="userSpaceOnUse">
      <feOffset dx="5" dy="20" input="SourceAlpha"/>
      <feGaussianBlur stdDeviation="1.5" result="blur-2"/>
      <feFlood flood-opacity="0.129"/>
      <feComposite operator="in" in2="blur-2"/>
      <feComposite in="SourceGraphic"/>
    </filter>
  </defs>
  <g id="Group_392" data-name="Group 392" transform="translate(920.562 4977.549)">
    <g id="Path_51" data-name="Path 51" transform="translate(-544.076 -4621.69)" fill="navy">
      <path d="M 76.03964233398438 655.90771484375 C 64.42901611328125 655.90771484375 53.79164123535156 655.006591796875 43.5196418762207 653.15283203125 C 38.23301696777344 652.19873046875 32.98664093017578 650.9703369140625 27.9263916015625 649.5015869140625 C 22.76501655578613 648.0036010742188 17.6146411895752 646.2027587890625 12.61814117431641 644.1491088867188 C -8.043733596801758 635.6563720703125 -27.91985893249512 622.1644897460938 -48.1459846496582 602.9024658203125 C -54.44123458862305 596.907470703125 -60.24060821533203 589.1796264648438 -65.38323211669922 579.933349609375 C -70.31035614013672 571.0748291015625 -74.76448059082031 560.5889892578125 -78.62223052978516 548.7669677734375 C -82.30348205566406 537.485595703125 -85.53836059570312 524.6911010742188 -88.23673248291016 510.7392272949219 C -90.80123138427734 497.4793701171875 -92.94823455810547 482.8277282714844 -94.61811065673828 467.1914672851562 C -100.3971099853516 413.0779724121094 -100.808235168457 344.8988647460938 -95.83985900878906 264.548095703125 C -93.88773345947266 232.9772338867188 -91.09011077880859 199.4288482666016 -87.52485656738281 164.8347320556641 C -84.6724853515625 137.1584777832031 -81.32511138916016 108.7548522949219 -77.57585906982422 80.41285705566406 C -71.58657073974609 35.13916778564453 -66.45648193359375 4.389564037322998 -65.80050659179688 0.4999802112579346 L 757.1697998046875 0.4999802112579346 C 758.0521240234375 4.252911567687988 765.2354125976562 35.04671096801758 774.1906127929688 80.44410705566406 C 779.7813720703125 108.7861022949219 784.95849609375 137.1896057128906 789.578125 164.86572265625 C 795.3524169921875 199.4597320556641 800.2670288085938 233.0079803466797 804.1852416992188 264.5787353515625 C 814.1575317382812 344.9286193847656 817.8153686523438 413.1067199707031 815.057373046875 467.21923828125 C 814.260498046875 482.8546142578125 812.9092407226562 497.5053405761719 811.0411376953125 510.7643432617188 C 809.0756225585938 524.71484375 806.48388671875 537.5078735351562 803.3380126953125 548.787841796875 C 800.041748046875 560.6071166992188 796.04638671875 571.0904541015625 791.462890625 579.9465942382812 C 789.0958862304688 584.5199584960938 786.5225219726562 588.7547607421875 783.8142700195312 592.533203125 C 781.0501708984375 596.3895874023438 778.067626953125 599.8794555664062 774.9495239257812 602.9058837890625 C 768.0140380859375 609.63720703125 760.8997802734375 615.480712890625 753.8045043945312 620.2739868164062 C 746.962158203125 624.8963623046875 739.8655395507812 628.7247314453125 732.711669921875 631.6529541015625 C 719.3661499023438 637.1153564453125 705.2255249023438 639.7711181640625 689.4816284179688 639.7718505859375 C 662.2142944335938 639.7731323242188 633.2265014648438 631.9104614257812 599.66162109375 622.8063354492188 C 577.8062744140625 616.8783569335938 553.0347900390625 610.1593627929688 526.1693725585938 605.0946044921875 C 495.4208984375 599.2977294921875 466.2667541503906 596.479736328125 437.041259765625 596.479736328125 C 424.8951416015625 596.479736328125 412.5247802734375 596.9768676757812 400.2735290527344 597.9572143554688 C 387.2684020996094 598.9978637695312 373.9640197753906 600.6174926757812 360.7297668457031 602.7711181640625 C 302.9315185546875 612.1764526367188 254.9597625732422 623.3102416992188 212.6352691650391 633.1332397460938 C 157.8105163574219 645.8573608398438 114.5066452026367 655.90771484375 76.03964233398438 655.90771484375 Z" stroke="none"/>
      <path d="M -65.37750244140625 1 C -66.2679443359375 6.306396484375 -71.27020263671875 36.55902099609375 -77.0811767578125 80.48675537109375 C -80.82989501953125 108.8243408203125 -84.17657470703125 137.2233276367188 -87.0284423828125 164.8948364257812 C -90.5927734375 199.4818420410156 -93.3896484375 233.0231018066406 -95.34130859375 264.5867309570312 C -100.3075561523438 344.9079895019531 -99.89678955078125 413.0573425292969 -94.12066650390625 467.1419677734375 C -92.4521484375 482.7637329101562 -90.30731201171875 497.4008483886719 -87.74542236328125 510.6466064453125 C -85.0509033203125 524.577880859375 -81.8214111328125 537.3517456054688 -78.14654541015625 548.6132202148438 C -74.29876708984375 560.4044799804688 -69.8575439453125 570.8604736328125 -64.946044921875 579.6908569335938 C -59.82806396484375 588.8927001953125 -54.0596923828125 596.580322265625 -47.80126953125 602.5404663085938 C -27.62078857421875 621.7588500976562 -7.7952880859375 635.2178344726562 12.8082275390625 643.6865844726562 C 17.7880859375 645.7334594726562 22.92144775390625 647.5285034179688 28.065673828125 649.021484375 C 33.10931396484375 650.4853515625 38.33868408203125 651.709716796875 43.60845947265625 652.6607055664062 C 53.8507080078125 654.5092163085938 64.4591064453125 655.40771484375 76.03955078125 655.40771484375 C 114.4493408203125 655.40771484375 157.7286987304688 645.3630981445312 212.5223388671875 632.6461181640625 C 254.8544616699219 622.8213500976562 302.8348388671875 611.6857299804688 360.6494445800781 602.277587890625 C 373.8970642089844 600.121826171875 387.215087890625 598.50048828125 400.2337036132812 597.458740234375 C 412.4980773925781 596.4773559570312 424.8819580078125 595.979736328125 437.0413208007812 595.979736328125 C 466.29931640625 595.979736328125 495.4846801757812 598.8004760742188 526.2649536132812 604.6032104492188 C 553.1503295898438 609.671630859375 577.9324340820312 616.3933715820312 599.7971801757812 622.3238525390625 C 633.3258056640625 631.41796875 662.2822265625 639.2718505859375 689.481689453125 639.2718505859375 C 705.1588134765625 639.2718505859375 719.237548828125 636.6284790039062 732.522216796875 631.1907348632812 C 739.6443481445312 628.2755126953125 746.7105712890625 624.4632568359375 753.5247192382812 619.85986328125 C 760.5955810546875 615.0830078125 767.6868286132812 609.2581176757812 774.601318359375 602.5469970703125 C 777.6980590820312 599.54150390625 780.6609497070312 596.0743408203125 783.40771484375 592.2421264648438 C 786.1019287109375 588.4832153320312 788.66259765625 584.2692260742188 791.0185546875 579.7172241210938 C 795.5863037109375 570.8917236328125 799.5689697265625 560.4408569335938 802.8560791015625 548.6548461914062 C 805.99609375 537.396240234375 808.5831909179688 524.6253662109375 810.5457153320312 510.6969604492188 C 812.4118041992188 497.4528503417969 813.76171875 482.8174743652344 814.5579833984375 467.1972351074219 C 817.314697265625 413.114990234375 813.658203125 344.9675903320312 803.6900634765625 264.6482238769531 C 799.7728271484375 233.084716796875 794.8594360351562 199.5438537597656 789.08642578125 164.9569702148438 C 784.4678344726562 137.2855834960938 779.2915649414062 108.8865966796875 773.7018432617188 80.54913330078125 C 765.0023803710938 36.44775390625 757.97509765625 6.12908935546875 756.7736206054688 1 L -65.37750244140625 1 M -66.222900390625 0 L 757.565673828125 0 C 757.565673828125 0 877.2943115234375 504.2699584960938 775.2978515625 603.2645874023438 C 746.8665161132812 630.8591918945312 719.2764282226562 640.2718505859375 689.481689453125 640.2718505859375 C 625.5732421875 640.2718505859375 551.481201171875 596.979736328125 437.0412902832031 596.979736328125 C 413.4313659667969 596.979736328125 388.1206665039062 598.8204345703125 360.8100891113281 603.2645874023438 C 227.5271301269531 624.9535522460938 144.0467529296875 656.40771484375 76.03955078125 656.40771484375 C 31.0760498046875 656.40771484375 -7.11749267578125 642.6655883789062 -48.49090576171875 603.2645874023438 C -152.4415283203125 504.2699584960938 -66.222900390625 0 -66.222900390625 0 Z" stroke="none" fill="#707070"/>
    </g>
    <g transform="matrix(1, 0, 0, 1, -920.56, -4977.55)" filter="url(#Path_1)">
      <path id="Path_1-2" data-name="Path 1" d="M197.215,5.135c119.243,25.316,240.222,148.237,270.215,274.55S221.791,414.167,198.855,694.738,145.175,371.876,35.614,188.006,77.973-20.182,197.215,5.135Z" transform="matrix(-0.79, 0.62, -0.62, -0.79, 842.93, 615.7)" fill="navy"/>
    </g>
    <g transform="matrix(1, 0, 0, 1, -920.56, -4977.55)" filter="url(#Path_2)">
      <path id="Path_2-2" data-name="Path 2" d="M275.444,714.276c131.531-30.128,260.761-151.651,288.643-271.431S285.039,330.322,247.36,69.1s31.8,374.517-159.59,482.843S143.913,744.4,275.444,714.276Z" transform="matrix(-0.72, -0.69, 0.69, -0.72, 931.81, 911.34)" fill="navy"/>
    </g>
  </g>
</svg>
