<svg xmlns="http://www.w3.org/2000/svg" xmlns:xlink="http://www.w3.org/1999/xlink" width="1039.708" height="932.268" viewBox="0 0 1039.708 932.268">
  <defs>
    <filter id="Path_1" x="0" y="31.553" width="670.924" height="742.823" filterUnits="userSpaceOnUse">
      <feOffset dx="5" dy="20" input="SourceAlpha"/>
      <feGaussianBlur stdDeviation="1.5" result="blur"/>
      <feFlood flood-opacity="0.129"/>
      <feComposite operator="in" in2="blur"/>
      <feComposite in="SourceGraphic"/>
    </filter>
    <filter id="Path_2" x="330.456" y="0" width="709.251" height="728.717" filterUnits="userSpaceOnUse">
      <feOffset dx="5" dy="20" input="SourceAlpha"/>
      <feGaussianBlur stdDeviation="1.5" result="blur-2"/>
      <feFlood flood-opacity="0.129"/>
      <feComposite operator="in" in2="blur-2"/>
      <feComposite in="SourceGraphic"/>
    </filter>
  </defs>
  <g id="Group_392" data-name="Group 392" transform="translate(398.083 196.551)">
    <g id="Path_51" data-name="Path 51" transform="translate(-24.829 79.31)" fill="navy">
      <path d="M 10.04353141784668 655.9077758789062 C 2.819804191589355 655.9077758789062 -3.797468662261963 655.0104370117188 -10.18655967712402 653.1644897460938 C -16.90074157714844 651.2246704101562 -23.19074058532715 648.2904052734375 -29.41619491577148 644.1939086914062 C -42.30083084106445 635.7154541015625 -54.70110321044922 622.2376708984375 -67.32565307617188 602.9904174804688 C -71.25828552246094 596.994873046875 -74.88201141357422 589.2638549804688 -78.09619903564453 580.0121459960938 C -81.17628479003906 571.1465454101562 -83.96073913574219 560.652587890625 -86.3721923828125 548.82177734375 C -88.67301177978516 537.5338134765625 -90.69474029541016 524.732421875 -92.381103515625 510.7733459472656 C -93.98365020751953 497.5083312988281 -95.3251953125 482.8516235351562 -96.36865234375 467.2100524902344 C -99.97910308837891 413.085693359375 -100.2359237670898 344.8954162597656 -97.13201141357422 264.5335998535156 C -95.91246795654297 232.9601593017578 -94.16483306884766 199.4090576171875 -91.93756103515625 164.8124237060547 C -90.15573883056641 137.1344299316406 -88.06474304199219 108.7291564941406 -85.72255706787109 80.38542938232422 C -81.99119567871094 35.23029708862305 -78.79360198974609 4.522209167480469 -78.37008666992188 0.4999724328517914 L 435.3230590820312 0.4999724328517914 C 435.901123046875 4.438248634338379 440.3759155273438 35.17388916015625 445.9493408203125 80.405517578125 C 449.4418029785156 108.749153137207 452.6759033203125 137.1543426513672 455.5616149902344 164.8322448730469 C 459.1687927246094 199.4287872314453 462.2388916015625 232.9797058105469 464.6866149902344 264.5530700683594 C 470.9167175292969 344.9142456054688 473.2019958496094 413.1037902832031 471.4788818359375 467.2275085449219 C 470.9809875488281 482.8686218261719 470.1365356445312 497.5249633789062 468.9691772460938 510.7895202636719 C 467.7408142089844 524.7478637695312 466.1208801269531 537.5485229492188 464.1546325683594 548.8358764648438 C 462.0938110351562 560.6654052734375 459.5958862304688 571.1580810546875 456.7301635742188 580.0223999023438 C 453.739990234375 589.2717895507812 450.2679748535156 597.0006103515625 446.4106140136719 602.9940795898438 C 442.0809020996094 609.7216186523438 437.640625 615.5606079101562 433.2131652832031 620.348876953125 C 428.9490661621094 624.9605102539062 424.5284423828125 628.7786865234375 420.0741577148438 631.697509765625 C 411.7837219238281 637.1300659179688 403.0018005371094 639.7711791992188 393.2265319824219 639.7719116210938 C 376.25634765625 639.7730712890625 358.1749877929688 631.921630859375 337.2384338378906 622.830322265625 C 323.5796203613281 616.8992309570312 308.0983581542969 610.1768798828125 291.3011779785156 605.1073608398438 C 272.0659790039062 599.3018798828125 253.8267059326172 596.4798583984375 235.5410766601562 596.4798583984375 C 227.9412536621094 596.4798583984375 220.2010803222656 596.977783203125 212.5357208251953 597.9597778320312 C 204.3995361328125 599.0020751953125 196.0764465332031 600.6240844726562 187.7975311279297 602.7808837890625 C 151.6801605224609 612.1900024414062 121.7077102661133 623.3262329101562 95.26362609863281 633.151611328125 C 61.04525756835938 645.8655395507812 34.01753234863281 655.9077758789062 10.04353141784668 655.9077758789062 Z" stroke="none"/>
      <path d="M -77.91983032226562 1 C -78.49368286132812 6.47821044921875 -81.60794067382812 36.66351318359375 -85.22384643554688 80.42132568359375 C -87.56573486328125 108.7617797851562 -89.65655517578125 137.1638793945312 -91.43829345703125 164.8388061523438 C -93.665283203125 199.4314270019531 -95.412841796875 232.9784240722656 -96.6322021484375 264.5478820800781 C -99.73565673828125 344.8933410644531 -99.47909545898438 413.0668029785156 -95.86993408203125 467.1744995117188 C -94.82711791992188 482.8074340820312 -93.48638916015625 497.4554443359375 -91.88491821289062 510.7117919921875 C -90.20010375976562 524.6577758789062 -88.1806640625 537.4459838867188 -85.88247680664062 548.7210693359375 C -83.47537231445312 560.5303344726562 -80.69683837890625 571.0028076171875 -77.6240234375 579.8477172851562 C -74.42318725585938 589.060791015625 -70.81765747070312 596.7547607421875 -66.90756225585938 602.7161865234375 C -54.3212890625 621.905029296875 -41.96783447265625 635.3359985351562 -29.14138793945312 643.776123046875 C -22.95855712890625 647.8446044921875 -16.71292114257812 650.7584228515625 -10.04782104492188 652.6841430664062 C -3.7044677734375 654.5167846679688 2.867431640625 655.40771484375 10.04342651367188 655.40771484375 C 33.92770385742188 655.40771484375 60.9183349609375 645.3792724609375 95.0897216796875 632.6828002929688 C 121.5447998046875 622.8533325195312 151.5298004150391 611.7123413085938 187.6715240478516 602.296875 C 195.9709014892578 600.134765625 204.3150787353516 598.5086669921875 212.47216796875 597.4636840820312 C 220.1585388183594 596.4790649414062 227.9200744628906 595.9797973632812 235.5410766601562 595.9797973632812 C 253.8769836425781 595.9797973632812 272.1641845703125 598.8088989257812 291.4474487304688 604.6286010742188 C 308.2728881835938 609.7066040039062 323.768798828125 616.4352416992188 337.4405212402344 622.3717041015625 C 358.3247985839844 631.4400634765625 376.361083984375 639.2717895507812 393.2265319824219 639.2717895507812 C 402.9010620117188 639.2717895507812 411.5933532714844 636.6575927734375 419.8000793457031 631.2797241210938 C 424.2202453613281 628.3832397460938 428.6095275878906 624.5914306640625 432.8460693359375 620.009521484375 C 437.2538146972656 615.242431640625 441.6761779785156 609.4266357421875 445.9901733398438 602.7234497070312 C 449.8240661621094 596.766357421875 453.2774353027344 589.0769653320312 456.2542724609375 579.868896484375 C 459.11279296875 571.0267944335938 461.6050720214844 560.5572509765625 463.6618957519531 548.7508544921875 C 465.6257019042969 537.4776000976562 467.2438049316406 524.6912231445312 468.4709777832031 510.7471618652344 C 469.6375427246094 497.4920654296875 470.4814453125 482.8453369140625 470.9790649414062 467.2138671875 C 472.7016296386719 413.1090698242188 470.4169921875 344.9388732910156 464.1885375976562 264.5968933105469 C 461.7412719726562 233.0281677246094 458.671630859375 199.4818725585938 455.0650024414062 164.889892578125 C 452.1795349121094 137.215087890625 448.94580078125 108.8128662109375 445.4537963867188 80.47216796875 C 440.0481872558594 36.60223388671875 435.6760864257812 6.3695068359375 434.8909301757812 1 L -77.91983032226562 1 M -78.82000732421875 0 L 435.7547912597656 0 C 435.7547912597656 0 510.5426025390625 504.2698974609375 446.8310852050781 603.2645874023438 C 429.0716552734375 630.8591918945312 411.8376770019531 640.2717895507812 393.2265625 640.2717895507812 C 353.3065490722656 640.2717895507812 307.0253601074219 596.979736328125 235.5410919189453 596.979736328125 C 220.7932586669922 596.979736328125 204.9830474853516 598.8204345703125 187.9236297607422 603.2645874023438 C 104.6692504882812 624.95361328125 52.52377319335938 656.40771484375 10.04348754882812 656.40771484375 C -18.04269409179688 656.40771484375 -41.90011596679688 642.6655883789062 -67.74374389648438 603.2645874023438 C -132.6759338378906 504.2698974609375 -78.82000732421875 0 -78.82000732421875 0 Z" stroke="none" fill="#707070"/>
    </g>
    <g transform="matrix(1, 0, 0, 1, -398.08, -196.55)" filter="url(#Path_1)">
      <path id="Path_1-2" data-name="Path 1" d="M169.174,0C256.013,0,326.41,83.4,326.41,186.281S113.535,346.362,44.852,591.192,62.478,324.04,11.937,186.281,82.334,0,169.174,0Z" transform="matrix(-0.79, 0.62, -0.62, -0.79, 661.42, 548.92)" fill="navy"/>
    </g>
    <g transform="matrix(1, 0, 0, 1, -398.08, -196.55)" filter="url(#Path_2)">
      <path id="Path_2-2" data-name="Path 2" d="M224.314,586.923c100.333,0,181.67-75.274,181.67-168.129S160.029,274.313,80.674,53.342s95.873,312.647-38.03,365.453S123.981,586.923,224.314,586.923Z" transform="matrix(-0.72, -0.69, 0.69, -0.72, 622.5, 704.22)" fill="navy"/>
    </g>
  </g>
</svg>
