<svg xmlns="http://www.w3.org/2000/svg" xmlns:xlink="http://www.w3.org/1999/xlink" width="1730.198" height="1407.477" viewBox="0 0 1730.198 1407.477">
  <defs>
    <filter id="Path_1" x="0" y="47.974" width="1119.316" height="1228.05" filterUnits="userSpaceOnUse">
      <feOffset dx="5.021" dy="20.085" input="SourceAlpha"/>
      <feGaussianBlur stdDeviation="1.506" result="blur"/>
      <feFlood flood-opacity="0.129"/>
      <feComposite operator="in" in2="blur"/>
      <feComposite in="SourceGraphic"/>
    </filter>
    <filter id="Path_2" x="556.935" y="0" width="1173.263" height="1197.282" filterUnits="userSpaceOnUse">
      <feOffset dx="4.986" dy="19.945" input="SourceAlpha"/>
      <feGaussianBlur stdDeviation="1.496" result="blur-2"/>
      <feFlood flood-opacity="0.129"/>
      <feComposite operator="in" in2="blur-2"/>
      <feComposite in="SourceGraphic"/>
    </filter>
  </defs>
  <g id="Group_394" data-name="Group 394" transform="translate(4541 4642)">
    <g id="Group_393" data-name="Group 393">
      <g id="Path_51" data-name="Path 51" transform="translate(-3978.954 -4330.087)">
        <path id="Path_1000" data-name="Path 1000" d="M83.521,1095.064a130.529,130.529,0,0,1-17.2-1.109,115.069,115.069,0,0,1-16.655-3.482,113.3,113.3,0,0,1-16.238-6.087,124.886,124.886,0,0,1-15.948-8.927,151.76,151.76,0,0,1-15.785-12.006A198.205,198.205,0,0,1-14.05,1048.13c-5.249-5.681-10.572-12.032-15.821-18.875-5.288-6.894-10.678-14.519-16.019-22.662a139.457,139.457,0,0,1-9.553-17.363,222.864,222.864,0,0,1-8.46-21.063,411.012,411.012,0,0,1-13.825-52.1c-3.842-18.849-7.218-40.224-10.033-63.532-2.675-22.146-4.915-46.615-6.657-72.727-6.027-90.348-6.455-204.173-1.274-338.313,2.036-52.7,4.953-108.7,8.67-166.447,2.974-46.2,6.464-93.608,10.374-140.917C-70.316,57.5-64.905,5.8-64.345.5h857.96c.763,5.189,8.324,56.925,17.778,133.655,5.829,47.308,11.227,94.719,16.044,140.917,6.021,57.746,11.145,113.746,15.231,166.446,10.4,134.138,14.214,247.961,11.338,338.308-.831,26.112-2.241,50.58-4.19,72.726-2.051,23.306-4.756,44.681-8.039,63.529a388.274,388.274,0,0,1-12.4,52.1,209.866,209.866,0,0,1-7.994,21.06,131.6,131.6,0,0,1-9.267,17.359,211.475,211.475,0,0,1-22.063,29.012,135.811,135.811,0,0,1-10.987,10.662,105.9,105.9,0,0,1-11,8.332,79.765,79.765,0,0,1-44.993,13.531,110.112,110.112,0,0,1-21.678-2.291,185.813,185.813,0,0,1-22.673-6.182c-15.507-5.188-31.886-12.3-49.228-19.831-11.706-5.083-23.81-10.339-36.55-15.407-14.445-5.747-27.557-10.379-40.084-14.159A345.008,345.008,0,0,0,508.684,999.9c-7.921-1.3-15.924-2.3-23.787-2.963-8.3-.7-16.715-1.058-25.013-1.058a302.958,302.958,0,0,0-38.354,2.467,331.282,331.282,0,0,0-41.247,8.038c-26.876,7-54.169,15.227-83.441,25.147-25.612,8.68-48.67,17.247-70.969,25.532-29.021,10.783-54.085,20.1-77.551,26.95C122.511,1091.553,101.92,1095.064,83.521,1095.064Z" fill="navy"/>
        <path id="Path_1001" data-name="Path 1001" d="M-63.9,1c-.766,7.282-6.071,58.336-12.255,133.171-3.909,47.3-7.4,94.713-10.373,140.907-3.717,57.742-6.634,113.739-8.67,166.435-5.181,134.122-4.752,247.93,1.273,338.261,1.741,26.1,3.98,50.564,6.654,72.7,2.814,23.294,6.188,44.656,10.027,63.492A410.5,410.5,0,0,0-63.431,968a222.352,222.352,0,0,0,8.44,21.016,138.969,138.969,0,0,0,9.518,17.3c5.334,8.133,10.717,15.747,16,22.632,5.24,6.831,10.553,13.17,15.792,18.84a197.72,197.72,0,0,0,15.7,15.284,151.275,151.275,0,0,0,15.732,11.966,124.4,124.4,0,0,0,15.884,8.892,112.8,112.8,0,0,0,16.166,6.06,114.579,114.579,0,0,0,16.583,3.467,130.028,130.028,0,0,0,17.136,1.105c18.351,0,38.9-3.505,64.66-11.031,23.449-6.85,48.5-16.159,77.517-26.939,22.3-8.286,45.364-16.855,70.983-25.537,29.283-9.924,56.588-18.153,83.475-25.157a331.8,331.8,0,0,1,41.309-8.051,303.451,303.451,0,0,1,38.418-2.471c8.312,0,16.742.357,25.056,1.06,7.876.666,15.892,1.665,23.827,2.967A345.531,345.531,0,0,1,553,1009.784c12.542,3.785,25.667,8.421,40.126,14.174,12.747,5.071,24.855,10.329,36.565,15.413,17.33,7.525,33.7,14.633,49.185,19.814a185.35,185.35,0,0,0,22.611,6.166,109.66,109.66,0,0,0,21.579,2.282,79.267,79.267,0,0,0,44.719-13.448,105.4,105.4,0,0,0,10.952-8.293,135.312,135.312,0,0,0,10.946-10.623,210.992,210.992,0,0,0,22.009-28.943,131.09,131.09,0,0,0,9.231-17.292,209.332,209.332,0,0,0,7.975-21.009A387.772,387.772,0,0,0,841.283,916c3.281-18.834,5.984-40.194,8.034-63.487,1.948-22.136,3.357-46.594,4.188-72.7,2.876-90.328-.938-204.132-11.336-338.251-4.085-52.7-9.209-108.691-15.229-166.433-4.816-46.194-10.214-93.6-16.043-140.908C801.659,59.246,794.229,8.135,793.183,1H-63.9m-.9-1H794.046S918.87,841.642,812.533,1006.867c-29.641,46.056-58.4,61.766-89.467,61.766-66.628,0-143.872-72.256-263.182-72.256a313.429,313.429,0,0,0-79.475,10.49c-138.954,36.2-225.987,88.7-296.888,88.7-46.877,0-86.7-22.936-129.829-88.7C-154.682,841.642-64.8,0-64.8,0Z" fill="#707070"/>
      </g>
      <g transform="matrix(1, 0, 0, 1, -4541, -4642)" filter="url(#Path_1)">
        <path id="Path_1-2" data-name="Path 1" d="M283.553,0C429.106,0,547.1,139.79,547.1,312.228S190.293,580.541,75.176,990.9,104.72,543.126,20.008,312.228,138,0,283.553,0Z" transform="translate(1109.78 913.65) rotate(141.87)" fill="navy"/>
      </g>
    </g>
    <g transform="matrix(1, 0, 0, 1, -4541, -4642)" filter="url(#Path_2)">
      <path id="Path_2-2" data-name="Path 2" d="M373.356,976.9c167,0,302.377-125.288,302.377-279.839S266.358,456.576,134.276,88.785s159.574,520.379-63.3,608.272S206.357,976.9,373.356,976.9Z" transform="matrix(-0.72, -0.69, 0.69, -0.72, 1044.81, 1172.85)" fill="navy"/>
    </g>
  </g>
</svg>
